<mxfile host="Electron" modified="2022-05-11T08:51:57.247Z" agent="5.0 (X11; Linux x86_64) AppleWebKit/537.36 (KHTML, like Gecko) draw.io/17.4.2 Chrome/100.0.4896.60 Electron/18.0.1 Safari/537.36" etag="T4rdfEnTEmyoH6kmyypS" version="17.4.2" type="device">
  <diagram id="3eu3dp5-6rhOcf1nuOYx" name="Page1">
    <mxGraphModel dx="2628" dy="3291" grid="1" gridSize="10" guides="1" tooltips="1" connect="1" arrows="1" fold="1" page="1" pageScale="1" pageWidth="850" pageHeight="1100" math="0" shadow="0">
      <root>
        <mxCell id="0" />
        <mxCell id="1" parent="0" />
        <mxCell id="mG2--i8ZaQPzaHp7R9do-2" value="" style="shape=image;verticalLabelPosition=bottom;labelBackgroundColor=default;verticalAlign=top;aspect=fixed;imageAspect=0;image=data:image/png,iVBORw0KGgoAAAANSUhEUgAABWEAAANcCAYAAAA+XW0PAAAgAElEQVR4nOzde3RU1333//c+c9EVaSQhIAYTows4GLsGG2JD4zihwhU0DjiIXOzG+vUiRbmA2j7kt6j9/Lqa4tCGNhH248iojQtx0qdFDpA0oBo9PLkVbAOWHVshBl2wY8DYyNIIdNdozu+PmZFG0kga0AgEfF5rzZLmnH323mdkL0Yf7fluY9u2jYiIiIiIiIiIiIjE1A9+8ANuv/12rKs9EREREREREREREZHrlc/nUwgrIiIiIiIiIiIiMlEUwoqIiIiIiIiIiIhMIL/frxBWREREREREREREZKL4/X6cYzU6/t9vU1H2LJaxME7o6fANaeHAGBcYFwYnxrjISElnQ9mnSfEkT9DURURERERERERERCa/qELYY794nQPHK8nIyKCrq4vm5ubgGYMx8RgrEcskkZCYRm+vG0wiSd0eHqhZwJJP/t4E34KIiIiIiIiIiIjI5DZmCAvQ09NDVlYWFy9epKnpA+LjE/H53BgrkcTEdFyuFCwrkb4+C2OSsKwp2LY90XMXERERERERERGRq6CioiKqdkVFRRM8k0tTUVHBQw89xNSpUyOeb2pqYvfu3TGdt23b0YWwxhjefPNNbr55Fn/0R/dRU3Oapg/8WCaJnp5EIBG/Px6HMxnLJGJ6E0bs69TBCqobhh9PX1zA2oVpQxtT8Uo6BWsXktZ/qIJX0iO0HbdTHKx4hfSCtSzkVZ6vbCC7YC3RDxN2faymduogFdUNkL6YguVw8JLnNIaWy7lPERERERERERGRsQPWaIPaK+mhhx5i749/zOpPf3pYENvU1MTeH/+Yhx56KObjRhXC+nw+Wlsv8A/fuUjih47x7nezaflZBqYrActKwh2XBiTgck3B7U6mp3vkVbBzlhdRtByiCi3nLCevsYKaUwtZPgdoeZVXWhazfPlIF8QoCE1byNqihePoIBZOcbC6gey8osC9Q+znNCnuU0RERERERERE5MqYOnUqqz/96WFBbCiAjRTOxkJUIazDMQWfr4tnj2Xw1gd5tDfPIHlaBrxj4aOVnh4HlpWE359ET28i8ZYjZhOcs2gxrxx8lZY5C/HWHCXtriJunEWb6aR7rvYcRERERERERERErh9Dg1hgQgNYiCKENThwONPo7enj+I9vx3XhJpIuJuLssXDbfTiZit/dRXuCRWd8MsZK4rIy2JZXeb7yKIFtv7LJK1rOHIC0hSzPfp6DzzfQnJZH0Zz+C3j1+UqOBvcJy87Lg+pqGoCGygqOZudRtJwhK2OHrJQNGzN98eKwcHfkdoGxBlanRnaKgxXVNGTnUbR8zijXB8dZnMbRo4EaDYGyDN7A9cF7aeg/NsrcjzYEzw1dDRz+PPA92dDQkEZeURaNI95n6Gcw9JrlzBml3fB7uXEicxERERERERERuTaEB7HAhAawEM1KWOPEstKIT0ziNtvB7NzjeFIv0N6SxBsvfwQXNvH0ct/9L/KbN34Px2zDuXc/BNx0CdM4Fax3WsTaNODUQZ5/tYU5wQAvbeFdpB19hezw5PNUDUfT8ihaG3asKA+GBJCjj3mUtLwi1s6BllefpxJIH6NdIKh8nldHLHnQwqvPV0NeUTAwHuv6Zo4230VR0fJgDdgaTi1czvJh9+K9jLlH0kxLegFFy9OAUzQO6jPSz2D4NaO1i3Qvo+bVIiIiIiIiIiI3uGt1kyuJXlQrYS1HGpZJoq/JybveqczNO8XhQ1kkm24cTgcOdyKn3/097v3D33Lu/Xm8W3fzpc2ixUsLzYEVrKFj2VkQXJt66mA1ZGdz9OCr3BLapMuTTnpDNc9f7iZdLV5a0hf3r2hNW3gX2UdfGWFu2dwVShLTFnJX9lEavf3TG6ThYCVkF9CfDY95fTqLFwVPzskim1fwtkTu+5LnHlE62bdE6HzEn8GQa8Zod8n3IiIiIiIiIiJyg1O4euWF14CFSVCOAOPAYaVhrCRosUjKaMfltMma/z7TbrnAhY7pvHvuVs52fJTl2b/i9bfXYRJSAf8lTiWsBEG4UwepbllMwdpbSH++cmCTruCmUi2vPk9FRXMUJQKuhGYgnebmERLaSS/SzyDSauJo24mIiIiIiIiIiEwukTbhirRZVyxZYzcJrIR1ODy4p7hwpyfjSEmib8oMut0f4q0PlnLBkUtmVhv/dWgDH//k/6atL/7SZpHmIY0GXnm1ZciJFl59pYXFyxeSRhoLly+mpfrgoLgvbeFaChan0+Idei2Ah/T0ZppDn+Q/1UhD+JjNR6kJdtby6isD5yLMrTE0aMurvNKQTVbEwDed7OVryaOa50P3cknXR2nUuY9yz2P1GfFncJntREREREREREREJplIASwMrhHb1NQUs/FOnz5NbW1tFOUITKgcQSJ9mYkkzGqh1Tcbf3IaU28+jUk5zrHaTzH95hp+eWwtmQ13kTn1t8CHL2E6c1hesJjnKyupCH3GPTuPPKoDdV9Di0rTFnJXdgXVB7MoymqkojoUL2aTV5QGpJGVXU11/8Zcc1h4VzYV1RWBIDI7m+zwMfMGzqUvXkx2xLgyNLcKAtU50llcsHbUOqdzlhfgfb6SiobFFKxdeMnXj220uaeNcs9j9BnhZ1C0/HLbiYiIiIiIiIjI9SzaWraTye7du3nooYcirnYNBbG7d++OWYmI7OxssrOzMbZt26M1/OHfv0zZnjqMlYQnIYkZniQcrkQ+/OF60tK8vPjaatI8p3nn3Vvo6TX4+sDR+gGbv3mRjy6/MyaTlTG0vMrzlc3cFamcg4iIiIiIiIiIiFwVlZWVZGdnj70SNuvWdGbbLuw+G9PeS0dHB06nD5+jDbujicXpOzlx6g6SLvpIDF6TktBBUsa0Cb4FCTlVc5Tm9MV4rvZEREREREREREREZJgxQ9h7V+dSvjQVn8835EzuqNd5PIoEJ04Lrz5fydHm0PNs8ooWXpNbgYmIiIiIiIiIiFzvxixHICIiIiIiIiIiIiKXLlSOwLraExERERERERERERG5nimEFREREREREREREZlACmFFREREREREREREJpBCWBEREREREREREZEJpBBWREREREREREREZAIphBURERERERERERGZQAphRURERERERERERCaQs7W19WrPQUREREREREREROS6pZWwIiIiIiIiIiIiIhNIIayIiIiIiIiIiIjIBFIIKyIiIiIiIiIiIjKBFMKKiIiIiIiIiIiITCCFsCIiIiIiIiIiIiITSCGsiIiIiIiIiIiIyARSCCsiIiIiIiIiIiIygRTCioiIiIiIiIiIiEwg51gNnizfcSXmISIi15n1JYVXewoiIiIiIiIik8KYISzoF2kREbk0+gOeiIiIiIiIyICoQliA1NTUiZyHiIhcJ1pbW6/2FEREREREREQmFdWEFREREREREREREZlACmFFROQ6UE2px4OntDri2cbyFXg8KyhvnODxwx4jTGXIZaWB9ivKGXlq1ZSOOPfRzomIiIiIiMhkoRBWRESuE0tYcnxrhECymic3HYni+vEGmkvYUuPF6/XirdnC8YJSRs9hqykt2EFhpRfvgRKyLndYERERERERmfSirgk7kgvnOzn8b7+ltekiluXAMha27afP34fT4YrFHHG4HCxek8PM+Rkx6U9ERK5P8+fDnhcaKSkJizSr97GjsJDCHcev3ESycpjPHuobIW/UdHUJ87Kv1KRERERERETkahl3CLv5Uzt54Xffp3fKBT580xzeaThLl6+D2+6eR/2rb2PMKIttjRNwYXBijAtjnGBcg7/HibHdzPqnWWw+sJbbFt2KZWkBr4iIDDdv/UZY9CTVJWXkAdBI+dbjbHlmIyfCQ9jGclYs2kRgfWwhld5V7PMUsANgkYdNhZV4y/KoLvVQsCN4TfBYVKr3saNwI95QADvGeHu21HCgJCtCu9B9AA0D55aE2g812vUiIiIiIiJy1YwrhO3z+fn1b17lYuY5EpwJ9Do6abXfBwfEJ8TR6WrFGBPhSisYtLoxxg/GxhgwxmCwwFgY48AYO3DMQEtPBydePMP02VOZNm3aeKYtIiLXkKamplHPT506NexZHqsKC9hXXUZeHtD4AntYwzNZcKK/TTWli/awpsbLgSygupQV5dkc8FaCZyvzag4Qyjfzyrx4y4LXeLZSvj6PSNlnwBE2LfKwCQgEoKH4M9rxIrVrJK8k2PfWNdR4vWRVl+IpCA+aR7uvRvKCEx7rdRQREREREZEBg3/XHL9xr4QNMcawYMECfvOb32DbNrZtj9DOFVzt6sYQCmJdEPwaCmfpPz/QFqC3tzdWUxYRkWvEpfzjl7d+C1u/VE5jXgkNT25i/kYvWeHVWRvrOc4RdvQHpkDhqsidVZfi6V8Ku4QtMMpq0yVsCQWqjeWs8KygvuYAJUQ53qjzWsKWZ4J1Y/NWUcjW4aUORrw+0CjWbyBERERERESuVxOxiCUmIWxbWxtxcXGcP3+eDRs2sHPnTt55550hrRxDQtaBALY/ZA1/Hh7Whq4REREZS9YDrOFLvFANe45v4ZmySI0ifVR/yDZajeWsKIBKr5c8Gilf8aVg/yUc8JaMPYclmzjRAGRHOV608xqVShCIiIiIiIhMRuMurtpjdwHgcDhobm7m2LFjfPnLX6atrQ2ApKQkMjKmM3XqDIyVEHiYeCwT+GpCX60ELCu+//zwNrHZ5EtERK53WZRsnM+mgk2w5gGGVQ/IymE+O9ha3jh6Nw0nOLJkXiBDbXyBPUcuYQqNL7DnSHDTrWjHi7bdRF0vIiIiIiIiE2bcIawVrOXqcrmwLIvTp09TXV3NggULyMrKIisrizlzbiY1NQUrGK4Gwth4LGtIENsfyIa1CR5DK2FFRCRaeevZsqSQjRELuOZRVrMFNi3C4/EEHqXVBOrJBuq6ekqrA32wiUUeD54vnWD+krEGDV7r8eBZtIc1/bVeRxov2nlFfdPjvF5EREREREQmivF6vZGLtwY9Wb6D9SWFpKamDjvX5/OzMq2EN9P/C6fTyc0338wHH3xAXFwcH//4XXzsY27q62dy5EgNJ+s+oKvTDCs5MKg0QbAGbKQ2qR9YfPkvbuXeh+Yzc+bMCXtBRERkfFpbW/v/7YiFpqYm1TMVERERERGRKyaWv4ceOHCA7Ozs2NSEdTqd9PT08N5779Hd3c3DD3+M9eufJzHxPO++dyuvvn4znZ0OLCtuIGQlUhAbVg+WoUHsqFmxiIiIiIiIiIiIyKQUkxAWwO2Ow+1OIDExkXWff4NTFwxvvz2Xtz5IZtoqH54LKVysC990Kxiu9oetkTbmGlgda4wvVlMVERERERERERERuWLGXRMWwBgnxkqgu7sbl8tF9Vup/OCVO3nu6O3seHEuP3tjLj23ZOPOmoXlSMCYhGB92ISw+q/D68NaZuAcl7gxV1WxwRRXDT1KsVnGtvqh318l9dtYdrXnICIiIiIiIiIiIhNq/CthjQNjEoiPT6a5+RRnz77DvxxYgc+aCRficbQl42pLwlxMwupIBBd0976F3/iGrH6NVB82tCLWhcEf/Zzqt7G5togiNrOtPp8NOeO+y4mRs4FD9oarPQsRERERERERERGZQOMOYQ2O4MpVN8nJHlJSb8bfeAtOXzqmLRGrPQmrPQGrPQHT48Zh95Fo0uhMOENXfFuw/usIG3WFyhTgxpjeqOdUv28XrNvJRh7l0X31bJi0KayIiIiIiIiIiIhc78ZfjsBYGCuBnl4nlmMOhg/heGsGroabcTfOwvVOJnHNibh7bBLoJJ4u4ulhakcGmW3TcJKAZYWVJTDxWP0lCYJlCax4MO4oJ1TPvl2wblUOOavWwa59RPVp//ptLDMGYwzLtm0bXKog7JwxxQSKHATLGVQNnCuugvpty4LtDMvC6wyM1kd4eYRtxZGvFxERERERERERkWvSuENYg3NwLVcrAef5NOJaEojr8ZNAF3F0kWB3EWd3EUc38fTgpgdPj4PZ3gQSfHEDwWswkLWsofVho6wJW7+PXaxjVQ6Qs4p17GLfmFlmFcW5pSzYb2PbNjvZRcWgc7tYVxc4Z++Hzf3h6GFKN8NO28beX0TFSsOj7Ay2K+Jw6daBsHXEPsIdpvT46gjXi4iIiIiIiIiIyLUqBithHYGVrGFBrJte4uwu4unCTSB4jaMncJwe3HYv8fTiNr0k+vvI9naT2envv96y4nE44rCsBBzOOIwVH/XGXIFSBKsIFCDIYdU6KN06RpRZf5LapWVszA88zdnwOEXh5zhMaW5wFevKCg4frwueXErZzg2BsfJXU8RS1q0Klj7IX00RtZysH6uPcEspC00i/HoRERERERERERG5Zo1/Y66wmrChWq73LH6D5Z+o5fSpGTyw+pf8Yt89pHjaaTmfygfvpfGZP93PubensfMfvgC24bNf28P5d6fznwceJHG+lz/4/V9w6nQOubc08ErtvfyfF9cEa8N2jzGXKraWHuYwuZjS8ON7qdqeT/5l32MR++3tQ66/1DWqsehDRERERERERERErjXjL0dgHAMrWINffV1O/vnv1/HCv3+clNQ2fvmTj/IfTz3I28dn8euf307lU58m945GXHEOEtItmppmcmDfOhKYwl88UsEPf/QlfnTgUXbs/houl8GYeCCKmrBVe6lYWkadHfzYv21j23WULa1g72h5Z85cFhwuJbRgtn7b5oFyBDlzWUDFCOUDohSLPkREREREREREROSaNP5yBDgCm2qFBbF1tR/G5ffhphcAJ3248PFW7S24XA7ePH4nL/3sY3xhYyWfLPhvDlavw5oyBZKSaTp/M9/8y018ZNYZ3m/O5pXa5cFyB44xZ1K1t4Kl/aUIQnJYtW4pFaOmsPlsD9Z0NcbwKOsGyhGQz/a6MijN7d8wyxRf6grWWPQhIiIiIiIiIiIi16JxlyMYWAkbKEVgjAsnftwGLPxgwBXnwJEcj+VygdOF5XKxb+/DfOPJr/Hmm/fgj08Fhwscbv5j9yY+99l/5Okn1lC5r5QdP/4Los2K87fbEUsO5Gw4hB38frsdapEf9j2Qvx3b3h74vn4by0oXsDqnvwMO2RuG9Tvo+qH9DX0+Zh9jXC8iIiIiIiIiIiLXpJjUhLVMPAQDWGNcOB0WLocDXHEYA9aUJByOZHC5ME4nxuFmwUePcODA53iw4Pu8UZ/HxY50bOOkhyk8++9lzKt5mT8u+Gs8Ka1857lvjH+al6BqaymHl5aRe0VHFRGR8XiyfMfVnoKIiIiIiIhMcutLCq/KuOMPYY0DYyUEN84KroZNsjCOQOCKMVjJ8WAlgsOF7XAx8+bTxCX7+dmhh/FkXuTzD3+bZ3Y+id92c8/iPfzq2MO8Ubecp77/LIWf+R9keuDi2fHf7Mjq2bYsl9LDoedF7Lc3DClrICIik93V+sdUREREREREJlZqaiqtra3j6uNqLt4Z/8ZcODAmPlAP1krAWPGQkIRJTiRjdieJSe3MyDqPSUjEJCSRfVsDaz9XwZHX/4g+ZxL/9Ysifm/Bz8hf8S8Yt5PFd/0n99y9C0/6ae6+48ccfOkRevssnK4YlK8dUQ4bDoVv5rU9YlkDERERERERERERkUsVm5WwJr6/FIExbtqcLjwJLuLTmvnmN5/Ctpz44xKxHIaO3nT+/ScbcSYYOjuTsOLa+Ztvv4AfBzh6ePK5Z4hztTNzxnFeOPwwb5+eS58fTK8/BrcrIiIiIiIiIiIicmWNf2MuHBgrfmBjLlx80BtHinHS9/5tYDmxjQvbcmPj4tS7mdi48OPCb1y8+0EufTb4/Ya+0KMP6n6Xi6/PxucDvx8SlcGKiIiIiIiIiIjINeS1117jt7/97URszOUG4+JUq5u0RBdpU+JwOZ3YOPHjDgawbmzbRV+fA5/f0Oe38fcZfH7o6wNfL/hte/xTExEREREREREREbnKxhXCWg6LtClxvG8lYHANCmKNcdHa5eZCtwuX04nbFYfL5cLhCIS0tt/Gbxt8fQRWu/pgtMWuzo5WUm+KH890RURERERERERERK64cYWwxsCf/8NifvztX9PR5h84SPgDwGAGPb80DqfN7Q8lkX5LGi6XazxTFhERERERERERketMaWkpZWVlV3saIxp3OYJla+9g+p2JXLx4MRbzGdWUKVPIyMiY8HFERERERERERETk2lBaWtr/dbIGseMOYS3LYu7cudi2jT3BdVwty5rQ/kVEREREREREROTaEQpgw59PpiD2zjvvJDs7m5ilmsYYLMua0IeIiIiIiIiIiIgIDA5gw4PXocHsZDDulbAiIiIiImM5ePDgFRln+fLlI5771re+dUXmICIiIjKWr3/96yOemwzvmybTPKIRCmDLysomZQALCmFFRERE5Aq5++67J7T/Y8eOjdnmiSeemNA5iIiIiIzlscceG7PNZHjfNJnmMZqhpQcmaxCrz/iLiIiIiIiIiIjINWek2q+TqSZsiFbCioiIiMik0tXVRWNjI11dXWRmZjJr1iyMMVd7WiIiIiLXhA8+aOJ377xDUlIi0zKn4/F4Yj6Gz+ejra0tqrbJyck4nYog9QqIiIiIyKTQ0dHBv/3bv1FdXU1vb2//8WnTpvHZz36W+++/X2GsiIiIyCh6e3tpbW1lZf5K9lX9FK/Xy5LFH435OGfPnuXOhQsxgLEsLGMwwUc4Ywwvv/wys2fPjvkcrjXjDmEvnO/k8L/9ltami1iWA8tY2LafPn8fTocrFnPE4XKweE0OM+dnxKQ/EREREZlcmpqa+Ju/+Rs6Ojq4/fbbWb58OQsWLODcuXP85Cc/4amnnuKNN97gq1/9KpaliloiIiIikbz+xq+ZO3ce7R3tTM+czsyZs2I+xi8aHDS85WThIoOBQQFsKITVH86HG3cIu/lTO3nhd9+nd8oFPnzTHN5pOEuXr4Pb7p5H/atvY8wob5KNE3BhcGKMC2OcYFyDv8eJsd3M+qdZbD6wltsW3ao33iIiIiLXkd7eXv7u7/4On8/Hli1b+OEPf8iLL75Id3c3999/P3/1V3/F0qVL+ad/+icyMzP5/Oc/f7WnLCIiIjLp+P1+Ojo7OXXqFJmZmbR3dACBTxslJibGbJz32wyeFDeWZQVCWMsaNYA9cMLJLV0O/mBuX8zmcC0aV5rZ5/Pz69+8ysX4cxinTa+jk1b7fbodbcQnxNHpaqXT5Y3wuECXu5Nudzc9cd10x/cGH330xPXRHddHd5xNT5xNT7yhJxFakjs48eIZmpqaYnXvIiJyQ6qm1OPBE/YorZ6IMVZQ3jj0+9hoLF8xMP9LmHx16aW1v8RJsSLG9yk3jn379nH27Fm+8Y1vMGPGDLq7u7njjjs4fvw4zz33HAD33nsva9euZffu3Zw7d+4qz3gMVcWY4qrLO3al1W9jmVnGtnqAKor7v49GFcWmmCtyB7F6TQfdr4iIyPXl3XfP0N3VxU/3V1FbW0t7exu/OV7LybqTMR2nt8+mrbMPy5hBAexID3ecg7dbYrMytqGh4bIfV1vMlpQaY1iwYAE+n4/e3l5s2x6hnQtjxWOsBIyJx5gErOBXY+IxVjyWlRA8P9DGEChtEF4fTERE5PIsYUuNF6838CjLi/a62Aeql6yxnC9tmk+l14vXW0nhjq3RzaexnK3HCyk8HmX7S5VVwgHvAUqyJqBvua75/X6qqqr45Cc/yfTp0wHo7u7m/PnzTJ06lY6ODr75zW/i8/koKChg+vTpVFfH8o8Jlxo8jqWebZtrKduYfxnHroKcDRyyD7EhJ5adTuLXdELuV0RE5Opr72jHGAcJCcn84YoHOHT4RRITEmhqOk92VnZMx/L12bR1+cYMX0OPti4fPT5/TOdwLYpJCNvW1kZfXx/nz59nw4YNpKWl8c477wxp5QgGqvFY/YFrQn8gOxDEJgwEs1ZYG+OOxVRFRESufUvmEXgblc28JcFjjeWsWFHOSPlq4wt7YM161q+BPS9ouapMHmfOnOH8+fOsWrWq/5jP56OlpYXm5mZs22bKlCls2rSJtrY2li1bxrFjx67ijMdQv49dCx4fHPJFe0wi02sqIiKT3JEjRy7rXKycOXOaXbt28cgjj5CZmc7Zc2dIS02lqek8dy1azJQpU2I6XiCE9Y8avALYto1tB9r2+CIv1ryRjDuE7bG7AHA4HDQ3N3Ps2DG+/OUv09bWBkBSUhIZGdOZOnVGMFBNGBzEhgWy1qAVskPbxGaTLxERkcgCq1xLS1fg8ZRSTSPlK8JLFlRT6ilgB0fYtCjsY/2N5azoL21Qypjr8yK2D66wLS/tH2/FSMtVs0rYOH8TizwePJ4vwTPRrD5t5IU9sOaBLLIeWAN7XggLa0cee1DZA89Y9zxklXBYmxXl5SOeu6zXQK4rb7/9Ni6Xi1mzBjaNsG2b1tZWvF4vzc3NeL1eUlNT2bRpE4mJiZw5cyZGo1dRbFZSwWFKcw2m+HtsW2ZYFlrCWVWMWbaNwLN6ti0b+MWiuGro+YD6fbtYsHrwSszojkXoH4Ifn49wPLTatGrgfHEV1G9b1t+2/z4itB12LtKq1UFjR1t2YDK8poF+B1Ul6O93yP1GuMeq4givc3j7q11CQkREJpULFy7w1FNPsXv37mHndu/ezVNPPcWFCxcmbPxXao7xnbLv8Oz3vscjf/wwM6bPYOUD+Tz44IMsW3YfycnJMR3v29UXebm+mdfOOfirH7zFXz53ir/4fiOlOxvYsKOeDTvqWf+vdXzt2ZOs/9c61v9rHa+dc/DaqWa+XX0xpnO51ow7hLVMoBSBy+XCsixOnz5NdXU1CxYsICsri6ysLObMuZnU1JTgateB1a2WNSSIDStJ0N8meAythBURkZgJBqnDgtMjHJ/3DF5vGXnVT7JpfmVYyYI8yryVFIZKGZTlAdWULtrDmlBpg0rYOmpwOFr7I2w6sSp4vJAjm56MHOhWl1KwYwlbaiop5Aibngy2ajjBkb4OzmAAACAASURBVPk5RMxjG19gD2t4IAvIeoA17GHwYtjIY2eVHAjefyWFFFIZ9T1XU7poE/MrA22eYQ87YvkayHWlp6eHuLi4QRuv9vb20tbWRlNTE6dPn6ahoYFf//rXtLa2xjCABchnu72fIpZSVmdjb/9TNhzaz4LSrVRRRfFK2H9oAzkAVVspXbC/f0XH9oifeK9ia+kCBmeD0RyrZ9uyXHatqxvSfxXFuaUs2B84ZteVUbsyPDA9TOlm2Gnb2PuLqFhpeJSdgbb7izhcujUsOA1rW1cGpY+OUS6giuLcXayrC469HzZHVV9gMrymOWx4vIiKvQN3X7W3gqLHg+OOcY/5q8OurdpL7VLYtS8YG+/bBfNzo3gdRETkRpGSksLTTz/Nnj17BgWxu3fvZs+ePTz99NOkpKTEfNyenm5+tPtHfPe73+XY0WM8WvhFCgrWkZKSOqEb2neRxH13zCLv7jnMuWnqsMctH8rglg9lDDqWd/cc7r9zJjhjGwhfa8b9U3EST3x8PBcuXKC9vZ329nbOnj3LTTel8NWvfoTf//17sG2b9893RgxcrbCSBIHVr0Pa9Ie1WgkrIiKxEl4Ttoy8sONrHgjGmNnzWLKjYPTVmI31HA8PdAt2cOTEKAXfR22/hC3rgzPJW0Uhx6kfOnRjOSsKoNJ7gJKsPMq8XioJzLF63w4KV0UubhsoRfBAMKDN4oE1DIS3UYxdXVoAlcHXKZp7bqzn+JIthLrMKtlIYaxeA7nuJCUl0dHRMajuv8PhwBiD3+/H5/PR09OD2+3mwQcf5NZbbyUpKWkCZ5TP9v2w0qyE/dvpz/ly57O0YmXYClIgfzv2obBgr2ovtWUbGZwNRnGsfh+7Dhfx+NDP0defpJaigbAxZwOPFx3meF2owVLKdgbHz19NEUtZtyrYR/5qiqjlZH2EtsP6iaD+JLWh1azGYFZWcHjUC0ZzFV7T/NUUVewNhtBV7K0tY1ip2JHuMXc+S2tPUg9U7a1l3ePrYNc+6qln3y4GXmMREZGgoUHsRAewzS3N7HxuJ0ePHsUYiy8++kUe/sIjTEmObdmBSPzGRXOHm+aOOC70xEd8tHbH4e1y09LpornDRXNnPC2dcXT4nBM+v8ksJnfvdDrp6enhvffeo7u7m4cf/hjr1z9PYuJ53n3vVl59/WY6Ox1YVlwgTDVuDC6McQc26jJuMK7+7wOBq3vQc2NUO0JERK6grBIOeEuCH8k/QmHlSBt4FVI5KMgFRl2/eantwzSc4Eh/PdiAvLIa6lcsomB+Jd6I86vmyU1HOMIiPJvCj++juiyPMfckqy6lgKF9j+MeYnK9XE+ysrLw+/00NDRw6623AvSvjA09UlJSePDBB1m4cCE/+tGPmD179pWfaM4GDtkbgh/3P0zR/qErNwObQq3bmXMZx660ek7WAqvHalfEfns7E7Z12IS+pvlsLNvMo9vqyWUztet2EvkVj3SPuazjUfbVz+V47To2bl8Fm7dSVw+7WMdV/dGJiMikFQpiv/KVrwBMWAB76tQpfvrTnxKfkEBqaiq33fYRCtZ+lvj4+JiPFcnUZCdpHic9vYaMlMGxYujTLYGHhd/v52KXn6REF8ZAHE6g74rMczKK2fpktzsOtzuBtLQ01n3+DU5dMOz/7Vz21CUzbZUPz62J/atbrfBNuUzkFbBD68NqJayIiFwNWSUHqNmyhOORlmRm5TCfHWOUIBhH+6HyVlF4ZBODFrFWP8mmI8COfSOUL9jHjiVbqPF6+0sreL01bFmyg31j5p7VBBbBhsWl0dxDVg7zw+bZWL51oBzBeF8Due5kZmaSnZ1NVdXAR8f7+vro6ekBIDExkb/+67+mtbWVJ554gpdffpmPfexjEzij4Efm7f2wcngd1JwNh6grW0rtyfrB9UvHs3lUzirWLa0Y/nH/nLksoIK9YfVhN1cUDfkYfrQO93+kPrTydtR+gmNHV4JgLFfhNQVyVq2DXVvZumvB8FXGo95jDqvWwa5HN1O7bhU55LBqXS17tx6HdatGCHNFREQGgtiJCmBfeukwP/jhc9i2ja+3h7lzc/jcZ79wxQJYgLQkJ9M8DqalWUxPc0R8TPNYTE2BhHiYnu5mmsci02ORNuXGXgkbkxDWGCfGSqC7uxuXy0X1W6n84JU7ee7o7ex4cS4/e2MuPbdk486aheVIGAhiTVgpggj1YQfC2gSIKoStonjIbmxR1c2vKg60H7IJwPC+R9i0YNRzIiIy+YTXhB1hA6jqgQ2iFm2az8aSLCCPVYXhG3PlUVazBTYtGr55VUSX2j7y9ccLwjbL2jqPGq+Xmi3HKfB48KwoJ/xuqvftYEl/KYKQLB5Ys4QdY6Sw1aUF7GBHoN/+vqO5hzzKKgvZEZznl1gzUI5g3K+BXI8+85nP8Ktf/YqXXnoJgO7ubnp7e0lISOBv//ZvmT17Nu+++y5nz54lOTmZzMzMGI6ez+qi8E2kVgY/1p7PxrJaVobeH4beLxpDbunwUO/yN+QCyAnWTc0d8h42n+11ZdSuDL63zd3FurrLXZm6lAXHHw32U8qC/WP1ExibsDmZqDekmgyvKYFwmwoqFqwe4V5HvsecVevg8EDpgZxV66itqFUpAhERGVNKSsqEBLBv1L5OUnIyc+bcwvmm88yefTNrVn8Gl+vKLlpMSnCSlGBITrBwOfpwO/twO/24nX7iXH7i3TbxbhvbMkxJcpOcYJGcYDElwSI57sYOYY3X6x31c/5Plu9gfUkhqampw871+fysTP8qjdMPEx+fTHPzKS5evMi8r63AZ2XAhXgcbcmYtiTMxSSsjkRog+7et/Ab30BpgrBSBIRKEISVK8C4SDnfQfH6DO59aD4zZ84cYbZVFJvNzK87FPhLeP02luUe5/FRP0YV2MGVYR9/GqPvqM+JiNxYWltb+//tiIWmpiamTp06ZrtYjikx1ljOikUn2DisBIHcSA4ePMjdd98d8Zxt2/zjP/4jr7/+Ol/5ylfYv38/aWlprF+/HofDAcDjjz/OyZMnyc7OZuXKlRFXwx47dozly5ePOIdvfetbPPHEE7G5oUGqKF52ko3htUyjPnYlTNR71SqKzV5WT0jJgsn+moqIiFy+xx57jK9//esjno/0vunFlw5x911L+MUvf47T6eDj930CY8xlz2Gs900jzeNnp9NJSI6jz3/pZUM723v4g5ubL3keIampqdTU1FzyuCHZ2dlR/94Y7e+h0Thw4ADZ2dnjrwlrcARXrrpJTvaQknoz/sZbcPrSMW2JWO1JWO0JWO0JmB43DruPRJNGZ8IZuuLbgmUGItWHHQhnA/Vhe8eaynA5c1nALk7WQ/6o78qWapNTERGRCVL95CaOLNkyqJatSDhjDOvXr6esrIxvfetb3H777dx55528+eab3HbbbfT19fH+++9TUlLC/fffP65fOCZGPtsPDY0hoz0mkek1FRERCZeTnctLLx9mxowZ3DrvI/h8Pvr6+rDtQBga+lRHqKZ+6PtYy/Cf4lhNC36//5KusyyLW2dOATJiPqdrxfjXARsLYyXQ0+vEcszB4MLx1gyc3dODwasTJ36M8eOkEws/Fn6SOjLo9iXindKF33INWwE7bKMu03Xpc6vaS0XR49ihALZ+G8tySzkMBIrwr2avWUkFQK5hV1kdhzbkRGgX9tf9uoFzS0PthxrtehERketeI+UrFgVq1QKBjbhKhpREEBksLi6Or3/967z00kvs27eP7373u2RkZPDMM89gjOGZZ56ZkF8kRERERK4FmZnTyMiYit/v7w9g/X7/oBA2FMA6HI7+902xfv90x+xU7pg9/NPyMrYYrIR19q+EDYWmzvNpxPUlYOHHQVfgq+0PBrA2DmwMfhJ6HKR4E3gvxUG3O26EFbCBY5Zpj3JGgfpTpUAgAA3Fn1UU5+5iXZ3NoRygqphl23I5ZO+HQR/PitSunvwNwb43r6POtsmpKsas3ErVhqEB60jX6wNSIiJyo8ii5ICXkqs9DbnmGGO49957uffeewcdV/g6XvlstydiScBE9SsiIiKRhEJWp/PGrq16rRr/O1rjwBqyqZabXhKsDm6aeg43XcTRTRw9uOkNfLV7iacXt+kl0d9HtrebzE7/oE25jEkI9GsFNu+KbmMugKWU1dnYto1dN5/NoQ2z6k9SGwxojTGYlRUcPl43/PJR2y2lbGew3lT+aoqo5eTQzbiiHUdERERERERERERuCDGIzgdqwoZWssY7uvnKV5/H1+Pguf/1GSzbxjI2FjYWYGET7+7F1+sKPDcwq7uLFEcH7yROw2/iBq+IDZUkoPvSppazinVLSzleB+RC5NIAkXZ5jbbdSFSCQERERGSoY8eOXe0p8Nhjj13tKYiIiIiMaTK8b4LJM4/rwfjLERhHcOXqQC1Xq8/mzVfnMO+2t3DbvYPCV8sElt9+6osv8NPnVoPLieV2g9NFustJkqOTt0wyXcQH+sQdXAXr5pJD2Pp97Dq8lHW5BDfpKmXzto2jlwaItt1EXS8iIiJyHYp219uJNNouxCIiIiKTxWR43wSTZx7XixgU2HKQnmbjcMRjTDyWScBl/Fg+Gwd+3MbHvAUNLPuDoxQU/5S0qZ18ZNnbrPj8z1n20CvET40na+FZ7nvwEGv+5N9JzbR5JO+nPPbnT5A6pYtHPv3PfCT7BMY4opxPWCmA3F2s66/1ms/2ujIoze3fMc4UR1rdGm27kYz3ehEREREREREREbmejDuENcaB90I6/2/JIZKTLYwVjxM/ThPYiMtl9bHqj39BzZF76LMSuXvlb2hovIsLFzy8/PJKEjINd33sKK//9hM4EwwrPvU8NW/8EXPnnOSBe35Bry+ZE6cWRTmbfLbbwXqwto1thwLYoJwNHAo/vz0/eM3ltAt/PuRcxOtFRERERERERETkRhSTlbCWiecfnvkUf/mnP8ftduJ0WDhcFpbbiZWSxA+3/wkffaCW9JltxKWASUoGY7ATk7nl1rfwW/F4prfz0iurOXT0c/RYaTz772UUfeGveaP2Mzgd/vFPU0REREREREREROQqGP/GXMaBsQI1YePcfny+KZgkC5MQB24XjtQkih/7e57+zmMkTLWJS+zBjk/CWAY7LoluO5XpHzrNqf+6C7/t5kMz3sJnJfLh2W+w7+df5QsP/S3lP3yKi2djcLciIiIiclV4/uw/rsg43n/57IjnvvWtb12ROYiIiIiMZbRa9QcPHrwicxir5utkmcf1Yvwbc+HAGBf/82u7+eZ3/xhjxWPinXhu6iB1ajtWcjzpmc3c98DPuGnmaZKSL/JiTTftnal8/BN7OfzKWh6c8s989c+/TMuFm9j3s69y67xf0mcMlQf+B1s3foz77/k+/1X/+7G4XxERERG5So6VfXFC+7+79PtjtnniiScmdA4iIiIiY3nsscfGbHP33XdP6ByOHTsWVbvJMo/rQUxWwk5Jtvnmdx8F3FjGTZvTSePbd9B4eiGuKRbf3PpdUjwX+dnLN5Oa6qWlcxbbnt0OxsHF7ul88+m9ZM85xtnzObzfPItev01H1zx6fX1s/Zft9Nlg293jv1sRERERERERERGRKywmK2HbO6dgjAtj3BhcNPXE8ZvT80mKc4PlxO5z0Xp+NrZx0d48AxsXTa2p+I0L23bT2Qc1v/0EfX5Dn99w8q359PkNvj6bZu/t+P2Q2F0HdMTglkVERERkMuvu6uR3DSfp7u4kfep0PnTzLRhjrva0RERERK4JH3zQxO/eeYekpESmZU7H4/HEfAyfz0dbW1tUbZOTk3E6x78O9FoXg1cgsDEXxt0fxGJcnGp1k5boIm1KHC6nExsnftzYuAJfbRd9fQ58fkOf38bfZ/D5oa8PfL3gt+3xT01ERERErhmdHW38+Af/wq8O/ARfb0//8YzpH+JTn/sT7vnEHyqMFRERERlFb28vra2trMxfyb6qn+L1elmy+KMxH+fs2bPcuXAhBjCWhWUMJvgIZ4zh5ZdfZvbs2TGfw7VmXCGs5bBImxLH+1YCBtegINYYF61dbi50u3A5nbhdcbhcLhyOQEhr+238tsHXBz4f+H3gH22iHa2k3hQ/numKiIiIyCTVfP49vvM/N9DV2c4t92Tz+58o4I6593D+3Bmq9/5vdmx7gjdff4VH1/81lmVd7emKiIiITEqvv/Fr5s6dR3tHO9MzpzNz5qyYj/GLBgcNbzlZuMhgYFAAGwph9Yfz4cYVwhoDf/4Pi/nxt39NR5t/4CDhDwCDGfT80jicNrc/lET6LWm4XK7xTFlEREREJhlfbw9PfeN/0Nfn4+v/8Azlv/wr/m/9Ti7Syoq7Cvjzjd/grmWf5J+3/n9kTJvBg1/4s6s9ZREREZFJx+/309HZyalTp8jMzKS9I1DWs6Ojg8TExJiN836bwZPixrKsQAhrWaMGsAdOOLmly8EfzO2L2RyuReMuR7Bs7R1MvzORixcvxmI+o5oyZQoZGRkTPo6IiFznqkvxFOwIPimk0ltG3sQMRKlnK/NqDlCSdTX7iIHGclYs2sOamgOUZE2SOcl14//+5/O8d+YdvlH+b0ydfhMdvg4+ungJr53Yx1v7TlC06nEWLb2fleseparyOe79ZD6ZM2Ze7WmPrKoYs3c19vb8Sz82EXNZWQHA0rI6Dm3ImbixRERE5Kp6990zdHd18dP/PkxiYiLt7W385ngtvb0+7vy9O2M2Tm+fTWdn37AVsCOFsO44B2+3aGXsuENYy7KYO3cutm1jT3AdV330TERExq2xnBUFUOn1BoLXxnLKqyEvT8HiqLJKOOAtudqzkOuQ3+/n51W7Wbp8JVOn3wRAq2nl9IXTpN6UQssHdWx69mH+rnAHK9c9ytFf/h9+9cJPeOjRWP33WEWx2cz8ukPEJp+sZ9vmWsp2br+MY7FWRfFK2G/b5FNFsXmUbatidZ8iIiIymbR3tGOMg4SEZP5wxQMcOvwi9yy5m3PvnWPRwrtjOpavz6atyzcsgB0phG3r8mEcoxUhvTHELNU0xmBZ1oQ+RERExq3hBEeWzCM79DyrhJKJWQYrIlF478zbfPD+OT75qbX9x9rd7ZzpOsPpjtP0uLqJ/5CPkvIVXOj0cvfHlvPGscNXccZjqN/HrgWPDw46oz0Wa1V7qShaTWCdbT4by2DXvvoJHFBEROTGdOTIkcs6Fytnzpxm165dPPLII2RmpnP23BnSUlNpajrPXYsWM2XKlJiOFwhh/RFD2PAwNrRgs63LT49vYhduXguUbIqIyI0lbxWFRzbxpfLGsIPVlHoK2MERNi3y4CmtDhwt9eDxBB/BY4G2KygvL+0/tyK8r8ZyVvQfHxx2jNZfaekKPJ5SqsfoAxopXzHQT383YdcMOh6ab/XA+dJqaCxfEWH+w9sOO9fIcIPGDt7DkPsSGcnptxpxudzMmHVL/7F2dwdnOMOZ3jOc6TpDU8d5UlLjKXkmD0eqm3dPvx2j0asoNiup4DCluQZT/D22LTMs2xb8/66qGLNsG4Fn9WxbNvCLRXHV0PMB9ft2sWD14PICYx+rotgsY1t/R+HPI4wLUL+NZf2/6BRTFXZdcfEyjCnmeydrWTo/t3/MnLkLOHy8bpyvmYiIiIS7cOECTz31FLt37x52bvfu3Tz11FNcuHBhwsZ/peYY3yn7Ds9+73s88scPM2P6DFY+kM+DDz7IsmX3kZycHNPxvl19kZfrm3ntnIO/+sFb/OVzp/iL7zdSurOBDTvq2bCjnvX/WsfXnj3J+n+tY/2/1vHaOQevnWrm29UTX8p0Mou6HMHJkycnch4iInKdmD59+tWewhjyKPPWUL5iEZ5NUFjppSwvjzJvJQwpR5BX5sVbBqG6rOXr84LnjrDpxEa83rJgfdknqS4pI49qShdtYn6llwN5gaBzEbCFsfs7Pq8GrzcrcG7EPhopX7GIPWtq8B4Ir5kw+JpA/dYVlPffyxE2bV1DjddLVnUpngIPx7cExxs0/yFtG8tZsehLlD8wWomGakoX7WFNjZcDWUB1KSvKG8krGXpfIpH1dnfhiosb9Kknr9NLs/Fh99jgBc6D/5yfZDuFt5vfvMytXiPJZ7u9HwaVI7iJ42YrVRtWs3cl7Lc3kANQtZXSBfuxD4XXdB3aXxVbSxew2r6cYyOINC5VFOfuYl2dzaEcoKqYZdvqyd8AcJja+XXYdg7125bxbJSvhIiIiFyelJQUnn76ab7yla8A8NBDDwGBAHbPnj08/fTTpKSkxHzcnp5u/vOnP2X//n001DfwaOEXKShYx5Tk2K56HaqLJO67Ywo9Ph8pCe5h50OlSsNLlmZmeLAsBx+0tE/o3CY7rYQVEZEbUBYlB7x4a7ZwvCB81egQ1aHVrgXsGHRiCVvWB2sY5K2ikOPUNwKN9RxfsoXQqaySjRRG2d+aB4JB5Wh9NL7AniOFbByaiDbWc5xCVoXKKmSVsLHwCCcawub7TAlZ/fMNGy98/kPbDusngsZ6jodWEHs8eAp2cKT/grBxREaQmJxCV0c7vb09/cd6knu56LlIW0IbbY422uw2rFQnax4o4s6bfp+EpNiu6Bgsn+37YaVZCfu30x995s5nacXKgVWyAPnbsQ8FQ1qAqr3Ulm1k0JrXaI+NJNK49SepDa3eNQazsiJshetS1q1S0VcREZErKRTE7tmzh927d094ANvc0szO53Zy9OhRjLH44qNf5OEvPDLhASyA37ho7nDT3BHHhZ74iI/W7ji8XW5aOl00d7ho7oynpTOODt+4t6a6pimEFRGRG1dWCc9sWcKOfRFS2LANvLzeGrYsGedYse7vimik/ng07QqD9xV8lKnIrkTv5qxc/H4/v6s/0X/MSrYgCXCBw+EgNTmD0qVb+PTcP6buN68xc/ZVCPdzNnDIttnJo4PLAvQLbLQ1OACN9tjljFvE/mCdNdu2sbcPj3SHlh+oH1KeQERERGInPIidyAD21KlT/PAHPwTbIjU1lY9//GN84fMPk5CQGPOxIpma7GSax8m0VCfTPYMf01Id/Y/Q88R4w3SPm8xUJxnJCmFFRERuHNXlYXVNG3lhzxGWzMse3i58A6/GF9gTTT39rBzmH9nEk8FMt7F868CK12j7G62PrAdYs2QHW4cWZs3KYT472BdWH3brjrCVsZfkCHteCPYfXHk7aj/BsYfNSSRKGdNm8OGcefx8/0AdNWe3E9ohrieeDN90yj+1H+t3fp76xkZee+mXLP74RAb9VRSvhP32flhZPKziQM6GQ9SVLaX2ZP3gmrDj2pArl/lLD9Ofl1btpWK0cXPmsoAKNm8bY5Ot3PksrdjbXy92aylaJSsiIjKBQkHsRAWwL710mB/88Dls28bX28PcuTl87rNfID4+PuZjjSQtyck0j4NpaRbT0xwRH9M8FlNTICEepqe7meaxyPRYpE25sUPYcd/9xVYfR37xARdbu/s3DAj9RT68ttd4OBwWC5emcdPshJj0JyIiN7C8HE54PHhCzwsr8ZZkAVmsKiygYJGHTYWVeMvWs2XrIhZ5NsGSQgqjWrmaR1llIZ4CDzuAJVu2UMie4Klo+xulD7IoOVDJCU+gnm1g+sGatjVbWLEodF9L2FJzgMuLqZYw/8SX8HiO9Pc/ej+hsQfmRGFlsPatSHTy136RZ/7+MRYtvZ+F934cLkJSRzIz2m9h+6f+C09CBr84+yPeP/sOU2fcRMa0GbEcndVFK1mZaygt+hfKav+M2rI6tpNDbtlmcpdto+7QBnKqijErQ9FoEfvtnEE1YQMbbR0a1HO0xyCHDY8XYVaaQPhaVERR6FSkcclhe10Zy3JzMaF974r2Y28f2u0GDu0v7t+huGi/PST8FRERkVibiPAV4I3a10lKTmbOnFs4caKOez66hPz8VTHL3qKVlOAkKcHg9lm4HH0E3maEKvYH6sD6/TZt3YYpSQM1Y42BnjiFsOPyT3/7Gi++/9/0JXaQmT6dpneb6enrZnbuTN5tPI8ZbesE4wAcGBxgQl+dmLDvwcLYTqbuyeCxzfPIzZ6OZcVuOwYREbnR5FHm9RIpIxzYOCug5ICXkojX5438PK8ssGFXfyehHrKi7G+0PkaZf1YJB7zDex9zvhHGn7f+QIQQNbzdkGtGGHvYfYmM4M577mPR0vv5/lNbsIGZ/gw8zmzKVj2PZTkAaG1uwul0keJJp+NibHfWzd9uhwWYf8qG4Hc5Gw5hb+hvhD005czfjp0PUEXxrnVsHJStVrE1qmMj9B/6NifCuIHJcah/cmGX2UPKEkSat4iIiFxz2toucvddS3jvvfeYNWsWH7/vE/1/aL2SkuId+G3AWFzsDm2+NXS3UQPGYIcdt22Ij3dcqWlOSuMKYf1+mzfffofO1Bbclps+q4cOWsEBbreLHkf7CP9BGMCJMU6M8YOxA1GtMRj8wa9W4LgJxLhtvh7qfnuRqZlJZHgmvtCwiIiIiFwZxhj+n9LHefbb32D73z/GHQvvY9l9q2j47Rvk3nYn/r4+Pnj/HI985evc84k/vCq/cIwun+2HhtZkjfaYiIiIyNhysnN56eXDzJgxg1vnfQSfz0dfXx+2HQg6Q59OtywLy7L6v4+1DP8pjtW04Pf7L+k6y7K4deYUICPmc7pWxGwd8P/P3r1HR3Weeb7/vrvuumOuCTYxIIGjKD6GENJBiZMeR7glTjK4J+B0kg6slYlkkm5LPXPIDI2P+4wbxxNzOhHx2FhkHEOc9OrANLinjTRG7Z6J50ixsYJvCh1QIfDdGFkUQndV1T5/1EVVUuleAgl+n7X2ErUv7/vskldSeurZz2uMYcmSJbz55pvxdgSpxapdnRgcGOMatg/jBOOKHMcZrYiNhBoMhdIVsoiIiIjMEG6Pl4r/+CAv/+bX/PMzh3jqv/yQvHnz+cG+QxhjIj+v8ON2IiIiIjPF/PkLmDt3HuFwOJ6ADYfDJPYkKQAAIABJREFUSUnYWALW4XDEE7DpTsTeuiSXW5fkpnXM60VakrC9vb24XC46Ojr48pe/zD//8z/T1tY25CwLcESrX53R9gOuyE/jjCRbownX5GRstD2Bub77RoiIiEy/FK0RRK4gYwyr132R1eu+mLxfyVcRERGReJLV6VSObDaa8ifaIAORgSyLy5cv4/f7KSsro7e3FwCPx0N2dh45OXMwlgdjuTHGjcETqXY1bgxuMO6EY67Ia+PGGBcGD8Zc330jREREREREREREZHaacuo81pHL6XRiWRZtbW288sorLFmyhI6ODrxeLy6Xi87OXrq6wgxWu0YrYZNaEUQqZBNfx/elr3OCiIiIiFwFa6p+frVDYOfOnVc7BBEREZExNTU1Xe0QgJkTx7VgyplNBy7cbjfd3d1kZGTQ19dHe3s7RUXL+fznc3jvvbmcPn2GSx39gDs5ARtvMxBtURBtV0AsAZvUtmCmLcAgIiIiIuMV+K93X+0Q+P73v3+1QxAREREZ0x133HG1QwBmThzXirSUlzocDoLBIIFAgIGBAb7whUK+/OVGPJ5LXAzcSOu5efT3WRjLlbDQVkIv2MTer/GE7GACNtITdqSFvkRERERERERERERmrrQ94+90OnE63Xg8Hj53+xuc74YPPljMB5e95K4JkdmdQc+7g8lWEpKtZui+hORsbIEuQyhdoYqIiIiIiIiIiIhcMWlKwkYSpQMDA7jdPl75IIMPepdxvsPH+wEXwW4fZoEXZzhM+EIP2Cl6v8b6vg5pRTCYmO0fRxzPc//K7/CrhD13//QUD9yenrsUERERERERERERmaipJ2GNhTFu3G4vly+fp729jWMvryJsZUO3G6vHi6PXi+nxYvrc4IRg8APCJpTcDzbaiiCWmIXBVgSR9gU2EB5HQKv4y2N/x5aPTfnOREREROQa8vDDD1/tEERERESA0XvVP/fcc1ckhrF6vs6UOK4VU07CGiyMcQFOfL5MMjLnYb+/ACucjenxYPo8WL0eTK8bE3Ri2WE8Jot+dzsD7p7B/rAJrQgi/WJdg9WxODEmyPiSsCIiIiIiqT344INXOwQRERG5zu3cuXPMc9asWTOtMTQ1NY3rvJkSx7XAmvIIxsIYD8GQA2MtxHAD1gdzcL43D+f5uTgv5OK67MEZtHHTj5sB3ATJ6csmpzcXB24s48ZYbjBuDG4s44kmdt0Y48ayXNHk7GQ9z/0rv8b993+NlSvv578d+BorV64c3O5/PnLaGwf4Wnz//TyfcO2BN5LHir9OuOZrBw6MeGzYeAfuj8//tcHBRURERERERERE5Boz9SQsDjAuTDSBinHjuJSFq9ONa8DGzQAu+vHYA7jsfpzRJKyTIJkDDuZ3unGHXJhowjWSjI2OF90wHqxxF+2+zA/WD018RvafXv5DTp16gK9u+TtOnTrFqVM/5W7u5qcP3A48z/3r6yg9dipy7Kfw2JjJ0ee5f/0PWPHTyDU/pC6hH+1o473MD858Kbr/bl7+wRMJcYqIiIiIiIiIiEzOhx+28fIrL3O65RSBQGBa5ggGgwQCgXFtwWBwWmKYbdKwMJeFZTzEFucyxomTIC4GsAgDNhY2Doj+O4xlg4WNMWBsWNQV4pLXosPjxsbCGAe27cByuCG2aJdxjDOekXrCrqL0i8k7n7//O/DTU9wO8MZZTvMyv1q/kh/ETrj7S6NP9cZZTq/6S34YXfjrY1u+y90/eGzw2IjjreIvvx296PYvcTePcfYNuF19bEVEREREREREZJIGBga4dOkSZaVlHK17hkAgwNpPfybt87z77rvctmoVBjCWhWUMJrolMsbw4osvsmTJkrTHMNukJQkbqVwdXGTLQYhP/WEGvmyL2Fsf+WkD8HptGwTtyC8KMMbm1iKLm4rmMWA5AIueni5OvDJAW5sPzFTbEaTw/P18h59y6vbEnXfz01MPcHvyiVOYJN3jiYiIiIiIiIiIpPba66+yYsVKurq7WDh/IYsX35j2OX59xsGZc05WrTYYSErAxpKwQ5OxkoZ2BMZY8VYEkdYBbpyE6bnUR3d7P93tffGtp72fnvZ+nIRxmDAOpwPL68Zk+Ji3ZC5rigv47GeX8dnP3sy6dcv53LogTmcIQ2Thr/R5nvu/Q7QNQdTHlrKCX6VoQfAxlq96mTOx3c//02DLgY8tZcXLP+CJeEvZx5KPpRxPREREREREREQkvcLhMN09PZw9e5b+/n66ursB6I7+TJcPOg15OW4syxq2GWPiP2PbsVNO/un0eJ9wv3aloSesFU++GhNZZMthwixe4WPJrVncdGs2N92azeKibM42tvPOy224ssAzx0XOR/qxMnxYPi9YyaF4vV7WrPkEt6zswVhuzLhDTewJm3rRq+fv/w6/4ld8J7Zo1tcO8Aa388Cxv4QfrB+yYNfH2PLdu/nVd6L7/gnujo90Ow/8dPDYf6A0+VjK8URE5KqrryIvLy+6VVE/fRNRlbeeva3pGiMd403VTIhBZIarq8BU1E1uXyL/HopNMXv86Q9xYuqoSIyjriLyR1XxHq56aCIiIhL33nvv0NfbyzO1dTQ3N9PV1cnvTjZzuuV0WucZCNl09oSwUiRcU21uj4M3LqoydsrlpcZY0QSsExPt3+rA5u1XAri8kV8ExgLLImdJNp0Xw6woaqFvIJPeviyWffJVXnv1D8AxPCPucDjwejIYf674dh44dYoHhu3/GA8k9B24/YFTnBp+EnxsC393akuKYR/gVOIFD4xw7I0DfO0HK/hSrLfrCOM9kNQD4fYhr0VEZFq17mX9JjgUCFASfb23HkpK6qnK283KE8fYtuxqB5lOV/K+rtX3UK5tdVSYXRS2NFCZn47x/OzZ1Uz1gZpJ7Bsiv5IGuzIdQaVRHRVl+yivtakpvdqxiIiISExXdxfGOPD5svij9XfS0Pgb/mDtGt4//z6rV61J61zBkE1nbzBlwhWGtyLo7A1iHOG0xjAbpaUS1hrSjsBhGZZ+5gZWfHEBBV+YT8Htcyn43BxWb5yHleHF37oKX24/zgx4/8JyVnyyGWOlDsXrDuGwZscv6vknfsDLq5aj9bVERGawM6c4vnYly2Ovl21jW8nVDEhErin+oxwsui85oTvefbPGOgoLrnYMIiIiM8fx48cndSxd3nnnbQ4ePMg3v/lN5s+/gXfff4c5ubm0tV3gU6s/TXZ2dlrniyRhw6NWvwLYto1tR87tD9ppjWE2mnoSNtYT1nJHFujCjfF6ePtkD2dPdHLulW7OvdrDudf7ONc8gDPbi+324nAbwpaPGxa00dH1EeyRFt4yhpzMSDHtzPMGB7422PrgO7+6m5/+3RYlYUVEZrKSDWw9voN7kp6nr6cqbxP7Oc6O1XnkVUUaFNRX5Q22LaiqTzh3PXv3DrY0WJ84Vute1sf3Jz+oO9p4VVXrB1sjjDIGAGcSj6eeOzJWqvsaPl/quABa2bt+8FjSoWExpH4Ph8c0/J5Frp46KkwZ+2ikqsBgKp5gT7GhOPbcfV1FwiP3fvYUD/5hUVE39HiE/+hBijYml4iOvi8yblJXgvi4Q9oA+PdQHP/jpoJICInXpjh/xHYH0XPrBscsTux74E/cfzrhmsH3q/jq90kQERG56jo6OnjkkUc4fPjwsGOHDx/mkUceoaOjY9rm/+2JJn5c/WN+9sQTfPNPv8GihYsou7OUr3zlKxQX305WVlZa5/tR/WVe9LfzyvsO/v0vzvHvnjrLX/y8laoDZ6jc76dyv597n2zhz392mnufbOHeJ1t45X0Hr5xt50f1l9May2yTlkpYjBuDK1IRa7nB7SFvsY8blviYc6OHOYs9zPmomzkfdeHM8LDyE68T6FpEdu5lLvcs5M3znyBM6ga9YdsQCls4HDOxd8TH2PJ3pzh1KrY9gBoLiIjMdCVUB05w15HVCYnFEqoDh9jKWh46ESBQHSmNLakOEAgECAQOsXX/7oQ+qMfZcWpD5NihrRzf8ZPB5OLqHRQeilz3OEfYnzjzKOOdXPk4gUA1JWOMAcfZsRseDwQInHgIdtwz2C929RHuOhGd4xDs3rs85X0lzzdSXK3sXb+aI3ediB4LEL88MYb4/ad6D1PF1DosBpGrp5Qau5Zy1lHdYmPXfJvKhlqKqnZTRx0VZVDbUEk+QN1uqopq4xUdqR/Fr2N3VRHJ+dax9uVTeV85+54eTJbWPb2P8vui8yZcU1FwkM0tkfntWti1x0/pxoRr656meR0cPBpNGx89yOglq41U7YIDto3dUg1VW6IJ3DoqCqooqo3MdYCD7EvxfjXMzjJeERGRtMrJyeHRRx/lyJEjSYnYw4cPc+TIER599FFycnLSPm9/fx9/f/jveeyxx2h6qYktW7/Fpk2bycnJxRrhafN06CWT22+9kZI1S1n60XnDtps/MpebPzI3aV/JmqV88bbF4ExvQni2Sc/CXAmtCAxuehweQrYhHDaEwxbhsCEYsnjlNy56+h38/uxneOO9T3Ky9XOcffc2bNzYI4QSChv6BiAUUtmyiIikyzK2HYskMU9uGlLhmSi+gNemIYnQtTx0bzQjWbKBrZzE3wq0+jm59iFih5Zt287WcY53153RJqpjjcFaHnp8G8siB9m+9TinzkSvi1Wh5uWRt2k/x0+dGeHGEuYbKa7WZzlyfCvbUzZ3TYgh8f6HGjWmITGIzBil1NRCmSmD2hriudOCQtbtK0uu/iytwW5ISJbWPU1z9XaS863j2Fe6kfJ9TxNJpdbxdHM124cmef2naY5V7BqDKdtH48mWSFzNp/EDdU83s/m+zXDwKH78HD0Imzfkp6ygjVhH9YFo/PmV3FfeyMmW6FzrBmPIr7yP8km9lyIiIteHoYnY6U7Atl9s58BTB3jppZcwxuJbW77FN77+TbKz0tt2IJWwcdHe7aa920NHvzfldqnPQ6DXzcUeF+3dLtp7vFzs8dAdnPLSVLPa1BfmwhGpfsURX5zrctDFxQ6LzIHoolzGIoxFyPISDDmwcWIT/Wk7CdlhevsCtLdfGjZ+b98Aff3gmR1tYUVEZDZZto3HHzrC6qP1CVWeUUkLeLWyd/09U5sr3eNFBsV/EtgQe72VQ9Hq1kEjZZinM65Ek4hJZCaKLpLl31OMMY0pFqaKLLS1+UD+JPaVsr16F1v2+ClgF82bD5C6xrScWrsmOaFLAZvZwlH/Ck42b2Z7zQbYtZsWPxxkM5FpxrPAl5/TzcDGMU4TERGRlGKJ2O9973sA05aAPXv2LM888wxen4/c3Fw+8YmPs+mrd+P1etM+VyrzspzMyXPSP2CYm5OcVow9MRTZLMLhMJd7w2RmuDAGPDiB0BWJcyZKUyWsK9IXNloNi3Hx0utOml518ftTXlpafJxpySCImxBugngI4mEg5KI/ZNEfcvDi8bn8+Ce9/M2Pe3n4/+3lh7sj22uvzZ16iCIiIjH1exPaALTy7JHjrF25fPh5iQt4tT7LkfH001+WT+HxHfwk3g5192Bl6XjHG20MAI5z5NnoDUSrVTeURK9jf8Lj/uM0UlzL7uSutZMYb+i9TCYmkasq2obAroWyxKrRiPzKBlqq19F82p/cE3aKC3Llb9gMB3ez+2AR96V6zD9/BUXsY9ewPqz5bNgMB7fsonnzBvLJZ8PmZp7efRI2bxghmRvTGG9dgP8oBxvLIy0S8ldQ1FjF7ujN+/fsirYjEBERkdHEErHTlYB94YVGfvHLp7Btm+BAPytW5PO1u79+xRKwAHMynSzIc7BgjsXCOY6U24I8i3k54PPCwhvcLMizmJ9nMSf7+q6EnVIS1hhDrs/CWNEEbLQtQWRz0dXv5oMOFxc6XFzs8tDZ56Z7wENv0E1fv0XfgKGvH/r6oH/ATSiUhU0WliMLhzOyRapswdHXTe7c1H1jRURExq0kn1Oxx+PzVrOj8BDHti0DStiwNWFRqZJ7eYgdrM7LI++eUxSuHdfgVB/ayv5NkfHv4a7BVgLjHm+UMQBYS+GpeyLxr95B4aFYlWkJ1Scegh2rhyyyNeS+hk03UlzL2HbsEIUJ443YtiEh9uS5RopJZCYpZWN54sJcZdFWAaVsr26mLJZkrauIL8pVUDU8UTrxBbmGyN/AZvaxr2gjKdvNUkpNSzVUFQyuPBxddCt/w2ZojLYeiL5u3tccfz2ydRSd3BIZq6CKonj7hVJqasvZVxaZZwub1Y5ARERknHJycqYlAft682tkZmWxdOnNXGi7wJIlN3HXxn+Dy+VK+1yjyfQ5yfQZsnwWLkcItzOE2xnG7QzjcYXxum28bhvbMmRnusnyWWT5LLJ9Flme6zsJawKBwKjNVn+ydz/3btvK+fPnUx5/4X+/R92RNnp640Mm/BxcTMsMeT0RliPMJ/4Pw6ovZrJo3hzm5k1/jwsREZmchQsXxv+/Ix3a2tqYN2/emOelc04RuTY9/PDDPPjgg9Mwch0VxafZntgfdtz7rpY6KswuClsahlXlioiIyPTauXMn3//+90c8/txzz7FmzZqkfb95oYE1n1rLr5//XzidDr5w+x9izOQXsW9qauKOO+4Y9ZxUcfzPt2/Al+UhFJ742k09Xf186ab2CccRk5uby4kTJyY8b8zy5cvH/XfjeP8OHY9jx46xfPnyqfeEXVu8iEXLHHQNZmGnTabPS1525rTPIyIiIiIyfqXUNAytXx3vPhEREZGx5S8v4IUXG1m0aBG3rPw4wWCQUCiEbUeSobEnZSzLwrKs+L/TbW74LE0nLhIOT2zxJsuyuGVxNnD9th2dchLWsgw3L14QbbqbjpBGn0tEREREREREROR6Mn/+AubOnUc4HI4nYMPhcFISNpaAdTgc8QRsuhOxty7J5dYluWkd83qRtmYMkYx7ukYTEREREZHpU0qNrapcERGR2SSWZHU6r+/eqrNV+uuSRURERERERERERCRu3KnzFStWTGccIiJyjbh06dLVDkFEZEQ7d+682iGIiIiIjKmpqelqhwDMnDiuBapfFhEREZHrwmirEIuIiIjMFHfcccfVDgGYOXFcK9SOQERERERERERERGQaKQkrIiIiIiIiIiIiMo2m3I6g40IPjX/7L1xqu4xlObCMhW2HCYVDOB2udMSIw+Xg03fls7hwblrGExEREREREREREblSppyE3fXlAzz75s8ZyO7gYx9dyltn3qU32M0n1qzE//IbGDNKsa1xAi4MToxxYYwTjCv53zgxtpsb/+ZGdh37Kp9YfQuWpQJeEREREZmYhx9++GqHICIiIgKM3qv+ueeeuyIxjNXzdabEca2YUhI2FAzz6u9e5vL89/E5fQw4erhkfwAO8Po89LguYYxJcaUVTbS6MSYMxsYYMMZgsMBYGOPAGDuyz8DF/m5O/eYdFi6Zx4IFC6YStoiIiIhcpx588MGrHYKIiIhc53bu3DnmOWvWrJnWGJqamsZ13kyJ41qQtpJSYwxFRUUEg0EGBgawbXuE81wYy4uxfBjjxRgfVvSnMV6M5cWyfNHjg+cYIq0NBgYG0hWyiIiIiIiIiIiIyLSbcjsCgM7OTjweDxcuXKCyspIDBw7w1ltvDTnLEa1+jVTAEq+Ejf7EBYmvjWvYOSIiIiIiIiIiIjKyDz9s48233iIzM4MF8xeSl5eX9jmCwSCdnZ3jOjcrKwunMy0pyFltyu9Av90LgMPhoL29naamJr773e+yb98+ADIzM/F6szDGSfvF7khClRESsSaaiCV1slZERERERERERERSGxgY4NKlS5SVlnG07hkCgQBrP/2ZtM/z7rvvctuqVRjAWBaWMdGWosltSY0xvPjiiyxZsiTtMcw2U07CWtFeri6XC8uyePvtt6mvr6eoqIgLFy6QlZWFx+Ph4sUuAoFwiurWIa8TqmUjCdvIPlQJKyIiIiIiIiIiMqLXXn+VFStW0tXdxcL5C1m8+Ma0z/HrMw7OnHOyarXBQFICNpaETb1G1PVtyj1hnXjxer10dHTQ1dVFV1cX7777Lh/9aA5/9mcf53Of+wNs2+aDCz2D/V0Tfkb6vw72iLWGnhPrEatKWBERERERERERkZTC4TDdPT2cPXuW/v5+urq7AeiO/kyXDzoNeTluLMsathlj4j9j27FTTv7ptCOtMcxGaVmYy+l00t/fz/nz5+nq6uKrX13LX//1ETZu/C98408P4PIG6OlxYCwf1pBFuSKJ18FFueLnDEnWKgkrIiLpUU9VXh558W09e1tHOpbH+sGD4zie+pyq+itzZ8kxJN6XiFxRdRWYirrJ7Uvk30OxKWaPP/0hTkwdFYlx1FVE/qgq3kPK0GZM3ImG3MOsjWG0MSYz/kx4X0REJF3ee+8d+np7eaa2jubmZrq6OvndyWZOt5xO6zwDIZvOnhBWioRrqs3tcfDGRVXGpiUJC+B2e3C7fcyZM4fNf/I6ZzsMtf+ygiMtWSzYECTvlox4UtUy0USslZiITU68JidrlYQVEZF0WstDJwIEAgFOPAQ77tlLa4pjgcAhCnesJi8pi5p4PMCxbctGHT9w4iFObqpi9DzslUyaKkErkizdSSg/e3Y1U729dBL7hsivpMFuoDI/XbGlQx0VZfsor7WxGypJGdq441YCUEREJF26urswxoHPl8Ufrb+ThsbfkOHz0dZ2geXLlqd1rmDIprM3OGbyNbZ19gbpD4bTGsNslJYkrDFOjOWjr68Pl8tF/blcfvHb23jqpU+y/zcr+J+vr6D/5uW4l92I5fANJmJNQisCa2jla2Ky1hfpCzuGuorUv+ziGfXJ7kp/2NSHWxGR0Szbtp2tx4/wbMqkZAnVJx5i7f6jYyRRR5sgn0JO4lfSU+T64D/KwaL7khOQ4903a6yjsOBqxyAiIjJzHD9+fFLH0uWdd97m4MGDfPOb32T+/Bt49/13mJObS1vbBT61+tNkZ2endb5IEjY8auIVwLZtbDtybn/QTmsMs9HUk7DGgTE+fN5cLl8OcPLkSf7rMS//44Wb+f1vFxP+/c24WpbgOr0E7+VCMl2fwWluSE7ERqtdh/aHHTzHG1mgawylNXb0F1xLOeuobom8bhj3p9vxJiynK7HpZ0+xoaIuklCeWcljEZHr1LI7uWvtfo5ONgtbf5T9W7cTL5ht3cv6eKuCKuqppypvE/s5zo7VedGq20i1alXV+ug5UF+V0OIgqTK3lb3rR2h9cGZwrkjbhFRzpYqJYTGIXJvqqDBl7KORqgKDqXiCPcUJn8HqKhIeuY98Tov9YVFRN/R4hP/oQYo2Jle3jr5v8PPfYFixcYd85vTvoTj+x00FkRASr01x/ojtDqLn1g2OmfTZ05+4/3TCNYPv18ifVRPjiP57T8WQAomh733diPcYG6Oioji6b6QxY29fwh+Bo7V7mKhRYkt8HyvqwL+neOSCkJax3/PB8RnhdzGxY+MeT0REJqyjo4NHHnmEw4cPDzt2+PBhHnnkETo6OqZt/t+eaOLH1T/mZ088wTf/9BssWriIsjtL+cpXvkJx8e1kZWWldb4f1V/mRX87r7zv4N//4hz/7qmz/MXPW6k6cIbK/X4q9/u598kW/vxnp7n3yRbufbKFV9538MrZdn5Ufzmtscw2U07CGhzRhKmbrKw8Ft9YSLj1Zpy//xiu00txttyMy78Ed+uNuN5chPfD+cy5vIqMgY8m9H9N1R82lpCNHbse2hHkU9lgU1MaSSiPP3ksIiKT1bp3N/vX3sWdqboKpBRNYI7a7zXhnE1wqLokur+eqtVHuCvWquAQ7N67nOrAIbbGWhjEzz3OyZWPEwhUUwKUVA+2SNi6f3e0nUAre9ev5shdJ+LtEeKXc5wdu+HxQIDAoa0c3/ET6ilJMVeqmFqHxSBybSqlJvHL+5pvU9lQS1HV7kiirwxqY4/c1+2mqqg2XtFRk7KLQB27q4pIzreOtS+fyvvK2ff0YLKw7ul9lN839FH/OioKDrI5WmRg18KuPX5KNyZcW/c0zevg4NFo2vjoQUYvWW2kahccsG3slmqo2jKYOC2ooqg2MtcBDrIvxfs1/s+qjVSd3BiNu5zGqt3UDXvvS0e8x9gYzYUHsO0aSkccMyKpMGPfrjQVToweW/x9rC1nX5lhCwdSxjb6e55q/JF+F4zj2ETHExGRycjJyeHRRx/lyJEjSYnYw4cPc+TIER599FFycnLSPm9/fx9/f/jveeyxx2h6qYktW7/Fpk2bycnJxbLS1n10mF4yuf3WGylZs5SlH503bLv5I3O5+SNzk/aVrFnKF29bDM70JoRnmzRUwloYy0f/gBPLsRTDR3CcW4TrzE2RxOtb8/G0Z+Dut/FZl8nwnsfnbWN+2MXCAR8+VxiPJ4TbMxDZ3H14XH24XT34POfj/WExY1fCjiT1t+FDqxlSfxs//NpU5w2tjB3+7f/gN/dJkVFhJj7GEwnfrCfd00jfdouIyBCDSdLVOwo5dGwbo+dg17Jy+eC/E3vCDiY9k88f7Am7kt2xHqytfk4mJWj3c/zUmRHnvCsxM1xfFU38bmJ/bF/rsxw5vpXtI/WlfTx6XyUb2DpSS4RRYxoSg8h1oZSaWigzZVAbS/gBBYWs21eWXLlYWpPcF7XuaZqrt5Ocbx3HvtKNlO97Ol5Z+XRzNcNaxfpP0xz7/GkMpmwfjSdbInE1n8YP1D3dzOb7NsPBo/jxc/QgbN6QP8pnxHVUH4jGn1/JfeWNnGyJzrVuMIb8yvsoH+ntGtfnz3WDvW9LN1JOM6dTJUZHusfoGJs3JCZ9RxkztnCYKRs7wZgq/pT7Ro8t/j6WbqQ8MdZh9zvKe55q/NF+F2Mdm+h4IiIyaUMTsdOdgG2/2M6Bpw7w0ksvYYzFt7Z8i298/ZtkZ6W37UAqYeOivdtNe7eHjn5vyu1Sn4dAr5uLPS7au12093i52OOhO+ic9vhmsinfvcEZr4Q1xoUxbpwX5uAJ+bAI46A3+jO2Ga8QAAAgAElEQVTMorUnWFP8cVwuFy6nE6dzLk6XExsYCA4wMDBA/0CQgf5+urs7eO213/HOe3kMBJdjma5Jx1haY2PXQCSZuYs920upbIlWMzQkfMK1a8HsorBlcCGB4dc2UDPsvLHSnY00F7Zg2/lAHU8DkSRwGdTa2KUTHQO+XRmL6Wk2DqkcaMgH6ioo3uOntHLcb5OIyHVkLQ+dOEbK3OVQrc9y5Hgh2yebi1x2J3et3cGpM8BygK0cila3Dhqj10HrXtZvgkOBACW0snf9PZMMZiSTiEnkepNfSYNdGX3MvJHy2qHVsJGFtjYfyJ/EvlK2V+9iyx4/BeyiefOB1AteUU6tXZOc0KWAzWzhqH8FJ5s3s71mA+zaTYsfDrKZyDSR2Efn53QzsHGM04bKH8/YE5HqHidQWuDfQ+Qjtk0pfvYUbxn9/FTxj3hPU4xteLBD3vMU4/un0i4g3eOJiMhoYonY733vewDTloA9e/YszzzzDF6fj9zcXD7xiY+z6at34/V60z5XKvOynMzJc9I/YJibk5xWjD0xFNkswuEwl3vDZGa4MAY8OIHQFYlzJkpLT1hryKJabgbw2L146cVNLx76yFl8js+X3EZh0Qoystz886/rebGpgY7Odgo/UcArr7zEJz95C7d+ciWFhfkEAj2sWrWSjAw/xvKOa2GuEaX6NjxVNcN4r52wod/cw8EtBRzc3DLCo2zjG6OuIqFCY9Rv50VEZHLqqVq9g8JDQxOUE9D6LEeORytpl+VTyP6Ex/3H6cwpjq9dGcnhtj7LkVhv/2i/2gmPl2iyMYlcs6JtCOxaKBte2Zlf2UBL9TqaT/uTe8JOcUGu/A2b4eBudh8s4r5Uj/nnr6CIfQmPwMcPsGEzHNyyi+bNG8gnnw2bm3l690nYvGGEZG5MY7x1Af6jHGwsj7RIyF9BUWMVu+MPW+26Mo+sj3iPE9ByksZ1hRRA9J5mUGzAqO95qvFH+12MdWyi44mIyJTFErHTlYB94YVGfvHLp7Btm+BAPytW5PO1u79+xRKwAHMynSzIc7BgjsXCOY6U24I8i3k54PPCwhvcLMizmJ9nMSf7+q6ETUOTCMewRbVcDOChDzd9eOnHY7pZ9IluPrp4EbZt84//+I/823/7b/n2t7/NZz/7WQ4cOMC8efNwOiO/jEDgEm6Ph/7+fjK8Adyutsn3hE34Nty2W6heF92fX0mDbXOALYOLK4z32ilrBNZNLUlaV0EZtUOSuOXRWKPb+DO8IiISl9jzdTcrT4zUcmCcY6w+wl3xqtsSqk88BDtWD1lkq4QNW4cslpWo5F4eYger8/LIu+cUhWtjB5ax7dghChPGS92jNmmwIXONFJPI9aKUjeWJC3OVRVsFlLK9upmyWJK1bnARqIKq4YnSiS/INUT+Bjazj31FG0n9Ca6UmpZqqCoY1pIqf8NmaCT+hX3+hs0072se9gX+cOsoOhn5LGwKqiiKt18opSba29QYwxY2T9Mj64nvfd2o9zj+IbdTTRUFxmC2nKQobZ/f0xAbMOp7nnL80X4XYxyb8HgiIpIOOTk505KAfb35NTKzsli69GYutF1gyZKbuGvjv8HlurJrKGX6nGT6DFk+C5cjhNsZwu0M43aG8bjCeN02XreNbRmyM91k+SyyfBbZPossz/WdhJ16OwLjiC+cZYwbjAsXIdz04QAs28bz8Tf5zBdXYds2jY2N+Hw+/uEf/oGSkhKWL1+Obdv863/9r+nv78cYw4sv/J5PrVnOyy+/jG2HCYVvAi4AfRMPMMW34ZsTDudXNtBCMVtO+xn2iXeMawcVULgu2s8pH6h7mn3AyMuYrGPzgQbu220o3tMSXdRgImPEKjQSAs5fQRFV7NqznVIt6CUiMooSqgMjZVVLqA4ERvnf79GuHecYy7ZxLLBt+FXVARLXv0qeZxnbjgUYftVI8w2NM/n10LlGimnsexW5Ngy2nwL4NrEH0fMrG4g/lV5agz140uC+aFupioOb2d6QeLCO3ePaFxNZoDX5IfhSapI+743wmPzQ/RNoEVC4vYGhtxWZesj9VsbfiOSYUko8Z+j5ya+T3/uRYx9tjOTXqd7H8cY9hinHNvjvmlTv+Ui/txF/F2Mcm8x4IiIyY3V2XmbNp9Zy/vx5brzxRr5w+x9ijLnicWR6HYRtwFhc7rOje+0hZxkwBjthv22D1+u4UmHOSGlIQTsiFbAM9oR1mTBuBnAAJqOHxUUZ+Hw++vv7+d3vfsef/dmf4fF48Hg8NDQ0UFxcjMMR+UX4T5/lk7fm09l5mQsXAnT2/J8YMwdj2icXXul2qncVUGCqYF055bFvw+sqMGWxh2/KqbXzgXw2lpdRVmCoKq/FrhnhWkqHnFdK5X3lmDITeZynvHxc3yiX1rRwurgAc7CalobKcY9RVxFpjbDPRONfF7m+pqWa4oICTFXstmpTf6gWERERkTQqpaZhaIJvvPtERERExpa/vIAXXmxk0aJF3LLy4wSDQUKhELYdSXTGnnywLAvLsuL/Tre54bM0nbhIOBye0HWWZXHL4mxgbtpjmi3SXglrjAsnYdwGjAlC4Vss//gaenp6GBgYoKysjM7OzsgiXP395OXlkZ+fT2dnJ93d3fz+9+f4o7LP89JLb9PZMYeB/s9NIqpxfBuen6KageHfxqf+Jj3Ft/ZDv1GO/3MC39SPc4xhc8fvaTzfzouIiIiIiIiIyGwyf/4C5s6dRzgcjidgw+FwUhI2loB1OBzxBGy6E7G3Lsnl1iW5aR3zepGWSljLeMHEKmFdOB0WLoeDgbzL+HJd/P7VczidLlwuF06Xi7fOfIjD5cLljLx++40TgKGt/X3yV9xER0cHb77ZRoazlMVz+3gvcGX7W4iIiIiIXNvS8Hi+iIiIXFGxJGtsTSWZXab+WzMOjOWLLpwVrYbNtDAOF/bc88xZlElOTqQdQUZGRnxLfB379+XLl6mr/WeMCXGxbR7G8XGMZZifB5ffnfrNioiIiIiIiIiIiFxpU29HgCNeARtbmAuPC9wQ9HTR0REpk87IyKC3tze++Xw+ent76enpiR+LJGK7+OBCJwPBuwgbB3bYEAoZnK7097EQERERkevLzp07r3YIIiIiImNqamq62iEAMyeOa0F6KmGNNykR2+l0kZXRST+X+fDDXjo7O/F6vcM2j8czbF9ffy/vvptHX/AjhGxDKAihMJiBiTX8FRERERFJ9P3vf/9qhyAiIiIypjvuuONqhwDMnDiuFemphLW8gwtz4eLDAQ/Z+PBwG3Z/mIEBJ8FuJ13GCZYTcER+GmekchYDGGwsgqFVdHZ9ilDYIhiyCQYhHIYM5WBFRERERERERERkFpqGhbkiLQnOXXIzJ+PTzMn24HI6sXESxo1tuyI/gy5CYQfBsCEUtgmHDMEwhEIQHIBwdHU3ERERERERERERkdlsSklYy2ExJ9vDB5YPgyspEWuMi0u9bjr6XLicTtwuDy6XC4cjkqS1wzZh2xAMEal2DcJoxa7O7kvkftQ7lXBFRERERERERERErrgpJWGNge/88NP8w49epbszPLiTxA3AYJJeT4zDafPJP87khpvn4HK5phKyiIiIiFynHn744asdgoiIiAgweq/655577orEMFbP15kSx7Viyu0Iir96Kwtvy+Dy5cvpiGdU2dnZzJ07d9rnEREREZFr04MPPni1QxAREZHr3M6dO8c8Z82aNdMaQ1NT07jOmylxXAumnIS1LIsVK1Zg2zb2NPdxtSxrWscXERERERERERERSbc0LMwVYYzBmMm1GxAREREREREREZGp+/DDNt586y0yMzNYMH8heXl5aZ8jGAzS2dk5rnOzsrJwOtOWgpx1fvf0Ec52XE5fElZERERERERERESunoGBAS5dukRZaRlH654hEAiw9tOfSfs87777LretWhVZAcqysKLFmUMLNI0xvPjiiyxZsiTtMcw2er5fRERERERERETkGvDa668yf8ECurq7WDh/4bQkYH99xsE/tTjjSdfEBGx8n2VhWZaemk+gJKyIiIiIiIiIiMgsFw6H6e7p4ezZs/T399PV3Q1Ad/RnunzQacjLcccTrYlbLAGbmJA9dsrJP512pDWG2UhJWBERuf7UV5GXlxfdqqifvomoylvP3tbpGKOeqvg9RLaq2I207mV9/JrRYkg4lnTN1TRKvDMmRpEx1FVgKuomsK+OClPMHn+Ksfx7KI4fG+U8ERERue6999479PX28kxtHc3NzXR1dfK7k82cbjmd1nkGQjadPSGsFAnXVJvb4+CNi6qIVRJWRESuL617Wb8JDgUCBAIBAidW4q+H9CRMr7S1PHQidh8PcXJTNKG8bBvHAsfYtmwCQ03mmittNsQos1C6E5t+9uxqpnp76ST2pZBfSYPdQGX+WPMqQSsiInI96+ruwhgHPl8Wf7T+Thoaf0OGz0db2wWWL1ue1rmCIZvO3uCYydfY1tkbpD8YTmsMs9GUF+bquNBD49/+C5faLmNZDixjYdthQuEQTocrHTHicDn49F35LC6cm5bxRETkOnbmFMfXriT+MWTZtmsjqbcsn0KO4G+FkmvhfkRmK/9RDhbdR0P+JPaJiIjIrHT8+HHWrl074WPp8s47b3Osvp6nfv4Uj9fs5bTfz5zcXNraLvCp1Z8mKysrrfNFkrDhlAlXiCzGZds2tm0D0NkbxuOx0xrDbHIhbw6h7JypV8Lu+vIB/sMP/4z/dPB7/Oz5H/JXP/tz/uNPv8Pfvvpj7n/ie/zVz/585O3Jv+Cvnvw+/8+Tf8l/2v9XPHDgr3ng5/+Zv37qb9j1iz3s+uVjPPjLffz1k0/w3c89yutNJwmHlTkXEZEpKNnA1uM7uCep5LWeqrxN7Oc4O1bnkRd9rr++KuFx//iz/tGK2b2DLQ3WJ47Vupf18f3JJWmjjVdVtX6wNcIoY4yo/ij7t26PJpRTVPWeSRwzVbnvkGsSYkhqdTAsvr0J1w2/l1Hfw/pRYkoZ72gxxtpKjDb26O/1lbjPqnpo3bs+xX87EzlX0qeOClPGPhqpKjCYiifYU2wojpWT1lVgivcQeeVnT/HgHxiRLgKJxyP8Rw9StDG5unW8+2jZQ3F0/HgMqSpch5039D6ibQ/8g+cZU0Fd9B5S35+IiIhMRkdHB4888giHDx8eduzw4cM88sgjdHR0TNv8vz3RxI+rf8zPnniCb/7pN1i0cBFld5byla98heLi29OegP1R/WVe9LfzyvsO/v0vzvHvnjrLX/y8laoDZ6jc76dyv597n2zhz392mnufbOHeJ1t45X0Hr5xt50f1l9May2wzpSRsKBjm1d+9zGXv+xinzYCjh0v2B/Q5OvH6PPS4LtHjCqTYOuh199Dn7qPf00efdyC6hej3hOjzhOjz2PR7bPq9hv4MuJjVzanfvENbW1u67l1ERK5LJVQHTnDXkdUJSbcSqgOH2Bp7vL+6JHJmdfRR/8Ahtu7fnZDUPM6OUxsixw5t5fiOnwwmAFfvoPBQ5LrHOcL+xJlHGe/kyscJBKopGWOMZNGkcV4eeZvgUDTulOfthsejbQvYcc8YbReSY4i0OkhIQI4aX+K9jPEejhhTwrGk93dojEe4K9aO4RDsjg8w+tgjvdfTfp+HtrJ/Ux738HiK/3Ymeq6kRyk1di3lrKO6xcau+TaVDbUUVe2mjjoqyqC2oZJ8gLrdVBXVxqs6alJ2Eahjd1URybnV8e5rpGoXHLBt7JZqqNoyQmuBVOcNvY9SoI6KgoNsbonEa9fCrj2MfH8iIiIyKTk5OTz66KMcOXIkKRF7+PBhjhw5wqOPPkpOTk7a5+3v7+PvD/89jz32GE0vNbFl67fYtGkzOTm5WNb0dR/tJZPbb72RkjVLWfrRecO2mz8yl5s/MjdpX8mapXzxtsXgTG9CeLZJ22/FGENRURHBYJCBgYF4yfHw81wYy4uxfBjjxRgfVvSnMV6M5cWyfNHjg+cYIq0NBgYG0hWyiIhct5ax7Vgs6Tak+jFRfAGvTUMScGt56N5owrNkA1s5ib8VaPVzcu1DxA4t27adreMc7647oz0ExhpjaBzxnrAr2T1iT9u1PPT4NpZFBmT71uOcOjPioJEY2MqGWE438Zox40u4lzHueeSYEo4lvr/DYkxMQu/neHyA0cdOeq+v5H2WbGBr4nXD7m0i58r0KaWmFspMGdTWEM+TFhSybl9ZQoUqUFqDnZjErHua5urtJOdbx7mPdVQfiI6VX8l95Y2cbEkV3zjP85+mOVYZawymbB+NJ1tGvj8RERGZtKGJ2OlOwLZfbOfAUwd46aWXMMbiW1u+xTe+/k2ys7LTPtdQYeOivdtNe7eHjn5vyu1Sn4dAr5uLPS7au12093i52OOhOzjlrqizWlqSsJ2dnYRCIS5cuEBlZSVz5szhrbfeGnKWI5pQ9WLFE66+eEJ2MBHrG0zMWgnnGHc6QhURERm0bBuPP7SW/UdTZGGTFvA6wUNTbeOU7vGGWnYnd60dI7kaCQT/yTTPPeJU473nyca0dXCBtcBgBXN6xp6A6f7dysyQX0mDbXOALYPtCJJEFtravCF/EvuGj3W6eTxBjXVeObXRyl3bjlXIioiIyHRITMROZwL27Nmz/PIXvwTbIjc3ly984fN8/U++gc+Xkfa5UpmX5WRBnpMFuU4W5iVvC3Id8S32OsNrWJjnZn6uk7lZSsJOSb/dC4DD4aC9vZ2mpia++93v0tnZCUBmZiZz5y5k3rxF0YSqLzkRm5CQtZIqZIeek55FvkRE5DpXvzehWrSVZ48cZ+3KFKuFJi7g1fosR46PY+xl+RQe38FPojnd1r27B6sixzveaGOMpvVZjhxfS6pbgeMcebY14byE6s+RYmA/8dx06152749eM5H4Rr3nCcY0Qoy7U5b+jnPsK3KfMvtEH9O3a6GsgqG51vzKBlqq19F82p/cUzW60FZlisW3xtwHQCMHj/oHz2ksZ2jL2Amdl7+CIvaxa1hPg9HvT0RERCYvloidrgTsCy808otfPoVt2wQH+lmxIp+v3f11vF5v2ucayZxMJwvyHCyYY7FwjiPltiDPYl4O+Lyw8AY3C/Is5udZzMm+PpOwX/ziFykvL596EtYykVYELpcLy7J4++23qa+vp6ioiGXLlrFs2TKWLr2J3NycaLXrYHWrZQ1JxCa0JIifE92HKmFFRCQdSvI5FXuEPW81OwoPcWzbMqCEDVsTFuYquZeH2MHqvDzy7jlF4biqG0uojvbyzMvL4x7uGnyEfdzjjTLGMAmP468+wl0njkUX5hpqLYWn7omet4PCQ5E+pqPeR7RVw+DYsWsmEN+o9zzRmFLHyI7VKRbEGu/YV+I+ZeYrZWN54sJcZdFWAaVsr26mLJZkrauIL8pVUFXEfUOyqFNakAuAdRSdjFTZmoIqikZsFTDSeYn3UQeUUtNSDVUFgysWj3Z/IiIikhY5OTnTkoB9vfk1MrOyWLr0Zi60XWDJkpu4a+O/weW6skWLmT4nmT5Dls/C5QjhdoZwO8O4nWE8rjBet43XbWNbhuxMN1k+iyyfRbbPIstzfSZhY0wgEEjdvDXqJ3v3c++2reTm5g47FgqGKZuzjd/f8D9wOp3cdNNNfPjhh3g8Hr7whU/x+c+78fsXc/z4CU63fEhvjwHjjvSFTfhJ7DWuSMVrinNyP7T47l/cwmf/uJDFixdP2xsiIiJTc+nSpfj/d6RDW1sb8+bNG/O8dM4pE9C6l/WrT7E9MJEkaj1VebtZOWLSeCqmaexJ3afMNA8//DAPPvjgNIxcR0XxabYnLXI13n0iIiJyvdm5cyff//73Rzz+3HPPsWbNmqR9v3mhgTWfWsuvn/9fOJ0OvnD7H2KMmXQMTU1N3HHHHaOekyqO//n2DfiyPITCo6YTU+rp6udLN7VPOI6Y3NxcTpw4MeF5Y5YvXz7uvxvH+3foeBw7dozly5eTlhS00+mkv7+f8+fP09fXxze+8Xnuvfe/kZFxgffO38LLr91ET48Dy/IMJllJlYgd3AdDE7ET/+WKiIjI9Kr/yQ6Or32IlF0QriHXy33KZJVS0zC0bnW8+0RERETGlr+8gBdebGTRokXcsvLjBINBQqEQth3Jl8WefLEsC8uy4v9Ot7nhszSduEg4HJ7QdZZlccvibGBu2mOaLdJWB+x2e3C7fWRkZLD5T17nbIfhjTdWcO7DLBZsCJLXkcPlloQkayy5Gk+2Dq+AJaE61phgukIVERGRSWtl7/rV7Ij3Pd3KocA20l7QetVdL/cpIiIiIrPB/PkLmDt3HuFwOJ6ADYfDSUnYWALW4XDEE7DpTsTeuiSXW5cMf1pexpaWJKwxTjBu+vr68PmyqT+Xy7nO2zj3YTZnznvov5SNuTkTdyhM6M3LYI+QdB1SHZt4DqZ3HJHUUWHK2Fdem3L1V/+eYgqqoLqlIcViCCIiIjK2ZWw7FmDblMYooTowXQ/1p2vsdNyniIiIiEj6xJKsTuf13Vt1tpp6Otw4MMaHz5vL5csBTp48yX895uV/vHAzv//tYsK/vxlXyxJcp5fgvVxIpuszOM0NGOOLLtQVW5QrulBXbFGu6LH4Yl6Md2Gudaxr3sWwhWCpY3dV45RvF/zsKTZU1EFdhaF4+EQiIiIiIiIiIiIicVNOnRsc0YSpm6ysPHJybyLcejPO4A2YzgysrkysLh9Wlw/T78Zhh8gwc+jxvUOvtzNlBSxJvWBj/WEHxh1TUREcPOqnMrHcte5p9pWXU76veYp3nE9lQ7Q/bak9wqq1IiIiIjIT7dy582qHICIiIjKmpqamqx0CMHPiuBZMvX7ZWBjLR/+AE8uxFIML15sfIf+jyzEODybDQeZ8C5fLYGFjYWMIY7GSnlA3bVYXtnGCcUYTrs5oewMnBid9/Q7ee49xtiOIKNx+HxTspq6yJpok9bNnVzPVB+7jZGIS1r+H4oIqIvWx5dTaNZRSR4XZRWF1EVVV+wBYV91CQ2U+xI7F2xkkvvazp7iAWLFtea1Nio4IIiIiInKVjLYKsYiIiMhMcccdd1ztEICZE8e1Ig2VsM54JWyskjW7ez4/+JvV8XP++39vJiNjAW1t7/HOO35uvrmQt9/2U/qv/hWf/GTWqOO3tvaz8/4AlumaQFSlbCwv4+m6GkpLAf9RDrKZA/lwMn5OHRUFB9ncYtOQD9RVULzHT2klQCNVJ+/DtmugrgJTlpjQHUHdbqqKarG14q2IiIiIiIiIiIgkSEtPWCuhh6sxXpzhfgJt/Vxq6+NSWx/YIT74oBWX02bJTTfT093O/HnzCfX30dHWy+W2Xi6193Px4gAXLwajW4iLF0N0dIKxvGBcEwqrdHs1zbv24AfqdldRdF8lSWtx+U/TTCNVBQZjDKZsH40nW6IH11G9PZpMLd1IOc2cHqv1a0Eh6/aVqUesiIiIiIiIiIiIJEnDcmqDPWFjvVyDXT3833/8aywTxoHN+v/LRU/POXp6kq/87SsnOXnKx40Da/jfvzxHR0YOb2UsIGw8ST1hI8ldF9A3/rDyN7CZLRytg4PN1RyoSXVSrAVBorqJvgHR+SppsCvx7ynGmEa1IxAREREREREREREgHe0IjCOeJI0lYl2EcNOHA7Bsm6ysOSxgQcrrPR4P1kUPVm42N7icZDp6OGey6MUbGRN3tArWzYSSsORTeV8RpqyKddUtyVWwAPkrKKKKXXu2U1o57OgICihc18jJFiCfyGJfQHXisJUNtFDMltN+KB3vuCIiIiIy3R5++OGrHYKIiIgIMHqv+ueee+6KxDBWz9eZEse1Ij2VsJYXw2BPWJcJ42YgkoQ1cO6NVl7/l1eSrrrtttv4kz/5EwAajryHlZ0NDicep5sVjn7e7ssgMDCY3DXGMfHQSrdTvQ5WpEyyllLTUk1xQQGmKrqrvBY7ZcVsTD6V95Vjygz7AMrLKY8dqqvAlO2LDUStrQSsiIiIyEzz4IMPXu0QRERE5Dq3c+fOMc9Zs2bNtMbQ1NQ0rvNmShzXgrRXwhrjwkkYtwGLMJZlccuKj7Nk2eKk67Kysvjggw9YsGABuNzgywSHG9vhAsvFjT5DRr/NB5e9hMcdTSk1dmIPgHwqG2pGPh5tITBU8hhDrimtiSzYFT85NtaQ/SIiIiIiIiIiIiKkqRLWMl5I6OHqdFi4HA5weTBOJydP/Y4Tr7407MqlS5dSWVmJ7XRje7OxjRMsN7blImxc5LicuNx9vBeY2KJcIiIiIiIiIiIi16MPP2zjzbfeIjMzgwXzF5KXl5f2OYLBIJ2dneM6NysrC6czDSnIWW7q74BxYKzYwlnRathMC+NwYZxOjNPFypUfYdHi+cMvNQYA2+Em5HJg48I2kS1sW4SxME7D/Dy4/O6UIxUREREREREREblmDQwMcOnSJcpKyzha9wyBQIC1n/5M2ud59913uW3VKgxgLAvLGEx0S2SM4cUXX2TJkiVpj2G2mXo7AhzxCtjYwlx4XBi3E+NwgcPJBxfep/XcqWHXWpZFSUkJYeNiwPiiSViLUNgQti1CgB02hEIGp8uaaqgiIiIiIiIiIiLXrNdef5UVK1bS1d3FwvkLWbz4xrTP8eszDs6cc7JqtcFAUgI2loQdmoyVdFXCGm9SIrbT6SLP58J2OMFy4XS68Xg8SZcVFBTEVz8L42LA9hC2DSEbwmFDKGwI2YZQEEJhMAPj7wwrIiIiIiIiIiJyPQmHw3T39HD27Fnmz59PV3c3AN3d3WRkZKRtng86DXk5bizLiiRhLWvUBOyxU05u7nXwpRWhtMUwG025vNTgwFje6ObDGC8fDmTQYXyEXJmEXBk4rFzm3nBjdLuJuTfchNM5l/PnDefPW1zqdNIXtOgdsOjtd9DTZ9HTZ9HdA1090N0DtnKwIiKSLvVV5OXlRbcq6qdvIqry1rO3dTrGqKdqUrGnIyaor+VkAN8AACAASURBVMpLeA8Ht/WTGjg9MYnMGHUVmIq6ye2b/KRUmGL2+Md5un8PxRM5f7LziIiIyBXz3nvv0NfbyzO1dTQ3N9PV1cnvTjZzuuV0WucZCNl09oSwjElKwI60uT0O3rioythpWJgr0pLg7CU3czJczMn28P/9r1xsVhLGjY0r8tN28Y//6CAYNoTCNuGQIRiGUAiCAxC27amHJiIiMlTrXtZvgkOBACXR13vroaSknqq83aw8cYxty652kDNfSXWAQDVEEqh632Q2q6PC7KKwpYHK/HSM52fPrmaqD9RMYt8VlF9Jg115deYWERGRtOvq7sIYBz5fFn+0/k4aGn/DH6xdw/vn32f1qjVpnSsYsunsDaZMuMLwStjO3iDGoerKKVXCWg6LOdme/5+9u4+K8zwP/P+9n3mB4XVkCUmxFcVGIDkEe20iq2vYOG5dcIHWP8kxShO7EfvbLZg4FdPmyGeptL+ctnLYmDYZrFUROnWCoiQ9i7aSmhqmhvXppj1gmyjEsQmNxAjFsSXLlowGiddhZp7fH/PCDAwwiEHi5fqc8xwxz8t9X/PAsYeL67lulGZBU4koZQm0JvC/Hhyz8O7VBN69ksBlVxLXhi3cGEtieNzC8JiBkXHFyBgMj8DwMIyOgtsNvij5V+PIIOl3Ji4kXCGEEALOn6Vrxza2BF9nVlFVeDsDEkKsKM4WmnMPRCZ0Y90nhBBCiGWpq6vrpo7Fy8WL79Pc3MwzzzxDRsYdXLp8kTXp6Vy9eoXP5j1EampqXOfzJ2F9s1a/Aui6jq77z3V7pNhyQUlYpeCPv/UQn/NdJ+/6FfIGL/Lg4Ls84HLyH679iv8w8A73f9zNpz/8KVnvd/CpCz9hk7OdTX2tfPK8g0/1t7Ll3Va2XXTw6Q9b+cwM2/0ft/AHTw5xx91JmEymeL13IYQQq1FhKeVdNTwb8ex7OzZrGU10UZNnxWrzP+Qf8ci9rT3s3CIaGmzRH8Hvb6AotD/yed3ZxrPZiiZbI8wyRnQ3H1P4Mf/8/TQUhV3fbsNa1EDMnQIixrNia4/xmBC3hYNKVcJROrFlK1Tly9QXKAqCz9o7KlEF9fhfOakvmPzFotIx9bifs6WZ3J3FEbPMvS/wiL+jnoKw8Z31BaH5CsKe/3dUhv2SE7WdgYPK8GPOyXGVqsQRPqcz7Ov6yqjzhV9fUD/lccZpYztnuYdCCCHEynP9+nUOHTrEyZMnpx07efIkhw4d4vr164s2/8+6z/Ad+3f47ssv88wfPc3GDRspebyYJ554goKCR0hJSYnrfN9uv8GbzgHeumzg6z/4NX92/AJ/+v1+bMfOU93kpLrJyd7v9fEn3z3H3u/1sfd7fbx12cBbFwb4dvuNuMay3Cy4HUHBU/ez4YEkbtxY/BuZmprK2rVrF30eIYQQK1khdlc3DUV5WGug/IQLe2EhdtcJmPJY/dRH7hv2FgaOdVFzdh8ul92fpCx7ifYqO4W0Y8urIeeEi7ZC6G8oIg+oZe7xerd143Jl+o/NMsbMbiamdmx5p9jV7aItE2i3UdQAbW0nOGt9ifaqUlrK4ISritg6DUTORX8DRXlFNHS3UZU527GYBhdiERTTqLdCRDuCO+lVdTiqd3K6BFr1arIAHHXYclvRO8KSqdPynw7qbLns1G9mXye2g7vp03WyHJWoEkWPvQ9dz/InMkvqcFQ3UgwUN+rojf5xKtVB6vcVh1XUOqkvKIFWHb04cE52M7v7dDqyAEclBfVOiqd1IujE1nsAXW+cMp+Dymwbua06HcX+xHA2YGemsaGjozX6PRRCCCFWoLS0NA4fPsxzzz0HwJNPPgn4E7CnTp3i8OHDpKWlxX1et3ucf3rlFVpbWzjvPM+e8q9QVrab1JT4Vr1ONUYyj9yfitvjIc1innZcD7QX1cPajGastaJpBj6+NryosS11C07CaprG1q1bQyXGi0nTFryOmBBCCAFkUtXmoqq/gaI8K7YTLuzRWhK027CWNQVe7AhLhO6gdm/ggsJSyqnD2Q+FOOndUcuRwKHMqn2U19TFNN6uxwOZyP45xpjRTcTU76SXLpryrNQEhykvBQqxn2jBai2j/ESgd24s+p30Us6+4AWZVewrr6HlPMAsxyQJK5aUYhpbT6NUCRWtOqGUa3YO+UdLKMjpoyOY8SxuDCQ6Axyn6bHvI6LLa6z7yMd+LJCsLN5JBT3klAbn2UkFBznnhOJAslOVHJ28LmyU5j3ZsLuPUK7YeY4eOjmarbAFT6rYGeV952PfVzx9Ps7Rk2/nWOBQVvUBKmwH5xh7hnsohBBCrFBTE7HAoiZgB64N8A8n/zfnnf0opfGVPV/hS3/4JSyWpLjPNZVPmRgYMeP2GMCQMO14MD/o8/kCX8OQ24hB0xjxjAPeRY9xqYpbVlMFVkRbzE0IIYSIq8wqjtTuoKklynPxYQt4uVzd1O5Y4FzxHi9uygMxBbao2WghhH8hK51j7JlsRxDBv9DW7tKsm9g3D856/IWuOrrehz0//GAnkE9nb9+UiyoC5we2xnimRRdzbCGEEGL5CCZiT506tagJ2AsXLvDDH/wQdI309HQ+//nP8eUvPX1LErAA61KMrLcaWZ9uZIM1clufbghtwddJiYoNVjMZ6UbWpiy4FnRZk8ymEEKI1aW9gcl2qf28eqqLHdu2TD8vfAGv/lc5FUs//cwscrpqeCmQ0+1vqCNY9xrzeLONcTNmGy8zixyaqGuY2vG1HVsZnHCdgLJAn9pY56KJUE67v4G6pnJKC+c4JsSS4qCyBFr1ViipnNZxIKu6gz57Pj3nnJH9Tm/Vglx9vXTm55AdHKsz/GA+u4910ErJZE/WrK3kcpSD9TfZlTVrK7mdNupC7WUPcjT8WNSxZ7+HQgghxEoVTMQuVgL2jTc6+cEPj6PrOp4JN1u3ZvGHX/wyiYm3biH7NclG1lsNrF+jsWGNIeq23qqxLg0sibDhDjPrrRoZVo01qZKEFUIIIVaPwizO5gUXh8qjJucEbVWZQCGl5WELcxXupZYa8qxWrM+eJSemytVC7CfKaSrzj/8suygPHYp1vFnGuLk3PMt4hdi7a6EmL2zBsOM0FJXRW7uXQgrZW9tLWcwLc/nH6w3MZc07xa5ue6CdwWzHhLiditlZEb4wVwk99n0UU8w+ew8lwSSrY3LRqmxbLgemZFFvbkGumwl3H3ZsZCuF2tNLbn6UUxr72N2cHUgQF9PYZwdb9hyLec04IY2tFRwt8V+7h91UhB+bNvYs91AIIYRYBdLS0hYlAftOz9skp6Rwzz13c+XqFTZv/iS7dn7hli9gn2wxkmxRpFg0TAYvZqMXs9GH2egjweQj0ayTaNbRNUVqspkUi0aKRSPVopGSsLqTsMrlcs3ayPWlhib2VpWTnp5+q2ISQgixjA0ODob+3xEPV69eZd26dXOeF885hRAr04svvsgLL7ywCCM7qCw4x76O8AWoYt0nhBBCiNVm//79PP/88zMef+2119i+fXvEvtff6GD7Z3fwk3/9vxiNBj7/yG+jlLrpGM6cOcNjjz026znR4viX9+/AkpKA1zf/daFGh9387icH5h1HUHp6Ot3d3fOeN2jLli0x/94Y6++hsWhra2PLli0LX5hLCCGEEEKI1a2Yxo6p1a2x7hNCCCGEmFvWlmzeeLOTjRs3cu+2T+PxePB6vei6PxkafColuK5S8Ot4W+u7wJnua/h8vnldp2ka996VCqyNe0zLhSRhhRBCCCGEEEIIIYRYwjIy1rN27Tp8Pl8oAevz+SKSsMEErMFgCCVg452IvX9zOvdvlqflb8aCk7DXr4zS+aN/Z/DqDTTNgKY0dN2H1+fFaIhPXwqDycBDu7K4K2f1ZsuFEEIIIYQQQgghxOoVTLIajVJTuRwt+Lt28A+O8epvvs9E6nU+dec9vHf+EmOeET6zfRvOn7+LUrNk3JURMKEwopQJpYygTJFfY0TpZjb9zSYOtj3FZ/LuXZRyaiGEEEIIIYQQQgghhFgMC0rCej0+fvHLn3Mj4zIWo4UJwyiD+kdggERLAqOmwRmaBGuBRKsZpXygdJQK9K9AA6WhlAGl9EBPC7jmHuHs6xfZsHkd69evX0jYQgghhBBildq/f//tDkEIIYQQYk5nzpy53SEASyeOlSBu9ctKKXJzc/nlL3+JruuhnhTTzzMFql3NKIKJWBME/g0mZwkdnzwXYGJiIl4hCyGEEEKIVWS2VYiFEEIIIZaKxx577HaHACydOFaKuDzXPzQ0hNfr5cqVK1RXV7NmzRree++9KWcZUCoRpRLRlMX/tWZBaf5/NZWIUpbQpqnE0DGlJfoTs0IIIYQQQgghhBBCCLHMLDgJ69bHADAYDAwMDHDmzBm++tWvMjQ0BEBycjJr125g3bqNgYSqJTIRG5aQ1YJJ16nJWmXxV8sKIYQQQgghhBBCCCHEMrPgdgRaoJeryWRC0zTef/992tvbyc3N5cqVK6SkpJCQkMC1a8O4XL7JVgTBtgNMeR3WkkApEwr/PqQSVgghhBBCCCGEEEIIsQwtOAlrJJHExESuX79Oeno6w8PDXLp0ic9//rN88YvrcDrvoqurm4+ujKJUYljv16mJ18kesNHOUSounROEEEIIIcQq9eKLL97uEIQQQgghgNl71b/22mu3JIa5er4ulThWirgszGU0GnG73Xz44YeMj4/z9NOfY+/e/01S0hU++PBefv72JxkdNaBpCZNJ1jkqYGFqIjb6Ql9CCCGEEELE6oUXXrjdIQghhBBildu/f/+c52zfvn1RYzhz5kxM5y2VOFaCuCRhAczmBMxmC0lJSez+0jtcuK54992t/PrjFNaXerBeT+NGX1iSNazdgFLRK2AJq45VyhOvUIUQQgghhBBCCCGEEOKWicsz/koZUZqF8fFxTCYT7b9O5wc/e4DjP72Ppte38i/vbMV99xbMmZvQDBaUsqAFF9wKLsalTVmoK3hO4BixLszlqEQpFdgqccTjDfoHplIVUO9cyHUxjOGsp+Cm5hFCCCGEEEIIIYQQq93HH1/l52/9nHN9Z3G5XIsyh8fjweVyxbR5PFJYCfGohFUGlLKQmJjCwMAFLl16j79rK8Kj3QXXEzEMpWAaSkbdSEYbSQITjE/8Gp/yTKl+jdYfNlgRa0LhmzsWZz0FJdCq6xQHXtc7oLh4we/y1smqpkOvnuUEB5XqIDl9HVRn3bKohBBCCCGEEEIIIcQSNzExweDgICXFJbQ4XsHlcrHjod+K+zyXLl3igQcfRAFK09BCBZEq4jylFG+++SabN2+OewzLzYKTsApDoHLVTEqKlbT0T+Lrvxuj5w7UUBLacDLasAVt2IJymzHoXpLUGkYtFxlLHAr0f51hoa5gmwLMKDUxdzB9vXTm55AdfJ1VLYlKIYQQQgghhBBCCLEqvP3OL9i6dRvDI8NsyNjAXXdtivscPzlv4PyvjTyYp1AQkYANJmGnJmNFPNoRKA2lWXBPGNEM96D4BIZfb8R0/pOY+zdhei+DhIEkzG4dC6MkMkYibtaNrCVjaD1GLGhaWFsClYgWakkQaEugJYIyzx1L8U4qOm3siXiW30l9gaIyvC+BoxJVUI8z2B7AUU9B4Ael0gHO+oLQD07B1L4AfZPnRhxzTu4PjjOniGuCrRPCWxb4Y58c00GlKuEondiyFSo4yWzj1FfO/F6EEEIIIYQQQgghxIrg8/kYGR3lwoULuN1uhkdGABgJ/BsvHw0prGlmNE2btimlQv8Gt7azRv7POUNcY1iOFpyEVRgje7lqFoxX1pBwzUKC24eFMRIYw6KPkaCPkcA4ibgx48bqNrDZZcHiSZhMvAYSspo2tT9sLD1hi2nU+9jdnB2WCM2i+kAFR09PZkUdp49ScaAaf5FsJ7aDcEzX0VsrOFqi2MMx9MDrTltdWF/ZsHP77GDbM9nrNdtGbqvuv67PTk/JXH1dHVRmN7O7L3BNKxyceoGjDltuq/+4rtNYXEyj3koF+dj7dPTG4jnG6cTWu3OG9yKEEKtYuw2r1RrYbLQv3kTYrEU09C/iGP0NFIXeixVrUQP9cZt7sbRjC495ycYpxE1yVE7+sXy++25+0ptcv2Cxx5oHWRtBCCGEWJAPPrjI+NgYr7Q66OnpYXh4iF/29nCu71xc55nw6gyNetGiJFyjbeYEA+9ek8rYOFTCGvyVrGGJWDMTJOhjJDKGGX/iNQG3fz9uzPoEiUxgVhMk+bxscY2TMeqLSLr6K2AtoaRszAtzkUV1RzARGkjEFu+k4ujpUIXo6R47+0J9YvOxHwskZIt3UkE+u0sDPQyKd1JBD+ecUc7NquZARSe9fYDzHD1UsDM4ZvixmTjP0ROsaFUKVXKUzqkXZOeQf7Rk9grWWcfJxx58o9PeixBCrFL9DRSVwYlgo/jubTjbYWknLWfQ30BR3il2dU82vT+Rc5bztzuumOygNhB3dy3UPBtMHgtxq8U74eik/mDP5Gewee1b5bKq6dBl3QMhhBDiZgyPDKOUAYslhd8repyOztdJsli4evUKWzK3xHUuj1dnaMwzZ/I1uA2NeXB7YljraYVb+MJcYT1hg71cLQkePvOUD4UOKPwdIgi8NhDMfYfnwO/UvHi1QcY1I6Dh9fn81ykNr8dI/z/eAYzHHlZWNcfszWSfdtBYXMw++0H21DvJ5iA9u4+x8M92Ts71ADsXMkYFrXojkR+9w6ohAot0+dsjdFLRqtMY9XP6HOMIIYSYdP4sXTu2EfoYkllFVebtDOhm9dPwbA05J1wR8Rfa7bcvpJuUWbWP8po6Xu1frt8LIcI4W2jOPUBH1k3sE0IIIcSy1NXVxY4dO+Z9LF4uXnyftvZ2jn//OEcaGzjndLImPZ2rV6/w2byHSElJiet8/iSsL2rCFfz9YINPdQMMjflISNDjGsNytPB2BMoQqmANthQwKi8TqWO4U8dxp44zHth+8qlmRtPGGU11M5rqZiRsG04eZ8wyjJ4wiJ5wDc0yiLK4UIkDqMRrQAw9YR31YVUMTlqaO8nP8S/TlVW6G5rrqGtmstJ13jppbglM4GyhuTNQ/Zq1lVyOEup44Kzn4NGwythoAtdMa0EQ7dTqDvrs+fREK2OdxzhCCCGAwlLKu2p4NqLktR2btYwmuqjJs2K1+RsUtNvCHpm3tYedW0RDw2RLg6LwscLaAxQ1RP63ebbxbLaiydYIs4wxOc+rnOoqp7Qwxvc9pW1BaHr6aSiauj/avlji/3+xFYWPjb/1Q9F8qlxnvx+RsTPlXjWEVTNPH2fW72f75Di2duhvKIry/Z3PuWJ5mNpv/2XqC8L66IfWEYDpvfqnHvdztjSTO+VD4Nz75rdOgaMy7JedqO0MHFSGH4u6fkDk/oL6+pkrgmdc+yDKPYm6b6aY/e+7srIgENeUquSocUcfXwghhLhdrl+/zqFDhzh58uS0YydPnuTQoUNcv3590eb/WfcZvmP/Dt99+WWe+aOn2bhhIyWPF/PEE09QUPBI3BOw326/wZvOAd66bODrP/g1f3b8An/6/X5sx85T3eSkusnJ3u/18SffPcfe7/Wx93t9vHXZwFsXBvh2+424xrLcLLwdAQb/olphiVij8uIeH+Xalct89Js+vvHVMt578J9p+sK3cD30L7jHR3GPj/Jne36f2j99hrp95QwbP4F7fJTBqx/wN//tv/K1PV/g2T96kv7Xf4x7fAylYmjgW7yV3uBj+SobW24rHcHnmbKqOZB7lKO5BxbwiFM+ub17/ONn28htDVafFtMYaH/gP9bM7r6planTgqWxzw627Jk/RDsmF9XKtuVyoDoLKGZnRfjCXDGMI4QQIkwhdlc3u07lhSX0CrG7TlAefETe7s9sFtqDj/mfoLypLqxVQRc1Z0v9x06U01XzUqCvbDu2PH91qsvl4ginaAqfeZbxercdweWyUzjHGBHCKnonE4HRWipEjunqrqW3LHBe+0vU5JwItTOwF86wL6b4v4t9XzlNLZNZ0vaWJsr3VTFbgWt/Qx1NO3bxeOikme9HROxz3qvwceb4ftbBkcD3s6nMyrMcifL9ne+5Yumb2m//v1Dd0Uqurc6fECyB1o5AK6ppvfqjjeegzpY75Q/xse6LfZ2C4sbAWgB6KxVHD05JnDqpLyiB1rnWD4hc0+AYzRyNeo9mWfsg2j2Z4T7NHHMnPTnH0KM81RU17pi+D0IIIcStk5aWxuHDhzl16lREIvbkyZOcOnWKw4cPk5aWFvd53e5x/uHkP/C3f/u3nPnpGfaUf4Wyst2kpaWjaXFI981gjGQeuX8Thdvv4Z47103b7v7EWu7+xNqIfYXb7+HRB+4CY3wTwstN/CphtclFtQy6j+Ebg5gSEpjwTJCYkMDf/+7f89fnavnnjztxj49xaczKa/8+yj+/fZ2Wn1/j4/Fk3ONjuMfHcF4cwOvT8Xp9jI6MMOGOtQ1BMY26HvpQpkf5VFYR8Wm3mMaIvlOzvfZ/3djYEf1DX1Y1HaG5Zx8jdCzimmC8YecUN04eC/tgGvoQGwxgrnGivjchhFjNMqlqCyb0plRWhgst4FU2Jbm3g9q9wcxkKeX04uwH+p307qgleCizah/lMY63K5iBnGuMcF2T/V8zq9r8ycVo5/U76SWsajazin3lXZw9D2zZxo6mssgKzmj7Yo2/sJTyppZQUrqld/K9TAneX3VstZJXk8OJtvBE7ZT7MVPsc96rsHHmiL/2SGD+wlLKp76f4Pd33ueK5amYxlYoUSXQGpYYjNarv7gRPZikBXCcpse+LzKZGOu++axTEPpDfcm0xGnznmyad/dNfk6daf0A5zl68ifXSciqPkBFtNsx29oH0e7JTGsazBhzfvSn1GaKO5Y1E4QQQohbbGoidrETsAPXBjh2/Bg//elPUUrjK3u+wtNffobUlNS4zzWVT5kYGDEzMJLAdXdi1G1wPAHXmJlroyYGRkwMjCZybTSBEU8cuqIuY3GphNXCFuXyV8PqXL18kY8uvcf1gSuYTCZMRhMv5vxPfqvlCT669B6GtfczqH2C90fX8JvhdD6VlctHl97j4w8/4OP3zjIx+AFH/vovGB4e4crliwsP01nPwYgFuYQQQqx6mVUcqd0RUbkZErGAVze1C23jFO/xMrPIiUfCL7OKNpeLIzw7WRkcbV/M8Reyt7aXuoZ++hvq6N31+AxVsJMLcwUrVRdVvO+/WH0Cf/Q+xp4ZHoP3L7QVmVCMdd88OOvxF7rq6Hof9vzwg51A/vTFXqkInD9zocJNiXZPou2bNebZRIl7zu+DEEIIcXuEJ2IXMwF74cIFfviDH4KukZ6ezuc//zm+/KWnsViS4j5XNOtSjKy3GlmfbmSDNXJbn24IbcHXSYmKDVYzGelG1qZIEnZhlAGlWdC0xEAS1gKWBNxuN6Mjw7jHx1FK4Xa72f3HX2d0ZJjRkWHGf3mcFOM4Fm2EJMMoGUn+8ye8Xs6dO8frr7/O+++9z7WBjxkfHebmK6kDfaOym9l9rDoOC3IJIYRY1tobwh5D7+fVU13s2BZltdDwBbz6X+VUVwxjZ2aR01XDS4Gcbn9D3WTFZazjzTZGhEL21kJNnm3ux98zs8ihiVCuub+BuqbIfrKZVW101+6gNyyrG7FvHvcj8/FdcOolXjpFZCXqzZgt9pjvFTf3/RSrVKANgd4KJZXTljqN6NUf3hM2sNBWdZTFt+bcNx99vXTm55AdHKsz/GA+u4910EpYpehM6wdkbSW300ZdqG3swejtCGJY+yDa+gUR+2aNeQZzrHsw65oJQgghxG0STMQuVgL2jTc6+cEPj6PrOp4JN1u3ZvGHX/wyiYmJcZ9rJmuSjay3Gli/RmPDGkPUbb1VY10aWBJhwx1m1ls1Mqwaa1JXdxJ2we9eYUApU2AzgzKB2cfY6HDgDI1Hn/jytOvGRoc59q3KqGO+fCL4KS+BddkPMj42QrLpZrOwWVR36FTf5NVCCCFWmMIszlqtWIOvy0/gqsoEMiktL6Msz0pN+Qlc9r3U1uWRZ62BHeWUx1Q5WYj9RDnWMitNwI7aWso5FTgU63izjDFFZlUbriz/I/ZBO2q7sU/LexZi766lKC/4vndQ293mrz5tt2EtC6Yuyznhyoy+j3ncj8wq9uVYKeMErgXmYGeNfR73Kvb7L1afYnZWlFCSrbBV/B32nv9Kj72PRrLIth8ku6Cevo5qshyVqJJgmrKCVj2L8Aytf6GtjoiRY903v3D3YT+YTbayQX4FFVGqSosb+zhXkI1qttPXUU1jn52C7GyULRh+K3pjMY2tFagSxVEg326nguZoEwauV/jXO87H3tfhb6UQ9Z5E2cfcMc8875S4d56OMr4QQgixdCxG8hXgnZ63SU5J4Z577ubs2T7+42/toLi4dFH7v0aTbDGSbFGYPRomgxelgMCnBNAB8Pl0hsYVqcnm0HVKgTthdSdhlcvl0mc74aWGJvZWlZOenj7tmNfj4//ZaOeDexIjErHrE018wgIYDKCZ0JUJXTODZgx8HdinzOiY0HUTXoz4dIVXB59P4fUpfDp4veD1KQy/+Q3/ucLFw0/mcNdddy3W/RBCCLFAg4ODof93xMPVq1dZt27dnOfFc06xcO02Ky2lk4t63RL9DRTlnWXfrWhvIJalF198kRdeeGERRnZQWXCOfeH9YWPet0Q46ynI7uXAtAWyhBBCCBFv+/fv5/nnn5/x+Guvvcb27dsj9r3+RgfbP7uDn/zr/8VoNPD5R34bpdQMI8ztzJkzPPbYY7OeEy2Of3n/DiwpCXh9s6YToxoddvO7nxyYdxxB6enpdHd3z3veoC1btsT8e2Osv4fGoq2tjS1btsSpElZLDCVgFSY+nkggLcVIcoI/8YoygWb2J17xbz5M+JQJXTfjZTLx6vWpUOLV49XxeMDngyRfHN61EEIIIRZffwN1vbUcyyXw7wAAIABJREFUsd/aadtfqqFrRy1RmksIsciKaeyYmrqMdd/S4Kiz0Zlv97cMEEIIIcSSk7Ulmzfe7GTjxo3cu+3TeDwevF4vuu5PhvoXwFRomoamaaGv422t7wJnuq/h880vUadpGvfelQqsjXtMy0Uc6oD9C3OhzBEtCS4MmlmTZGJNagImoxEdIz7MgQSs2V/96jXg8Sm8Ph2fV+Hx+StfPRPg0+efURdCCCHE7dRPQ1EeNV3+lgEL7kQQ83zB1+WccFXdgnmFWAmc1BdkYwv1Z62gVV+CFbpCCCGEACAjYz1r167D5/OFErA+ny8iCRtMwBoMhlACNt6J2Ps3p3P/5ulPy4u5LSgJqxk01qQm8JFmQWGKSMQqZWJwzMz1cRMmoxGzKQGTyYTB4E/S6j4dn67wePFXu3pgthy6cWSQ9DtvXaNhIYQQQsxXJlVtLqpW7HxCrCSyboIQQgix3ASTrEbj6u6tulwt6LumFPzxtx7iH7/9C0aGfJM7Cd8AFCri9fwYjDr3PZnMHXevwWQyLSRkIYQQQgghhBBCCCGEuKUWnDoveOp+NjyQxI0bN+IRz6xSU1NZu3b19o4QQgghhBALs3///tsdghBCCCHEnM6cOXO7QwCWThwrwYKTsJqmsXXrVnRdD/WhWCyL0VBYCCGEEEKsDrOtQiyEEEIIsVQ89thjtzsEYOnEsVLErYlEcBU2IYQQQgghhBBCCCGEEJOktFQIIYQQQgghhBBCCCEWkSRhhRBCCCGEEEIIIYQQYhHFrR2BEEIIIYQQM3nttdduyTyz9S578cUXb0kMQgghhBBzma1X/VL43LSU4lgpJAkrhBBCCCFuie3bty/q+LGs3vvCCy8sagxCCCGEEHPZv3//nOcshc9NSymOlUDaEQghhBBCCCGEEEIIIcQiWnAl7PUro3T+6N8ZvHoDTTOgKQ1d9+H1eTEaTPGIEYPJwEO7srgrZ21cxhNCCCGEEEvX2NgY/f39jI2NkZGRwaZNm1BK3e6whBBCCCGWhY8/vspv3nuP5OQk1mdswGq1xn0Oj8fD0NBQTOempKRgNMrD+Au+Awf/4Biv/ub7TKRe51N33sN75y8x5hnhM9u34fz5uyg1S7GtMgImFEaUMqGUEZQp8muMKN3Mpr/ZxMG2p/hM3r1omhTwCiGEEEKsNCMjI/zoRz+ivb2diYmJ0P7169fzxS9+kUcffVSSsUIIIYQQs5iYmGBwcJCS4hJaHK/gcrnY8dBvxX2eS5cu8cCDD6IApWloSqECWzilFG+++SabN2+OewzLzYKSsF6Pj1/88ufcyLiMxWhhwjDKoP4RGCDRksCoaXCGD8paINFqRikfKB2l/N8YhQZKQykDSumBbyBcc49w9vWLbNi8jvXr1y8kbCGEEALabVjrttF9BJ7NO8s+l53C2x2TEKvY1atX+cY3vsHIyAj33Xcfjz32GLm5uVy+fJkf//jHHDp0iHfeeYevfe1r8gd5IYQQQogZvP3OL9i6dRvDI8NsyNjAXXdtivscPzlv4PyvjTyYp1AQkYAN5gHlD+fTxe0TrFKK3NxcPB4PExMT6Lo+w3kmlJaI0iwolYhSFrTAv0olorRENM0SOD55jsLf2iC8KkIIIYS4aYV2XG1VZGZW0SYJWCFuq4mJCf7qr/4Kj8dDbW0tFouF119/nZ/97GdkZ2fz9a9/nX379vGv//qv/K//9b9ud7hCCCGEEEuSz+djZHSUCxcu4Ha7GR4ZAfxPG8XTR0MKa5oZTdOmbUqp0L/Bre2skf9zzhDXGJaTgYEBdF2PTxJ2aGgIr9fLlStXqK6uZs2aNbz33ntTzjIEEqqJaKGEqyWUkJ1MxFomE7Na2DnKHI9QhRBCrHrt2KxFNPTPtC/acRG7WO9fOzarFWtom3JNuy3smI32RYxY3H4tLS1cunSJv/zLv2Tjxo2Mj49z//3309vby/HjxwF4+OGHeeqppzh58iSXL1++zRHPwVGJqnTMY5+DSlVAvfOWBUilqsQx94lxmGq+92LaAHPfG2c9BXG5f8vpvgTE7b0LIYRYCT744CLjY2O80uqgp6eH4eEhftnbw7m+c3GdZ8KrMzTqRYuScI22mRMMvHtt9VbGTkxMcPz48YUnYd36GAAGg4GBgQHOnDnDV7/61VBz3uTkZNau3cC6dRsDCVVLZCI2LCGrRVTITj0nPot8CSGEEEvLak767qC224XL5aK7FmqebaAfoL+BojI44fIfc3VvwylZ2BXL5/PhcDj4nd/5HTZs2ADA+Pg4V65cYd26dYyMjPDNb34Tj8dDWVkZGzZsoL09nj8Q8U6AOqk/2IN9X/FN7LuVcd6KORbrXkyRVU2H3kF11kJinc0Svi+L/t6FEEIsF8MjwyhlwGJJ4feKHqej83WSLBauXr3ClswtcZ3L49UZGvPMmXwNbkNjHtweX1xjWE42bNjA6OjowpOwWqCXq8lkQtM03n//fdrb28nNzSUzM5PMzEzuueeTpKenBapdJ6tbNW1KIjasJUHonMA+pBJWCCGEWLEyq/ZR3nWKV/uB82fp2rGNLZMHqZJ+ESvWxYsXuXLlCqWlpaF9Ho+Ha9euhR7dSk1NpaamhqGhIQoKCjhz5sxtjHgOzhaacw9EJsVi3bfSyL2ITu6LEEKsOF1dXTd1LF4uXnyf5uZmnnnmGTIy7uDS5YusSU/n6tUrfDbvIVJTU+M6nz8J65s18Qqg6zq67j/X7YnetnS1qKysXHgS1kgiiYmJXL9+neHhYYaHh7l06RJ33pnG1772af7Tf/qP6LrOR1dGoyZctbCWBP7q1ynnhJK1UgkrhBDiFjrfQFHgcfii8DLV/sn9k4/J+6tZbbaiwL5+GoomH7W3tc90bTs2axlNdFGTZ8Vqa6e/oSjsMXz/vunVslHaJzRMPr4/U7xFDQ0zVN3OPka7bWo8ocGjv8/Z7l8sCksp76rh2dVZHrzqvPvuu5hMJjZtmlw0Qtd1BgcHcblcDAwM4HK5SE9Pp6amhqSkJC5evBin2R1UqhKO0oktW6EqX6a+QFEQLHl0VKIK6vG/clJfMPmLhb+LQPhxP2dLM7k7IysXY90Xiqoy7JeYULuC8DgDj6c76ykI/bJTiSMQY/T4l9G9CHtfBfXBxyf9c0Y8mR+aM7xSNfC1I3wMZ8QYEXEvi/sS63snys+E/+dp8too5894I+J9L4UQYmW6fv06hw4d4uTJk9OOnTx5kkOHDnH9+vVFm/9n3Wf4jv07fPfll3nmj55m44aNlDxezBNPPEFBwSOkpKTEdb5vt9/gTecAb1028PUf/Jo/O36BP/1+P7Zj56luclLd5GTv9/r4k++eY+/3+tj7vT7eumzgrQsDfLv9RlxjWW6McRnEaMTtdvPhhx8yPj7O009/jr17/zdJSVf44MN7+fnbn2R01ICmJfiTqcqMwoRSZv9CXcoMyhT62p9wNUe8Vmp1Z8yFEELcSl3U1O2i2+Uis7+BorxnaXi8jarMdmx5p9jV7aItE2i3UdTQT2GV/5rebd24XJnQbqMs5wSutvDyzWjXbqHNdQKsdWzrbqMqE6AQV1XgfGsLpfZCmLMjahc1Z/fhctn9vVTLXqK9yk4h7djyasg54aKtEPobisgDauc1BhTaXbjswZjqaNhbSFVmPw1FeZza1Y2rLXPm+zdlrJn0N9TRtGMX3YF7YHd101CUh7UGyk+4sEsl7IrldrtJSEhA0yZrAyYmJhgaGmJ8fJyRkRFGRkYYHh7GbDbHMQELUEyj3grqIDl9wUe676RX1eGo3snpEmjVq8kCcNRhy21F7whLlE1LPDmos+WyU7+ZfWFRNerojf7zKtVB6vd1RInTQWV2M7v7dDqyAEclBfXQ0dEaPf5lcy8cVGbbyG3V6SgGZ30B2YCdLKoPVKBOO2gs9s/rOH2UigM6WdMm78R2cDd9uk6Ws56C7D3Ul3ZQ3Rcl7mVxX2J979F+Jpx07KygJHit4zQ9+dDT4qS6OgtnSzPkHJvl/cfzXgohxMqUlpbG4cOHee655wB48sknAX8C9tSpUxw+fJi0tLS4z+t2j/NPr7xCa2sL553n2VP+FcrKdpOaEt+q16nGSOaR+1NxezykWaY/ta7resS/ABlrrWiagY+vDS9qbEtdXBbmAjCbEzCbLaxZs4bdX3qHC9cVrf++lVN9Kawv9WC9NylU3aqFL8qlolfATu0PK5WwQgghbp0d1B6pIhMgs4p95V2cPQ/0O+kNVq1arVjLmug6ez50za7HA8nILdvY0VQ2pSJ1tmuna7eVwYnZE5cR8e4NnFlYSjm9OPsDc+6oJXgos2of5fMdwx9MoNq1jKbQ+3mVU13l7KuamoANjBW8f1PHijB5P/JqcjjRFrjGHy1VbS5c3bX0lk2pshUrSnJyMiMjI0xMTIT2GQwGlFL4fD48Hg9utxuz2cwTTzzBvffeS3Jy8iJGVExjK5SoEmhtJJRiys4h/2hJWCUgUNyI3hGW5HScpse+j4i0VKz7Io5XBioMSzg60znOc/QEqzOVQpUcpbO3b+b4b8ptuBfOc/Tk2wm2Qc2qPkBFaI6dVBw9HUg7OjjdM3lepHzsxwKxZFVzoKKT3r4Z4r4pt+G+xPLeZ/qZyM4hv+ccTsBxuofdB3ZDcwtOnLQ0w+7SrKgVtH6LfS+FEGJlCCZiT506xcmTJxc9ATtwbYBjx4/x05/+FKU0vrLnKzz95WcWPQEL4FMmBkbMDIwkcN2dGHUbHE/ANWbm2qiJgRETA6OJXBtNYMQTl1rQZefChQu88sor8UnCKmVEaRbGx8cxmUy0/zqdH/zsAY7/9D6aXt/Kv7yzFffdWzBnbkIzWCYTsSqsFUGU/rCTyVoLzCcJG/EhQoU9AhStqf7Ux5fmWBE19KE4/APKfJv1h50vK5oKIcQttoVtO6bs6nfSSw5Z0fKJ9OPsDX9dPrlglMuFK1qJZmYVbS4XR3h2ymP6MVwL/kpaTiyN6s+IRbK6qZ167xZkcmEul2uGhHNmFUdqd9DUIlnYlSozMxOfz8f585N/lEhISAitN6BpGmlpaTz99NM88sgj9Pb2snnz5lsfaFY1HbrOMfbM8Pi1fxGl3aVZN7Ev/HA9BSXQquvoeh/2/NmCqgicF9gab1FV4q26F9MUs8/ew8F6J876g/TsLo2hytfJuZ5Y416gRb0vsb73KD8TWaXsppkWp4PTPbspLS5lN730OVtoZjelWZOx+6+bKXl/C++lEEIsQ+GJ2MVMwF64cIEf/uCHoGukp6fz+c9/ji9/6WkslqS4zxXNuhQj661G1qcb2WCN3NanG0Jb8HVSomKD1UxGupG1KaszCbtu3Tp+//d/Pw5JWGVAKQuWxHRu3HDR29vL37Ul8s9v3M2vfnYXvl/djalvM6Zzm0m8kUOy6bcwqjsiE7GBatep/WEnz0lEEePCXM56CgKP4QQ/fLTm9tK34DfKlA/FOnpfDucW+oFDVjQVQohbLJOsnC5qnm0gVOj5Ug1d5aVhScAuTr0aOBqo+CwtBDKzyKGJuhh7lWZWtdFdu4NeZ/88rm3HXwQbnpLcwrYdgWpcgPaWyYrUWQPIIqerhpcC+cv+hrrYrgsXvkhW/6ucCq4rkPk4u3bEfi/mpb0hrG9tP6+e6mLHtviu6CqWjoyMDLZs2YLDMfmhyuv14na7AUhKSuLP//zPGRwc5IUXXuDNN9/kc5/73CJG5KCyBFr1ViiZ/sf5rOoO+uz59JxzRvb7jNdiS329dObnkB08t3OG87K2kstRDk77S/7s8c/PbbgXWVvJ7bRRF2p7ezCiGjirdDc011HXnMuBGW9iJ80tzsk5OisIb7caEfdNuT0/I3O+9xl/JrIo3Q3Ne4LJ2yxKd/dwuq4X5kxkL/a9FEKIlSWYiF2sBOwbb3Tygx8eR9d1PBNutm7N4g+/+GUSExPjPtdM1iQbWW81sH6NxoY1hqjbeqvGujSwJMKGO8yst2pkWDXWpK7OJGxwYbQFJ2EVhkDC1ExKipW7NuXg678b468+hencPRj77sbk3Iy5fxOm32wk8eMM1tx4kKSJO1FaoO1A+EJdwaRsKCEbPBZLJayT+j02clsjk5rFjQt9FCsg/EMxQFY11dIGSQghlp1Ceze11JAXWDiqrLeW7oik5w5yzvqrWK15NeSE2gIUYu+uhZq8GRaqCmifXOAqryYn8Mj+TNcWUlo+uTBXu62MJpooC55T1EA/mVTtK6epLLCvhVnaCkS8U+wnJq97ll0xXhc+xN7Je/XsWXJClbCZVLWdICfs/cStZUBhFmeDbRusedTknKAtatsDsVJ84Qtf4N/+7d944403ABgfH2diYgKLxcJf/MVfsHnzZj744AMuXbpESkoKGRkZcZy9mJ0V4YsulQQeA/dXHpYEE2hhT0Nl26YnweKxIJc/nH3YsZGtFGpPL7mhStjwOB1AMY19drBlhy3iNUv8y+ZeFNPYWsHREv/4e9g92Y4AAlWdRzmau3OWz/f55Pb6KzRVto3cYMuAOeJe2vcllvce7WfCEbh0N3QSqq7NKt1Nz9FYqpDjfS+FEGLlS0tLW5QE7Ds9b5OcksI999zNlatX2Lz5k+za+QVMplvbvjPZYiTZokixaJgMXsxGL2ajD7PRR4LJR6JZJ9Gso2uK1GQzKRaNFItGqkUjJWF1JmGDlMvlmnXFq5camthbVU56evq0Y16Pj9K1f8qFT7w9uYgWJlLSCzCOb0AbtqDcRoz4UMqHER+a7kNTPgy6j3HzKK7UMXyaKbAw1+SCXVMX6kr5yEXF1xJ5+Mkc7rrrrujBOuspyO7lwIyP0PgXN5hsqj91n4NKdZqds15fQo+9j46IDxpTxyjhaEUremMxjkpFSfDP94F9088Pi8lZT0G2DX/RQwWteiPFgfOpgKNHc2nVd3J66sIMU8ez52Kz+SfOD483bPx8u51cW/OU+yGEEAszODgY+n9HPFy9epV169bNeV4851yx+hsoyjvLvpke/RdiEb322mts37496jFd1/nrv/5r3n77bZ577jlaW1tZs2YNe/fuxWAwAHDgwAHOnTvHli1bKCkpiVoNe+bMGR577LEZY3jxxRd54YUX4vOGIjioLDjHvvDenzHvux3m+sy7wLFv672I9nl/Pteu1PtyMxZyL4UQQsxm//79PP/88zMej/a56fU3Otj+2R385F//L0ajgc8/8tsopW46hrk+N80Ux7+8fweWlAS8vlnTiVGNDrv53U8OzDuOoPT0dLq7u+c9b9CWLVti/r0x1t9DY9HW1saWLVtYcApaYQxVwgaTpsYra0jwWtDwYWDM/6/uQ8OHho4BHYUPi9tAmsvCh2kGxs0Jk4nYQAIWJsfUVIwrqIVVqjrrC8i2dQL52OPy4aGYRr2P+oJslA0qWnUiW285qff3K0AP7J++um3xLHFEX9G0uBqgk56cPnQ9C3BwetY4O7H1HkDXG/1/pS6pw1EdSOZGXW1WCCHEatD+Ug1dO2qRB/vFUqOUYu/evdjtdl588UXuu+8+HnjgAX71q1/xmc98Bq/Xy0cffURVVRWPPvrogn7hWBzFNE5bJT7WfSuN3Ivo5L4IIYRYmKwt2bzxZicbN27k3m2fxuPx4PV60XV/MjT4hEKwp37w63hb67vAme5r+Hy+eV2naRr33pUKrI17TMvFwuuAlQFNswCTCVQzEyToYxiUD4UPQyjxqmPAh6aDAR9KgeaDLS4PV1JNXE22RFS/hlfE+hfmiuEb3Onv/+rvL9+BXh2oIp2vqBWpAFlUd+hUO+spyFZUhiVim/dkw+4+Ij43OSpRoVLY/NkTnoEVTY9mK2zBfRU7Q9fGvmhBPvbgcqnFO6ngIOecUIx/tdlj4avN2m7i3gghhFgm+mkoyqMm2MeVck64qpAH+8VSlJCQwPPPP88bb7xBS0sLf/u3f8vatWs5cuQISimOHDmyKL9ICCGEEEIsBxkZ61m7dh0+ny+UgPX5fBFJ2GAC1mAwhD43xfvz0/2b07l/8/Sn5cXc4tCMYbInbLCS1ZLg4TNP+VDogELhr1bwvzYQrF0Ir2G4U/Pi1QYZ14yAhtfn81+nNLweI/3/eAcwPnsoWVvJpdmfcIyar8wmZ+oKs85z9JDLzqnnZ1XToVfPMlc1x+zNZJ92BJKw/orbzt5gCpiIhbyKcVJfsGf2+IHIhG+QLDcqhBDiZmRS1eai6naHIUSMlFI8/PDDPPzwwxH7Jfkab8U06iu12nIh720l35ebIfdDCCGWmmCS1Whc3b1Vl6uFL8ylDNMW1TIqLxOpY7hTx3GnjjMe2H7yqWZG08YZTXUzmupmJGwbTh5nzDKMnjCInnANzTKIsrhQiQOoxGuAOYZoitlnB1v2TCvBZrE1txPbnskFChx1NjorZmvsH8ZRz+Rio05amjvJzwk2P8hn97EOWimhIHhSrKvbhsKbaUXTqbLJye+kty8Y1+mIVWNnHX+W1WaFEEIIIYQQQgghhBDxF59KWC0RFda/1ai8uMdHGb4+yMToDQ7/jz/nv77+X2ja/i2++YsXSP43f3XDf6soI+MOK0ajka9+51VMw/2M3nDxd3/937nwwTU8Pp3nv1rOJ+4vRSlDTNFkVXegb62M6BWWb++jMVCcWtzYh70gm2xlCx6kL9a+S8Vb6VVqsoK3ohW9OgvomzylsY9zBdmoZjt9HfuwHwzMlV9BxdQq3OkT0NhnpyDb33M2NEfjtHdJ9YEKVInyJ1ErKiJXjZ1t/NbJ6/LtdipojulKIYQQQoiFOnPmzO0Ogf3799/uEIQQQggh5rQUPjfB0oljJVj4wlyhStjJXq4G3cfwjSFMCQmM3BggMSGBv//dv+e5rv/MP3/cyR+MP8hVfSOv/fso1lR/s+CPx5O5Y3wM9/gYzov+ldK8Xh+jIyNMuOdoQzBVcaN/UaqoAj1do184xyM3xTTqOtNHDr8ucvzoc4WfP2XOGdogTItr6nsMfTn1PUx5HX6ds54CW5RWDEIIIYQQcRbrqreLabZViIUQQgghloql8LkJlk4cK0VcKmE1lQihxbRMaErn6uWLGIwmxoeuYTKZMBgMvJjzP/mw8f/jI97DlFvEoPYJhkYN6LrOp7JyOe84iXtkiI/fO0taWhqNR44wPDzClcsXFx6mmMZRZ6Mz30723KcKIYQQQgghhBBCCCFu0sKTsMqA0vyVsOCvhsXixe12g9uNZ3wcpRRut5vdf/z10GW+Xx4n5T/+99DrjCQ3PSPD+Lxezp07x8TEBO+/9z7XBj4mZXSYBFmPIQ6c1BdkYwv1pq2gVa9GCmGFEEIIIYQQQgghhFg8C29HgCFUAauUGZQJzD7GRocDZ2g8+sSXp103NjrMsW9VRh3z5RPBZbUSWJf9IONjIySbJAu7cLO1YhBCCCGEEEIIIYQQQiyG+FTCqsSIROyIwcSn9TIwGEAzoSsTumYGzRj4OrBPmdExoesmvBjx6QqvDj6fwutT+HTwesHrU0xM/CYOb1cIIYQQQtwOr7322i2ZZ7beZS+++OItiUEIIYQQYi6z9apfCp+bllIcK0V8KmG1xMmFuTDx8UQCaSlGkhP8iVeUCTSzP/GKf/NhwqdM6LoZL5OJV69PhRKvHq+OxwM+HyT54vBuhRBCCCHEbbN9+/ZFHT+W1XtfeOGFRY1BCCGEEGIu+/fvn/OcpfC5aSnFsRIswsJc/pYEFwbNrEkysSY1AZPRiI4RH+ZAAtbsr371GvD4FF6fjs+r8Pj8la+eCfDp+sJDE0IIIYQQQgghhBBCiNtsQUlYzaCxJjWBjzQLClNEIlYpE4NjZq6PmzAZjZhNCZhMJgwGf5JW9+n4dIXHi7/a1QOzFbsaRwZJvzNxIeEKIYQQQohlYGxsjP7+fsbGxsjIyGDTpk0opW53WEIIIYQQy8LHH1/lN++9R3JyEuszNmC1WuM+h8fjYWhoKKZzU1JSMBrjUAe6zC3oDigFf/yth/jHb/+CkSHf5E7CNwCFing9Pwajzn1PJnPH3WswmUwLCVkIIYQQQixRIyMj/OhHP6K9vZ2JiYnQ/vXr1/PFL36RRx99VJKxQgghhBCzmJiYYHBwkJLiElocr+Byudjx0G/FfZ5Lly7xwIMP+rN9moamFCqwhVNK8eabb7J58+a4x7DcLDgNXfDU/Wx4IIkbN27EI55Zpaamsnbt2kWfRwghxCrQbsNat43uI/Bs3ln2uewU3u6YhFjFrl69yje+8Q1GRka47777eOyxx8jNzeXy5cv8+Mc/5tChQ7zzzjt87WtfQ9O02x2uEEIIIcSS9PY7v2Dr1m0MjwyzIWMDd921Ke5z/OS8gfO/NvJgnr/kMjwBG0zCyh/Op1twElbTNLZu3Yqu6+iL3MdVPnALIYSIm0I7rkDWtc11e0MRYrWbmJjgr/7qr/B4PNTW1vLDH/6Q119/nfHxcR599FG+/vWvk5+fz9/8zd+QkZHBl770pdsdshBCCCHEkuPz+RgZHeXChQtkZGQwPDIC+J82SkpKits8Hw0prGlmNE3zJ2E1bdYEbNtZI3ePGfjdrd64xbAcxS2rqZRC07RF3YQQQoiFa8dmLaKhf6Z90Y6L2MV6/9qxWa1Yw7aisIvabZGvAzux2toD19poj3fo4rZpaWnh0qVL/OVf/iUbN25kfHyc+++/n97eXo4fPw7Aww8/zFNPPcXJkye5fPnybY54Do5KVKVjHvscVKoC6p23LEAqVSWOuU+Mw1TzvRczcNZTcMvuUQzfj1sajxBCCBGbDz64yPjYGK+0Oujp6WF4eIhf9vZwru9cXOeZ8OoMjXrRArlANaUSdupmTjDw7jWpjJXMphBCCHFbreak7w5qu124XC5crhPk1OQFkqxQWFpO19nzEWe3tzRRXipNI1Yan8+Hw+Hgd37nd9iwYQMA4+PjXLlyhXXr1jEyMsI3v/lNPB4PZWXHfYx4AAAgAElEQVRlbNiwgfb2eKbg450AdVJ/sAf7vuKb2Hcr47wVc8TxXmRV06F3UJ0Vr9gWaKnFI4QQYtUbHhlGKQMWSwq/V/Q4HZ2vk2SxcPXqFbZkbonrXB6vztCYZ87ka3AbGvPg9vjiGsNyJElYIYQQQiwBhdi7a9nR1OKvcN2ybfJrANppaSpHcrArz8WLF7ly5QqlpaWhfR6Ph2vXrjEwMICu66SmplJTU8PQ0BAFBQWcOXPmNkY8B2cLzbkHIpNzse5baeReCCGEWCW6urpu6li8XLz4Ps3NzTzzzDNkZNzBpcsXWZOeztWrV/hs3kOkpqbGdT5/EtY3a+IVCLUuHRrz4fYsbgvT5UCSsEIIIUQ05xsoivKYPP2T+62hR+L91aw2W1FgXz8NRZOP2dvaZ7q2HZu1jCa6qMmzYrW1099QFPGI/uTj9+HVslHaJzTYoj7WHz5nUUPDDFW3s4/RbpsaT2jw6O9ztvs3m8zH2bWjiZb2KV8DtLfQVF4qi6etQO+++y4mk4lNmyYXjdB1ncHBQVwuFwMDA7hcLtLT06mpqSEpKYmLFy/GaXYHlaqEo3Riy1aoypepL1AUBEtBHZWognr8r5zUF0z+YuHvIhB+3M/Z0kzuzsiKzlj3haKqDPslJtSuIDzOwGP7znoKQr/sVOIIxBg9/uVwL/zjRnQlCI07pUp32nv337fJa6OcP2e7A/94BfXBRzbnEY8QQohV6/r16xw6dIiTJ09OO3by5EkOHTrE9evXF23+n3Wf4Tv27/Ddl1/mmT96mo0bNlLyeDFPPPEEBQWPkJKSEtf5vt1+gzedA7x12cDXf/Br/uz4Bf70+/3Yjp2nuslJdZOTvd/r40++e4693+tj7/f6eOuygbcuDPDt9htxjWW5WfDCXEIIIcTK00VN3S66XS4y+xsoynuWhsfbqMpsx5Z3il3dLtoygXYbRQ39FFb5r+nd1o3LlQntNspyTuBqC08ZRrt2C22uE2CtY1t3G1WZAIW4qgLnW1sotRfCnN1Pu6g5uw+Xy+7vm1r2Eu1Vdgppx5ZXQ84JF22F0N9QRB5QO68xoNDuwmUPxlRHw95CqjL7aSjK49SublxtmTPfvyljxS6Tx3ft4JSzHwozA60I7PMaQSwPbrebhISEiP7/ExMTDA0NMT4+zsjICCMjIwwPD2M2m+OYgAUoplFvBXWQnL7go+V30qvqcFTv5HQJtOrVZAE46rDltqJ3hCUQp+X0HNTZctmp38y+sKgadfRG/3mV6iD1+zqixOmgMruZ3X06HVmAo5KCeujoaI0e/7K4F1lUH6hAnXbQWOwf23H6KBUHdLIiJoj23p107KygJHit4zQ9+dDT4qS6OgtnSzPkHJvhvTuozLaR26rTUQzO+gKyAXvM8QghhFjN0tLSOHz4MM899xwATz75JOBPwJ46dYrDhw+TlpYW93nd7nH+6ZVXaG1t4fz/z97dR1V5non+/97PfufdKGobYxPAlxKSSahlqpwkThPMAGeyYhvISZNWfr9zDoS2I5zTH67F6KxOG61ntOlAXAnqmk510vSc0VY9PQUmMjkzndaXEEubhNIoW0yaaEwguFEE9uvz+2O/sDdsYAMbAb0+az0LeN7u67lxLe99cT33bT/PprKvUVJSSnJSfKteRxoikQfvTcbl8ZBiM486rut6xFeA9IVpaJqBT65cn9HY5jqphBVCCCFGyWPn3koyADIqqSlr5ex5oMtOR7BqNS2NtJIDYfOW5rHx0UAyMnMVeQdKRlSkjnftaC3VJXA41sRlHjs3B84sKKaMDuxdgTbzdhI8lFFZQ9lk7+EPJlDtWsKB0PO8ytHWMmoqRyZgA/cK9t/Ie8XwLKsCU1ZlPLoRjr5KF13YO4b3i5tLYmIiAwMDuN3u0D6DwYBSCp/Ph8fjweVyYTabeeyxx1i9ejWJiYkzGFEh+5qgSBVB0z5CacYV2azbXzRcGQpQuA/9RFiSs/kY7XU1RNR5xrov4nhFoMKziP1jnWM/R3uwalUpVNF+TnZ0jh3/lMxCXxQ+Tvn+Y4EUZzPH2usYNVXsWM++Ipt17eewA83H2indVgqHGrFjp/EQlBZnRa2gxX6O9nXD7WRVbaN8MvEIIYS45QUTsUePHuXIkSMznoDtvdLLwZcP8sYbb6CUxtc2fY2nv/LMjCdgAXzKRO+Amd4BC1dd1qhbn9OCY8jMlUETvQMmegetXBm0MOC5tWtBp/30V7sHOfmTP9DXcw1NM6ApDV334fV5MRpM8YgRg8nA5zdmcXv2wrjcTwghxK0sk1V5I3Z12ekgm+Jo+US6sHcAoekqyzjsGJkcHVGpmlHJcUdlYGqBVsoOO6jLjPFa8FfSchjHXHj3vquBDSVw2OGggC4aNjw7g229ytHWbGqCv4eMR9nIs7zaAkfZyN6ovx8x32VkZODz+Th//jyrV68GCFXGBreUlBQee+wx7r//fn72s5+xfPnyGx9oVhUn9Crs9fkodZLyJp19Eck4/+JSpQezprAv/HA9+UXQpOsUYqc+f9M4QZXTpE830ToFM9oXhdTUbWdTvZ0VbKe99OAYlbzRnn0FpWyi0b6SjvZSavYVw/bddNrhEKX4m/HHHrtY4xFCCHGrG1kRO1MJ2AsXLvCLX/wCq81Gamoqd9/9WUqeeBKr1Rr3tqJZlGRkQZoRl1uxMCUyrRicA9a/afh8Pq4N+UhMMKEUWDAC3hsS51w07STs9r84yKt//EfcyVf5zKfv4v3zlxjyDHD3mlXYf/seSo1TbKuMgAmFEaVMKGUEZYr8HiNKN7Ps+WVsP/4Ed+eujnhdTQghhJicDLKyWyl5toFHj/urNVteqKW17HBYcrSVo692UVmZMVzxWQCQRTa17G7YTEHUCtARLVUep40NPGvvgoJYr22hugQOR2RgM1mVF6jGzcA/PypjTSsQHkAW2a0lvNBSSV0BdDXsju26cOfP0pq3ikwI9AVshMCcrbH3xcSGp04YfvIMHt0IuSW15O1sQ3KwN6f09HQyMzNpbm4OJWG9Xi8ejweAhIQEqqurOXHiBDt27KCvr4+vfvWrMxhRMxVF0KQ3cUxV0Dwi0ZdVdYJO8tl0zg7sRm3PpvNEFVmBxaVORFlwasJ94To7OLkumxXBc09CabTzslaSQzXb62sojFjRavz4J2d2+iKruBQ27WY3OWyL1lFjPnsWxaWwadN2KD1IFlkUl7azezdQWjN28jRrJTkni9jdXMW+QrDXb2c/EJwAZcJ4hBBCiIBgIjb4fbydPn2Sln/5F1JT0vC4XaxcmcVjf/E4JlN8iiBjsSDRyOI0Ay6PzqIUQ8SxYALW5/Ph9Xq5NgQJCYEpCxQYfEbAecNinWumlc30eny8+fvfcs16GWXUcRsG6dM/xmnox2qzMGjqY9DkiLJdZcg8iNPsxGVx4rS6A5sXl8WL0+LFadFxWXRcVoUrAa4kDXD21EV6enri9exCCCFuUQV1beykltzAwlElHTtpqwtPeuaRffZZ/yv4ubVkh6YFKKCubSfU5o6xUFVAy/ACV7m12YFX9se6toDisuGFuVqqSzjAAUqC52xooIsMKmvKOFAS2NfIONMKRDwpdYeHr3uWjTFeF36LzcN99exZskNVxBlUHj9MdtjzROuK8YVNz5C2m1VtDupGVP9mPLqRvPCpHsRN6ctf/jK/+tWvOH36NABOpxO3243NZuM73/kOy5cv58MPP+TSpUskJSWRnp4ex9YLebw8fDGqosDr8YXU1LVTFFxsKjRFgGJFdQ7bqiKTcfFYkMsfTg11VLNCKdSmDnLWRYuzGShkX2cdVK8IW8RrnPjnU19kFVPKfvbnPD5GAjnaszcHLi2Fk4GpBwI/t+9vD/081nPvaypnf5H/XpsoHZ6OIKZ4hBBCiGEpKSkzkoB9u/0tEpOSuOuuO+nu6Wb58jvY+PiXb2gCFiDRZiTRpkiyaZgMXsxGL2ajD7PRh8Xkw2rWsZp1dE2RnGgmyaaRZNNItmkkWW7t6QiUw+EYY0kAvxcaDrC5sozU1NRRx7weH0ULKulMbyEhIYFHHnmEf/qnf0LXdR588EHOnDmDUiqyQWUKVLuaUQS+KhMEvqrAMULH/T8vuJLCX9Y8yNovZXP77bfHtxeEEELETV9fX+j/jnjo6elh0aJFE54XzzZvWl0NbMg9S82oKRGEmHmvvfYaa9asiXpM13W+//3v89Zbb/GNb3yDpqYmFixYwObNmzEY/BUW27Zt49y5c2RmZlJUVMQDDzww6j5nzpzh4YcfHjOGXbt2sWPHjvg8UIRmKvLPURM+J2rM+2ZDMxXqGI/PyFQG860vhBBCiBtv69atbNmyZczj0cZNp06fYM3n8vjlv/8bRqOBhx78s1E5t8mYaNw0Vhz/+sFt2JIseH3jphOjGrzu4pE7eicdR1BqaiptbW2TbjcoMzMz5s+NsX4OjcXx48fJzMyc/nQEAP39/VgsFrq7u6mqquLgwYO8//77I84yjEiyDidggwlZwn8OT9YGrxFCCCHElLW8UEtr3k5kfSsx1yil2Lx5M3V1dezatYt77rmH++67j3feeYe7774br9fLxx9/TGVlJevXr5/WB46ZUci+EyPTmbHuu9lIXwghhBAzIStzBadfP8nSpUtZveqzeDwevF4vuu5PhgbfDgnOqR/8Pt4W+i5wpu0KPp9vUtdpmsbq25OBW3e9p2knYV36EOBfxba3t5czZ87w9a9/nf37/Wu5JiYmYrUmoZSR3isD/oQqYyRigxWxRE/WCiGEEGIyumjYkEtta/DnMg47KmVuVTEnWSwWtmzZwunTp2lsbOSll15i4cKF7N27F6UUe/fulXUBhBBCCHHLSk9fzMKFi/D5fKEErM/ni0jCBhOwBoMhNG6K9/jp3uWp3Lt89NvyYmLTTsJqyv+LNplMaJrGBx98QEtLCzk5OXR3d5OUlITFYuHKles4HL5QUjU3px/HVY13P7CiaWYyll8HfFz4ICUiKavwJ2KRSlghhBBikjKoPO6gcrbDECJGSinWrl3L2rVrI/ZL8jXeCtmnSxWqEEIIMd8Ek6xG4609t+p8Ne3fmhErVquVq1evkpqayvXr17l06RIPPfQ5nnxyEXb77bS2tvFx9yBKWUNTDnz9a2+Re/cnvPlOOlazj1UZvfyv//Mn1P/ojlHTEvi/yuBbCCGEEEIIIYQQQggx/8QldW40GnG5XHz00Uc4nU6efvoBNm/+KQkJ3Xz40Wp++9YdDA4a0DRLaMqBitpHsFoM/Pqn/5OLHyWz7olvoOtmlBacemBkInbyE/4KIYQQQoi548yZM7MdAlu3bp3tEIQQQgghJjQXxk0wd+K4GcStftlstmA220hISKD0qbe5cFXx3nsrefeTJBYXe0i7msK1zsi5X10eE/92OoMLf1wEum2C+WE98QpVCCGEEELcYLGuejuTxluFWAghhBBirpgL4yaYO3HcLOLyjr9SRpRmw+l0YjKZaHk3lR//5j5efuMeDpxayb++vRLXnZmYM5ahGWwoZUNTVpSycX3QhstjRWk2VGBf8KumAvs1m39e2Ak1UxFYDS64VTSPdV4+9XbAXk9+8HshhBBCCCGEEEIIIYSIs+lXwioDStmwWpPo7b3ApUvv8/fHN+DRboerVgz9SZj6E1HXEtEGEsAETve7+JQnUOFqDGxWlDKHFu7yV8AGK2JNKHwxBrSOus4TVGXFeHpWFSf0qsAPzVSo7WRP5nohhBBCCCGEEEIIIYQYx7STsApDKIGalJRGSuod+LruxOi5DdWfgHY9Ee26De26DeUyY9C9JKgFDNouMmTtR2EAjIEKWFNkIlaZwuaHdU//aYUQQgghhBBCCCGEEOIGi0MlrIbSbLjcRjTDXShMGN5ditG5JJB4NWLEh1I+jAyi4UPDR+LAQpyehEAS14TSrBEVsCgTkfPDDk0vTns9+SuqOQmsq6sjJ3QgWP26jY4VRewHWKGoLm9C31cYcR1AeZPOvsLh6yiH/ftzaNL3UTi9CIUQQgghblqvvfbaDWlnvLnLdu3adUNiEEIIIYSYyHhz1c+FcdNciuNmEYdK2OGpBIJJU2P3AixeGxo+DAz5v+q+QAJWx4COwofNZSDJZcTkM6Ip2xgVsP59mroeY0QnqV6hqAagPJAcbaZiRTU5TTonCsFen88KoC7iukL26U0QMR1B5HX+hGw+9aHjJ2nP7kTXZe4CIYQQQoiJrFmzZkbvH8vqvTt27JjRGIQQQgghJrJ169YJz5kL46a5FMfNYPoLcykD2ohFtcy4sehDWBnCzBAWnFhw+ffjwqy7seLGrNwYdZ2FQx7SB30Ri3IpZfPfV7OhNGuMC3OBf05YHV3X0YPVqfZztK+royZQqppVtY3yWG5lP0c75TweLHHNqmJb+Uk6OofbKi2WBKwQQgghhBBCCCGEEGJs05+OIGxO2GAlqwk3FpyBSlgdTdfRlI6GjgaBalhQgCFQGbvMOUSKYYD3ExbjU5bIitjglAQ4px+uEEIIIYSY04aGhujq6mJoaIj09HSWLVuGUmq2wxJCCCGEmBc++aSHP77/PomJCSxOX0JaWlrc2/B4PPT398d0blJSEkZjHFKQ89z0pyNQhlGLapnwYsaJAfwJ2LDkq6b85bcK0MwWlMmAZrOipSZzm8lIomGQd1USQ1j998QcqII1M+UkbNZKck4Wsbu5Cv80r9vZz8jpCMa4jmqONe+jMDAdwfb95WzbN7UwhBBCCCHE2AYGBvjJT35CS0sLbvfwoqyLFy/mySefZP369ZKMFUIIIYQYh9vtpq+vj6LCIhqbf4HD4SDv838a93YuXbrEffffjwKUpqEphQps4ZRSvP766yxfvjzuMcw305+OAENgUS3/VAKasmFSPsy4/ZvyYFIeTHgwaT5MJgOGJCuGtBS01ESU2YQym9GSkyExCUuSjZUpLm6zKP89NWtgugNDjPH454QN/uLz6+1AIfuaytlf5N+3idIxpiMo5PHywPUVzf7rOutoD1ynVhyitFMW4BJCiJtCSzVpGxro6mpgQ1o1LbMdjxC3uJ6eHmpqajhx4gT33HMPNTU1HDx4kL/9279lxYoV7Nmzhz179uDz+WY7VCGEEEKIOeutt98kffFirg9cZ0n6khlJwP7yvIF/6TSGcm/hCdjQPk1D0zT5A3qYuFfCKmXCiA+zwr8Ql6ahTCYwmdBMJjAGv5pRRiMYTWA2gy0RDGZ0gwk0E8tsigSXzsfXrMQ+1C5kn64TtVC1cB+6HnakqirsmsKw03TCTyOrihN6FaNFXieEEGKeKajDUeD/9rhjdkMR4lbndrt57rnn8Hg87Ny5k1deeYVTp07hdDpZv3493/rWt1i3bh3PP/886enpPPXUU7MdshBCCCHEnOPz+RgYHOTChQukp6dzfWAA8L9tlJCQELd2Pu5XpKWY/Tk/CCVbgwnXkYnX42eN3Dlk4JGV3rjFMB/FpRJWC1uUSykrRoOGyWLAkGRDS0lES0nCkJyESk5CS05EJSZBYiJ6QhIYTOgmC7o1GZ85Ed2UhM+UhMeYSEqikdsXOjEapOJBCCFEvLRQnbaBhq6x9kU7LmIXa/+1UJ2WRlpoC79m5LE0NkTccKLjYr5pbGzk0qVLfPe732Xp0qU4nU7uvfdeOjo6ePnllwFYu3YtTzzxBEeOHOHy5cuzHPEEmisCb1VNYd/EN6dC5VNvD7uHUqj8euwjj824ZipUBZN9gqk1Fac+tdeTf0P7aCzj/R6FEEKIqfnww4s4h4b4RVMz7e3tXL/ez+872jnXeS6u7bi9Ov2DXrRAxevIKtiRm9li4L0rUhE7/SSsMqA0G5pmDSRhbahEGyolES05ES05CS0pAZISICEB3ZaIbk1EtwQ2gxHdYMZrSsBrTMRjSMCjJeDBggsTymggPQ20OKSLhRBCiLnnVk765rGzzYHD4aBtJ9Q+20BXlGMOx2Gya3NJq26Jeq3D4eB4ZcaND1/Ehc/no7m5mS9+8YssWbIEAKfTSXd3N4sWLWJgYIDvfe97eDweSkpKWLJkCS0t8ZxAJN6JSzv129upqymcwr7JaqaiaD/lTTr6iSqyYr1mxpOQc7hPs6o4oZ+gKrbOukGm8nsUQgghIl0fuI5SBmy2JP58w6OcOHmKBJuNnp5uMjMy49qWx6vTP+SZMPka3PqHPLg8UmA57dSmwhCqgNU0/xyu2BJRSQmoxERISMBnSwBrIliT0K2J+CwJ+Mz+pKvB5APNgFslBTYbTp8Jp8/EkNeA02PA7dUwmiQLK4QQQtysMiprKGs9yqtRk9EF1LXtJO9Ao8zdexO6ePEi3d3dFBcXh/Z5PB6uXLlCb28vuq6TnJxMbW0t/f395Ofnc+bMmVmMeAL2Rg7lbItM8sW6b0rWkb1iuveY4254n86GW+D3KIQQN7HW1tYpHYuXixc/4NChQzzzzDOkp9/GpcsXWZCaSk9PN5/L/TzJyclxbc+fhPWNm3gF0HUdXfef6/LocY1hPopPJayyRSzM1W+0gS0B3WZDtyagWxLxmhPxmmx4DQl4jIl4DIl4jQlkrz7Fmvv+2V/56jMy5NFwejSG3Iohl8bAkGLACW63ZMyFEELcQOcb2BDtVfeu4f1poQW9/NWs1dUbAvu6aNgw/Kp8qIBz1LUtVKeVcIBWanPTSKtuoathQ8Rr9v7qz5HVslGmT2iojv5qflf4czSMUXU7/j1aqkfGE7p59Occr/+mKuNRNuYdoFGysDed9957D5PJxLJly0L7dF2nr68Ph8NBb28vDoeD1NRUamtrSUhI4OLFi3FqvZkKVcT+4MKuFT+kPj+4sCv+V8RDr4fbqc8f/mBR0TzyuJ+98RA5j0dWYk68L1A52lxPfsTissGTw/efC7tmOPb8KGWnzRVhH4b8AY943uZR91eqgubAs0bvh/nQp/77RsxKELrviCrdUc/u77fha6OcP+Z0BzPzexRCCDG3Xb16lT179nDkyJFRx44cOcKePXu4evXqjLX/m7Yz/F3d3/EPP/whz3z1aZYuWUrRo4U89thj5Oc/SFJSUlzb+0HLNV639/K7ywa+9eN3+e8vX+C//WMX1QfPU3XATtUBO5t/1Mlf/sM5Nv+ok80/6uR3lw387kIvP2i5FtdY5pv4VMJq1sDmT8R+4k7gqrLhNSUGphnwbx5DIh4tEQ8JfOVL/4PtW/4cdEhJ7mFnzX/g0YdeZMhlYNCpMejUGBiE64MwMAi65GCFEELcMK3U7oa9DgcO/3vywwnP3KNsDL4Gfxh2hxKMrXSs2ovDUUdBywvUZh8OvSpfVzDWtZnUOQ5TFny1vq6AjMrjoVfwyyjjcF1BbPGeLQ7ct4zW2heGk8O5tWQf9re5l6McmPQ9oKBueFqAsgO7A33RRcOGXI5ubBvxnCP6b8S9xtLVsJsDeRt5NOZZBQKJ62gJYDGvuFwuLBYLWtjcU263m/7+fnp6evjggw84f/48b775Jn19fXFMwIJ/odUmyllHXaeOvu8/U3WiiZzq3TTTTEURNAVfD2/eTXVOU6iiY1/UN96b2V2dQ2RuMNZ9J6neDgd1Hb2zDqo3BRJ/zVSsqCanyd/uQQ6xP0rsJ6KUfxbu0wPxNlG+fzv19pHPWxi4/yFKOwPnNsH2esbuh3nRp1lUbStn/7HhZGnzsf2Ubxv5DNGe3U7h42HXNh+jfR0cagykjRsPMX7Javx/j0IIIea2lJQUXnzxRY4ePRqRiD1y5AhHjx7lxRdfJCUlJe7tulxOfnbkZ7z00kuceeMMm8q+RklJKSkpqRHjqngbIpEH711GwZq7uOvTi0Ztd35qIXd+amHEvoI1d7H+vtvBGN+E8HwT/4W5NBsoCxf6bFzstzKgB+Z5VVbc2HBjw0UC71z4Aj/+39/m69/5DRV/8wY/OvJt/nD+TxgYgusDMDCo43KBT5KvQgghbrg8du6tJAMgo5KaslbOnge67HSEJ/9KDtB69nzomo3BDGLmKvIOlIyoSB3v2tFaqkvgcB2xpGAhj52bA2cWFFNGB/auQJt5OwkeyqisoWyy9/AHE0h2lgwncbte5WhrGTVR52IN67+R94ow3B+5tdkcPh64ZpwYV2UOfx8+J2xMuWoxJyUmJjIwMIDb7Q7tMxgMKKXw+Xx4PB5cLhdms5nHHnuM1atXk5iYOIMRFbKvCYpUETTtI5TnW5HNuv1FkZWKhfsi5/BsPkZ7XQ2RucEY97GOuoOBe2VVsa38JB2dgP0c7evqCE5zmlW1jfJYHyW42JMqCiT8orCfoz1YtaoUqmg/Jzs6x+6HKZmFPi18nPL9xwKLhjVzrH24Dyd89hXZrGs/hx1oPtZO6bZSONSIHTuNh6C0OCtqBa3fDPwehRBCzHkjE7EznYDtvdLLwZcP8sYbb6CUxtc2fY2nv/IMyUnxnXYgGp8y0TtgpnfAwlWXNerW57TgGDJzZdBE74CJ3kErVwYtDHiMMx7fXDatJKxm0FiQbPEvzBWeiFX+n/uGbLzXY+G9bguXHQlcuW7j2lAC1502Xj3xJL888x/pvZrAJ1cS+b8nizj124f8idco00QYB/pI/bR1OuEKIYQQQCar8kbs6rLTQTZZUTOAXdg7wn8u47BjOPnniJb9y6jkuMPBXp4dUaUZw7UALdWUcHhuJBa7GthQQiDuNnaO7LtpCU+kTpBw7nqVo61j/Y7EfJaRkYHP5+P8+eE/SlgsFkwmE5qmoWkaKSkpPP300zz44IN0dHSwfPnyGx9oVhUndJ2DbBp+dT6Cf1Go0uKsKewbfa9z7dOM115PfhE06Tq63knduvFOLg+cF9iil6TG34z2aSE1de1sr7djr99Oe2nxGJW8UZ49q5hSDtFob+ZYeynFhcWU0kGnvZFDlFKcNRy7/7qxktRx+D0KIYSYN8ITsTOZgL1w4QKv/PgV0DVSU+ZwOsYAACAASURBVFN56KEH+MpTT2OzJcS9rWgWJRlZnGZkcaqRJWmR2+JUQ2gL/pxgVSxJM5OeamRhkiRhp0wp+K9/+3ke8F0l92o3uX0Xub/vPe5z2PmTK+/wJ71vc+8nbXz2ozfI+uAEn7nwS5bZW1jW2cQd55v5TFcTme81sepiM5/9qIm7x9ju/aSRv/hSP7fdmYDJZIrXswshhLglZZCV3Urtsw2ECj1fqKW1rDgsCdjK0eAKUYGKz+ICICOLbA6ETUEwQUuVx2nbmUeHvWsS17bgL4INT0lmsiovUI0L0NI4zrQC4QFkkd1aywuBJHBXw+7Yrgt3/iyteavIhEBfBO/tn6M11r6YnuC0CrFWBov5JD09nczMTJqbhzNwXq8Xl8sFQEJCAn/1V39FX18fO3bs4PXXX+eBBx6YwYgCr8zrTVAUXuHol1V1gs66dbSfs0fOXzrtxaNOhl55x97IoZPl/lfrs1aSc7Ka3aHpW7ePXdUarrODk+uyWRG63xjnZa0kh/1sHzUX6fj9MDmz06dZxaVwaDe7D+WwLdpr/mM+exbFpXBoUzB5m0VxaTvHdnfAmMncoDj/HoUQQswrwUTsTCVgT58+yY9feRld1/G4XaxcmcV/evIrWK03rmhxQaKRxWkGFi/QWLLAEHVbnKaxKAVsVlhym5nFaRrpaRoLkm/tJOy0nz7/iXtZcl8C167N/OS6ycnJLFy4cMbbEUIIcXMrqGtj54ZcctNq/TvydtJ2PDy9l0f22WdJS/NnHMsOOwLJvwLq2nayITeX4KWUHcZRN6KBlmrSSoLpzjIOOzKAjDGuLaC4rISS3DRqyw5zGP8r/wfSDoTFVkllTRlpJWn+JGpZ2TjTCkQ8KXWHh6/L27mTMo7G2EvBW2xm5+5AX+WVURaqhM2g8vhhzqYNP0/Z4XhOC+CfqsB/a3/FbNSZD8RN4ctf/jK7du1i7dq1fOELX8DpdKKUwmazsWXLFpKTk/npT3/KpUuXWLJkCenp6XFsvZDHy4soWqGoLv976tr/C+11newjixV121mRX0/niSqymitQRcG0WTlNehbh2UT/olAnIu4c6z6/deR0bEIpf7a0vEkPVFcWsq+pHFWk2A+sq6ujnEMxPFYNddtXsEJVw7pyykOVsOHP24S+r5B9nXXkr1iBqg4+3jj9MHHLzJk+zSqmlGqqc5rYN0aco5/d3ydZxaVQfYjSg1mBW5XSXn2I0s6JeiDOv0chhBDzzkwkXwHebn+LxKQk7rrrTs6e7eQLf5pHYWHxjM7/Gk2izUiiTWH2aJgMXpQCUIGj/lfbfT6dfqciOdEcuk4pcFlu7SSscjgcUV7+H/ZCwwE2V5aRmpo67o2Cr/DMpBv9D0sIIcTk9fX1hf7viIeenh4WLVo04XnxbPOm1dXAhtyz1Ez06r8QM+C1115jzZo1UY/pus73v/993nrrLb7xjW/Q1NTEggUL2Lx5MwaDAYBt27Zx7tw5MjMzKSoqiloNe+bMGR5++OExY9i1axc7duyIzwNFaKYi/xw1EUnKWPcF9qvtZHeeiFIhO5c1U6GO8fiYr+NP897T6tPZMF9/j0IIIW60rVu3smXLljGPRxs3nTp9gjWfy+OX//5vGI0GHnrwz1BKjXGHiU00bhorjn/94DZsSRa80eYSncDgdReP3NE76TiCUlNTaWtrm3S7QZmZmTF/boz1c2gsjh8/TmZm5vQrYYNUYGJ6IYQQQsxNLS/U0pq3k8yJTxXihlJKsXnzZurq6ti1axf33HMP9913H++88w533303Xq+Xjz/+mMrKStavXz8Hx5yF7DsxMg0Z6z4RnfSpEEIIES4rcwWnXz/J0qVLWb3qs3g8Hrxeb6ggMpiXC86pH/w+3hb6LnCm7Qo+n29S12maxurbk4Fb9w33W7sOWAghhLipddGwIZfa4DyulHHYUYm81S/mIovFwpYtWzh9+jSNjY289NJLLFy4kL1796KUYu/evfJWlBBCCCFuWenpi1m4cBE+ny+UgPX5fBFJ2GAC1mAwhMZN8R4/3bs8lXuXj/+2vIhOkrBCCCHETSuDyuMOKmc7DCFipJRi7dq1rF27NmL/zZ98LWSfPh+rOedr3DNF+kMIIcTMCiZZjUZJ581HN/uIVgghhBBCCCGEEEIIIWaVpM6FEEIIIcQNcebMmdkOga1bt852CEIIIYQQE5oL4yaYO3HcDCQJK4QQQgghZlysq97OpPFWIRZCCCGEmCvmwrgJ5k4cN4tpJ2Gvdg9y8id/oK/nGppmQFMauu7D6/NiNJjiESMGk4HPb8zi9uxbdwU1IYQQQgghhBBCCCHE/DTtJOz2vzjIq3/8R9zJV/nMp+/i/fOXGPIMcPeaVdh/+x5KjTPtrDICJhRGlDKhlBGUCaVM5GRf5d33b2Pgug2lm1n2/DK2H3+Cu3NX3wKLMwghhBBCCCGEEEIIIW4W08pmej0+3vz9b7lmvYwy6rgNg/TpH+M09GO1WRg09TFockTZrjJkHsRpduKyOHFa3YHNi8vixWnxsuu5Uyxf6cBlVbgS4ErSAGdPXaSnpydezy6EEEIIIYQQQgghhBAzLm5zwiqlyMnJ4fe//z26rqPr+hjnmQLVrmYUga/KBIGvKnAMFAoLSllD5wK43e54hSyEEEIIIW6Q11577Ya0M97cZbt27bohMQghhBBCTGS8uernwrhpLsVxs4hLEra/vx+LxUJ3dzdVVVUcPHiQ999/f8RZhsgkqxpOwAaTrH+2tof/WPABCo3b0pxs/n9+x5WrnVy8vICXf1AYj1CFEEIIIcQsWbNmzYzeP5bVe3fs2DGjMQghhBBCTGTr1q0TnjMXxk1zKY6bwbQnV3XpQwAYDAZ6e3s5c+YMX//61+nv7wcgMTGRhQuXsGjRUpRm82/KiqZsgSrXwFfNRveVVN76w1Le+sOncLkN2N9dzNvvLMP+3qf81bJCCCGEEEIIIYQQQggxz0y7ElZT/qkITCYTmqbxwQcf0NLSQk5ODt3d3SQlJWGxWLhy5ToOhy9UAZub04/jqsa7H1jRNDMZy68z5Ezix8fuQikTX/1SO6/+6l7efucuUCbSlDkezyuEEEIIIea4oaEhurq6GBoaIj09nWXLlqGUmu2whBBCCCHmhU8+6eGP779PYmICi9OXkJaWFvc2PB5PqABzIklJSRiNcZsRdd6adg8YsWK1Wrl69Sqpqalcv36dS5cu8dBDn+PJJxdht99Oa2sbH3cPopQ1NPfr17/2Frl3f8Kb76RjNftYldHL//o/f0L9j+6AwJywKAtKC8wJq6ZdtCuEEEIIIeawgYEBfvKTn9DS0hKxDsDixYt58sknWb9+vSRjhRBCCCHG4Xa76evro6iwiMbmX+BwOMj7/J/GvZ1Lly5x3/33owClaWhKoQJbOKUUr7/+OsuXL497DPNNXNLQRqMRl8vFRx99hNPp5OmnH2Dz5p+SkNDNhx+t5rdv3cHgoAFNs4QW4aqofQSrxcCvf/o/ufhRMuue+Aa6bkZp/iTt4xX/H16fFaUsgXljoy/0JYQQQkxJSzVpu1fRtheezT1LjaOOgtmOSYhbWE9PD9/+9rcZGBjgnnvu4eGHHyYnJ4fLly/z85//nD179vD222/zzW9+E02TP84LIYQQQkTz1ttvsnLlKq4PXGdJ+hJuv31Z3Nv45XkD5981cn+uQkFEAjaYhJU/nI8Wt1pgs9mC2WwjISGB0qfe5sJVxXvvreTdT5JYXOwh7WoK1zqHF+NCmXF5TPzb6Qwu/HER6LaIhbo8XlOoata/eeIVqhBCCAEFdTgCWdfjjtkNRYhbndvt5rnnnsPj8bBz505eeeUVTp06hdPpZP369XzrW99i3bp1PP/886Snp/PUU0/NdshCCCGEEHOOz+djYHCQCxcukJ6ezvWBAcD/tlFCQkLc2vm4X5GWYkbTNH8SVtPGTcAeP2vkziEDj6z0xi2G+SguZQRKGVGaDafTiclkouXdVH78m/t4+Y17OHBqJf/69kpcd2ZizliGZrChlA0tsCjX9UEbLo81tGCXCluwSwss2KU0G8S0MFczFSOy7xXN8XjCMPZ68lU+9fY433fSYn3WZiqC8c6Z2IUQYja1UJ22gYausfZFO34ri3d/tFCdlkZa2LYh7OYt1ZE/B3aSVt0SuLaalniFMmZ8sTzvyOcIv2b8Z5z4+K2nsbGRS5cu8d3vfpelS5fidDq599576ejo4OWXXwZg7dq1PPHEExw5coTLly/PcsQTaK5AjRyYjbsvbLx2YwKkQlUQ72Fy9KYm2xejbjBx30x5jDvi3s0V/nF1fj32UefNl/4KmDPj/lj7WAghRDx8+OFFnEND/KKpmfb2dq5f7+f3He2c6zwX13bcXp3+QS+aUhEJ2LE2s8XAe1ekMnb6SVhlQCkbNmsq16456Ojo4O+PW/nn03fyzm9ux/fOnZg6l2M6txzrtWwSTX+KUd0Wlog1BjYrmmbzzwGrjUjEKiuKWBfmWkddp46u+7d9hdN+wkhZVZzQT1CVBVMfMMdroD3JZ41L7EIIIeJrriR9u2jYkEZ1yxiJ0LjKY2ebA4fDgcNxmOza3ECSFQqKy2g9ez7i7JbGA5QVz8XJIoafo20n1D7bQFeUYyOfcfRxB8crM258+HOEz+ejubmZL37xiyxZsgQAp9NJd3c3ixYtYmBggO9973t4PB5KSkpYsmQJLS3xTMXHe0xkp357O3U1hVPYdyPjvBFtzFRfjBAxxp2qZiqK9lPepKOfqCK2W83h/opLn8TbVPpYCCFErK4PXEcpAzZbEn++4VFOnDxFgs1GT083mRmZcW3L49XpH/JMmHwNbv1DHlweX1xjmI+mnYRVGAIJUzNJSWncviwbX9edGN/5DKZzd2HsvBOTfTnmrmWY/rgU6yfpLLh2PwnuT/uTrRgAY6gCVgtWwoYSssHq2FgqYYUQQggxNRlUHndQVwAFdTcyKVhAXdtO8g40+itcM1cNfw9AC40HypiTOdgwGZU1lLUe5dWouesRzygiXLx4ke7uboqLi0P7PB4PV65cobe3F13XSU5Opra2lv7+fvLz8zlz5swsRjwBeyOHcrZFJr9i3XezmXd9sY7sFbPY/Lzrr6mY5T4WQogZ0traOqVj8XLx4gccOnSIZ555hvT027h0+SILUlPp6enmc7mfJzk5Oa7t+ZOwvnETr0CoaLB/yIfLI2s9xaESVkNpNlxuI5rhLhSfwvDuUkzn7/AnXt9Px9KbgNmlY2MQK0NYcbFoYCHp/YsDSVxTRAVsKBEbrIbVrKBirYSNxv9X6oqKfJSq4LmK8Ff3R/wF215PfvCgvZ780D+g4CtIwfObqVBF7Ock1SvU8OtA41zjb7+IoildN4lXoMLulV8fXnI+mdhH99Gk4xBCiPnsfAMbor0q3jW8Py30ary/mrW6ekNgn7+qNPiqeagActS1LVSnlXCAVmpz00irbqGrYUPEa+rDr+GPfN19xPQJDdXRX23vCn+OhjGqbse7fzz6YwIZj7Ix7wCNLSO+B2hp5EBZ8QSLpo3fBy3VI/szFHz039N4zztVI59LhLz33nuYTCaWLRteNELXdfr6+nA4HPT29uJwOEhNTaW2tpaEhAQuXrwYp9ZHjol+SH2+Ij84MGyuCHtt2k59/ohxUsRxP3vjIXIej6xQjHVfKKqKsA8xoekKYhk/2seJfx71RdSxrL/NiDfwQ22Gj+cD3zeH38M+wb0jnz0/ptLWudBfsfYJUT9rNMf6mSjqs9+IPhZCiPnh6tWr7NmzhyNHjow6duTIEfbs2cPVq1dnrP3ftJ3h7+r+jn/44Q955qtPs3TJUooeLeSxxx4jP/9BkpKS4treD1qu8bq9l99dNvCtH7/Lf3/5Av/tH7uoPnieqgN2qg7Y2fyjTv7yH86x+UedbP5RJ7+7bOB3F3r5Qcu1uMYy38ShEtYYOZerZsPYvQDLFRsWlw8bQ1gYwqYPYdGHsODEigszLtJcBpJcRkw+46gKWE0bOT9srJWwgYFQRDLTv789+yC6vo+/fryc/ccCR5qP0b4ODjUGhkiNh/D/ebaZihWHKA2+7t8E2yMGC4Xs05soD04JsK9wgmuC7TfRNKXr9jF6mB7tWZupWFFNTpP/Xgc5xP5R140V+/B1emcd7UXhr1eNF4cQQtxsWqndDXsdDhz+98yHE565R9kYfI38MOwOJeha6Vi1F4ejjoKWF6jNPhx61byuYKxrM6lzHKYs+Gp6XQEZlcdDr7CXUcbhulhKQFupPVscuG8ZrbUvDCdDc2vJPuxvcy9HOTAb/TGptjJ4dGMeHXb/fWKfimCsPvBX9ob69MDuQOxdNGzI5ejGthG/pxHPO+JeY+lq2M2BvI08GnMBcSDxHi0BfItxuVxYLBY0bXhY6na76e/vp6enhw8++IDz58/z5ptv0tfXF8cELIweE/1nqk40kVO9m2aaqSiCpuBr0827qc5pmmAaqGZ2V+cQmTOLdV9YVPuC0001Ub5/O/X2WMedjB3/vOmLscayWVRtCxvDA83H9lO+LdrznaR6OxwMjGmp3jScoI1678hnPxFTielc6K9Y+yT6Z43CmD4TjeVG9LEQQswPKSkpvPjiixw9ejQiEXvkyBGOHj3Kiy++SEpKStzbdbmc/OzIz3jppZc488YZNpV9jZKSUlJSUiPGVfE2RCIP3ruMgjV3cdenF43a7vzUQu781MKIfQVr7mL9fbeDMb4J4fkmLnPCaiMW1TLjxqIPYWUIM/7EqwWXfz8uzLobK27Myo1R11k45CF90BeRdPVXwNpCSdnYFuaCyHlSwxOG6ygtDvxnvyKbde3nsAPNx9op3VYKhxqxY6fxEP7z7OdoD09yFu3nZEfn+E2Pe01Y+/G6Ltqz2s/Rvq6O4BRRWVXbKJ+wz4IxlA8P8rKq2FZ+kuFHHi8OIYS42eSxc28lGQAZldSUtXL2PNBlpyM8eVZyIGz+0jw2BjNwmavIO1AyomJ0vGtHa6kugcOxJjDz2Lk5cGZBMWV0YO8KtJm3k+ChjMoayibRCxH3n05/xNjGqsBUVRmPboSjr9JFF/aO4f0TxhitD8C/sFdaGmlpJcNJ6K5XOdpaRk3UaRfCnnfkvSIMP3tubTaHjweuieEZR84JG1Ou/SaVmJjIwMAAbrc7tM9gMKCUwufz4fF4cLlcmM1mHnvsMVavXk1iYuIMRlTIviYoUkXQFDaWXJHNuv1FkRV8hfsi57ZsPkZ7XU3kH6xj3RdxPLB4kSqK8sf0gDHHj2PEPyWz0BfjjWULH6d8/7FQ4cGx9uHzIq2j7mAglvAx7VTHyTGbhf6KpU/G+rcS02eiaG/rwez1sRBCzE0jE7EznYDtvdLLwZcP8sYbb6CUxtc2fY2nv/IMyUnxnXYgGp8y0TtgpnfAwlWXNerW57TgGDJzZdBE74CJ3kErVwYtDHiMMx7fXBaH1Lhh1KJaJtxYcGIOVL1adH/lqz8R68GMGzNezHgxoGNAZ5lziIyhAYzKEpHQ1dQMzAmbVUwph2i0N3OsvZTiwmJK6aDT3sghShnONZbTpA8vfKXHtMrXVK6ZznVCCCEmJ5NVeSN2ddnpIJusqBm0Luwd4T+XcdgxnDxzRMueZVRy3OFgL8+OqHKM4VqAlmpKODxHE3NT6I8Jb/kqR1vD+j/jUTZylFdbXuUok6kujXbvBjaUEIixjZ0jf/fTEp5InSBhPvIZRUhGRgY+n4/z54f/KGGxWDCZTGiahqZppKSk8PTTT/Pggw/S0dHB8uXLb3ygWVWc0HUOsmnEtE1B/sWSIv9oHeu+8MP15BcRGBd2UrduvKBmafx4o/pilEJq6trZXm/HXr+d9tLiGKp87Zxrj/H2M2VG+yvWPonybyWWz0SB2EcXuETGP+t9LIQQc0B4InYmE7AXLlzglR+/ArpGamoqDz30AF956mlstoS4txXNoiQji9OMLE41siQtclucaghtwZ8TrIolaWbSU40sTJIk7LQoZRi1qJYJL2acWHBj1t2BpKvHvykPZuXFqLyYzEaUyYBms6KlJnNbgpHVhkESDKYRi3JZgenMCTtSFsWlcGhTcKCSRXFpO8d2d0Bw4JK1khz2j5iCYKLbTuGa6Vw31r1OVrM7NFXY9rErKKLEEHqbyV7P9v3lY74mJ4QQ81cGWdmtESvZt7xQS2vEvKOtHA2usBSomCwuADKyyOZA2Cv3E7RUeZy2nYFX62O+tgV/EWx4Si+TVXmB6lPwz5MaUwBZZLfW8kIgCdzVsHuM6ya6f3z6I7rglAnhScwMHt0ItSW1sPHRCapLJ3D+LK15q8gMxR5swj9H6/Rij1W0ZxRB6enpZGZm0tw8nJnyer24XC4AEhIS+Ku/+iv6+vrYsWMHr7/+Og888MAMRhR4lVxvgqLRc+FnVZ2gs24d7efskfN6xmtRpc4OTq7LZkXw3JNjnDfm+HH8+CdnFvpigrFsVnEpHNrN7kM5bBuzE0+GXqv392FgTDvVcXLMZuffzoR9Mua/lRg+E41ptvpYCCHmtmAidqYSsKdPn+THr7yMrut43C5WrsziPz35FaxWa9zbGsuCRCOL0wwsXqCxZIEh6rY4TWNRCtissOQ2M4vTNNLTNBYkSxJ2mgwRyVJN2TApXyDx6sasPJiUBxMeTJoPk8mAIcmKIS0FLTURZTahzGa05GRITMKSZGNliovbLMp/Ty1QZasMMcYTPk/q2JO+ZxWXwklCf0nOKi6lfX/4X5YL2ddZB9UrRiyMEK6Qx8vDF0iI5ZrpXBfLsxayr6mc/UX+fZsoHeMVoOgxtAeuUysOUdop878KIW5OBXVt7KSW3MB8nCUdO2mLSHrmkX3WX8WaFpE8869yT23uGAs9BbQMLxCVW5sdeOV9rGsLKC4bXpirpbqEAxygJHjOhga6yKCypowDJYF9jcQ4rUABdYeHr3uWjWNcN9H9p9kfo4TPh7qbVW2jX8fPeHQjeZOe0iCKgs3Dv+tnz5IdqoTNoPL4YbLDYo/vvKwTP6MY9uUvf5lf/epXnD59GgCn04nb7cZms/Gd73yH5cuX8+GHH3Lp0iWSkpJIT0+PY+vhY6IfUp9fFHjd219hWBRMlIWmCFCsqB6d7IrHglz+cGqoo5oVSqE2dZATqoSNZfw4Tvzzpi8mGMtmFVPKfvbnPD7OOHUdOR2bAmPaanJCUwPEOk6O1VzoL2Lok7E/a0z8mWgsN6qPhRBi/klJSZmRBOzb7W+RmJTEXXfdSXdPN8uX38HGx7+MyRTHN8djkGgzkmhTJNk0TAYvZqMXs9GH2ejDYvJhNetYzTq6pkhONJNk00iyaSTbNJIst3YSVjkcDn28E15oOMDmyjJSU1NHHfN6fDy2eDvvL7+KUiaUMqOUiYyrVlI8Gho+NE1DmUxgMqGZTGAMfjWjjEae+i/76en+NC0tz4DBjG4wgWYCzUyvK5GPr6XgAxI+7OT/fdbB2i9lc/vtt89UfwghhJimvr6+0P8d8dDT08OiRYsmPC+ebd60uhrYkHuWmkkvliXE9L322musWbMm6jFd1/n+97/PW2+9xTe+8Q2amppYsGABmzdvxmDw/yF+27ZtnDt3jszMTIqKiqJWw545c4aHH354zBh27drFjh074vNAEZqpyD9HTcQiWLHumw3NVKhjPD4jC67Odl80U6G2k915Yuxq4ynd82btr6mYiT4WQohby9atW9myZcuYx6ONm06dPsGaz+Xxy3//N4xGAw89+GcopaYcw0TjprHi+NcPbsOWZMHrGzedGNXgdReP3NE76TiCUlNTaWtrm3S7QZmZmTF/boz1c2gsjh8/TmZmJnFIQRvQlBUCCVilTBgNGiaDAUwWlNGIMplRRn8iVhmNKIMZ3WjyJ1wNJnSTBd2ajK6MoJnRNRM+ZSLFZMRkdvKh48Zm9YUQQoibUcsLtbTm7SSmda6EuIGUUmzevJm6ujp27drFPffcw3333cc777zD3Xffjdfr5eOPP6ayspL169dP6wPHzChk34koFZ0x7bvZSF9MjvSXEEKI2GRlruD06ydZunQpq1d9Fo/Hg9frRdf9ydDg2w7BOfWD38fbQt8FzrRdwefzTeo6TdNYfXsysDDuMc0X00/CKgNKCy6cFaiGTdRQhkDC1ej/qhsDCVeDv8o1lIA1GNENZrymBHRM6Mq/+XQNHxrKqEhPg2uXpv+wQgghxK2li4YNudQG50GljMOOyunNsSrEDLFYLGzZsoXTp0/T2NjISy+9xMKFC9m7dy9KKfbu3TsjHySEEEIIIeaD9PTFLFy4CJ/PF0rA+ny+iCRsMAFrMBhC46Z4j5/uXZ7KvctHvy1/o2Rmzt+SkmknYRWGUAWsUmZQJrCYUGYjymACgxGfwV/96p9uwOhPtGomdGXGYPKBZsCtkgJJWA2vT+HTNbyA7lN4vQqjSQbdQgghxORkUHncQeVshyFEjJRSrF27lrVr10bsl+RrvBWyT79Zqypn4tlu5v6aCukPIYSYLcEkq9F4a8+tOl9Nf0SrDIFFuYYX5uo32sCWgG6zoVsT0C2JeM2JeE02vIYEPMZEPIZEvMYEslefYs19/4wHCy6fkSGPhtOjMeRWDLk0BoYUA05wuydX5iyEEEIIIYQQQgghhBBzQXwqYTXr8MJcmPjEbSFFGUk0mUELVr6a/V/xb1/90nNkrzwBOqQk97Cz5j/w2umnOXJ8M14veH0Kj1fH4wGfDxIkByuEEEIIMa+dOXNmtkNg69atsx2CEEIIIcSE5sK4CeZOHDeDGViYyz8lwYU+MwsSTCxItmAyGtEx4sOMjgkfZt658AXa/vAIv/3DF/HqPu5Z8e9cH0xkYAg8bvDpk19lTQghhBBCzE2xrno7k8ZbhVgIIYQQYq6YC+MmmDtx3CymlYTVDBoLki18rNlQmCISsUqZ6Bsyc9VpwmQ0Vr/n0QAAIABJREFUYjZZMJlMGAz+JO2rJ57Epys8XvB4dP7vySLGK3Y1DvSR+mnrdMIVQgghhBBCCCGEEEKIG25aSVil4L/+7ef53z94k4F+3/BOwjcAhYr4eXIMRp17vpTIbXcuwGQyTSdkIYQQQgghhBBCCCGEuKGmPR1B/hP3suS+BK5duxaPeMaVnJzMwoULZ7wdIYQQQgghhBBCCCGEiJdpJ2E1TWPlypXouo4+w/O4apo2o/cXQgghhBAz47XXXrsh7Yw3d9muXbtuSAxCCCGEEBMZb676uTBumktx3CzisDCXn1IKpaY23YAQQgghhLj5rVmzZkbvH8vqvTt27JjRGIQQQgghJrJ169YJz5kL46a5FMfNQEpLhRBCCCGEEEIIIYQQYgbFrRJWCCGEEEKIeBgaGqKrq4uhoSHS09NZtmyZvHElhBBCCBGjTz7p4Y/vv09iYgKL05eQlpYW9zY8Hg/9/f0xnZuUlITRKClI6QEhhBBCCDEnDAwM8JOf/ISWlhbcbndo/+LFi3nyySdZv369JGOFEEIIIcbhdrvp6+ujqLCIxuZf4HA4yPv8n8a9nUuXLnHf/fejAKVpaIFpSkeO1ZRSvP766yxfvjzuMcw3koQVQghxa2qpJm33Ktr2wrO5Z6lx1FEw2zEJcQvr6enh29/+NgMDA9xzzz08/PDD5OTkcPnyZX7+85+zZ88e3n77bb75zW/KYq1CCCGEEGN46+03WblyFdcHrrMkfQm3374s7m388ryB8+8auT9XoSAiARtMwsofzkeTJKwQQohbU0EdjkDW9bhjdkMR4lbndrt57rnn8Hg87Ny5k1deeYVTp07hdDpZv3493/rWt1i3bh3PP/886enpPPXUU7MdshBCCCHEnOPz+RgYHOTChQukp6dzfWAA8L9tlJCQELd2Pu5XpKWY0TTNn4TVtHETsMfPGrlzyMAjK71xi2E+mnYZwdXuQf65vo1/+utfcvjbv+Znf3OSn3771/zTX/+Sn/3Nybhsx3a8zsWOT+LxvEIIIW55LVSnbaCha6x90Y7fyuLdHy1Up6WRFrZtCLt5S3Xkz4GdpFW3BK6tpmXCe46It6U67Fi06+Mp1v4aL+bx+2ji4/NPY2Mjly5d4rvf/S5Lly7F6XRy77330tHRwcsvvwzA2rVreeKJJzhy5AiXL1+e5Ygn0FyBqmiexL5mKlQ+9fYbFiAVqoLmiU+MQ1OT7YtRN5i4b+z15Mel/+ZTv8TSxHBFUv6UOmdE3zdX+O+XX4991HnzrN/i9m9mumLtYyGEiM2HH17EOTTEL5qaaW9v5/r1fn7f0c65znNxbcft1ekf9KIpFZGAHWszWwy8d0UqY6ddCbv9Lw7y6h//EXfyVT7z6bt4//wlhjwD3L1mFfbfvodS4+R5lREwoTCilAmljKBMkd9jROlmlj2/jO3Hn+Du3NXyCpoQQoibSAvVabtZ1XacyozZjKOLhg25nK1xUNyYxu5VbRyfsYDy2Bl63haq03JJO3sYR10BBcVllDSeB4bbbmk8QFlxHYybPh2+Z1fDBnKfbeDR45VkdDWwoQQOOxz+6Sa6GmhogYI5MffEGDGPODayj0ZeO9/5fD6am5v54he/yJIlSwBwOp10d3ezaNEirly5wve+9z22bNlCSUkJv/71r2lpaeGrX/1qnCJopkJtJ7vzBFVZ8bifnfrt7dQd3DeJfbGkr+Id541oYyp9MQVZVZzQq6YT6ATmYb/Y6zn3uI6+D/zxb6K+eDrxN1NRtJ/yJp19hZO4Zq7224z/m5mKqfSxEEIMuz5wHaUM2GxJ/PmGRzlx8hRfyFvD5Y8uk3v/mri25fHq9A95oiZcYXQlbP+QB2XwxTWG+Wha2Uyvx8ebv/8t16yXUUYdt2GQPv1jnIZ+rDYLg6Y+Bk2OKNtVhsyDOM1OXBYnTqs7sHlxWbw4LV6cFh2XRcdlVbgS4ErSAGdPXaSnpydezy6EEEKIkAwqjzuoK4CCOscMJmBHKqCubSd5Bxr9KdbMVcPfA9BC44EyiieRNM2orKGs9SivdgHnz9Kat4rM4YNUzokEbKSImEcZ0Uc3mYsXL9Ld3U1xcXFon8fj4cqVK/T29qLrOsnJydTW1tLf309+fj5nzpyZxYgnYG/kUM62yKRTrPtuNtIX0d2IfsmqoiqUyFtB9ropRxtmHdkr4nGfKbol/j3Nch8LIaastbV1Ssfi5eLFDzh06BDPPPMM6em3cenyRRakptLT083ncj9PcnJyXNvzJ2F941a/Aui6jq77z3V59LjGMB/FraRUKUVOTg4ejwe3242uR+9cpUwozYrSbChlRSkbWuCrUlaUZkXTbIHjw+coTAARK+UKIYQQM+Z8Axv+f/bePSiu6873/ezdD2hAgCwhKbGtsaGRHIJ9HMbhHMP4MXFAA8xxiTiQh5OIOvdeEHFG9IwLVxFTN5UEhRqTSRppHARnkqA4mXsGnQiOE+gSHU8mSYFlrDCJwzARtJAdW/JDMmpkQDx73z/6Dd3QiEaA9PtU7aJ77fX4rd/aFN1ffuu3Qm31HvGX+7e2u7egWyz5nrIRmvL9W8Ut9nBt7ViSS2ilj5qsZJItdkaa8oO2mfu34S/crr4gfUKTJfTW9JHAeTSF2Sq/VP/R8McypO6jOLuVTvuC1wD2TlrLiq7/0LS8Isr6aji45Hb9pX1otyxcDy9h1hnC++t6WeiXm4g33ngDg8HAHXf4D43QNI2xsTGcTiejo6M4nU6SkpKoqakhLi6OCxcuRGl0GxVKIS30YklXUCq+T2NuwNZtW0XAtmAHjbn+LxbuLAIVi7YNOzrbyNwfHMYWaZnPqoBt5P50BYF2eiJnHY3k+r7sVGDz2Bja/k3ki4B55TZ6t0+6xwzaYe4bM3BLt+e1LbAPR1AfQXZvGr+sZl7DDPZmsse8XD/hfB/sg8hSG2wEv0X6zBDid8n9e+hvG6J+2AfoRvlYEISNwtWrVzl69CgnT55cdO/kyZMcPXqUq1evrtn4v+0/w3et3+UH3/8+X/jik+zauYvCfQU8/vjj5OY+TEJCQlTH+479A15xjPK7d3Q8/ePX+bsXzvO3PxrBcvwcVa0OqlodHPrhMH/zgyEO/XCYQz8c5nfv6Pjd+VG+Y/8gqrZsNqIiwo6PjzM/P8+lS5eoqqpi69atvPnmmwtq6TyCaiyqT3A1+QRZvxBr8guzakAdxRgNUwVBEAQhAvqoaYBjTifO/nqoOegXPLPaKe534nQ6cZ6ABp/A1sfg3mM4nVby7EeoyTjhruN0R5eGbpuG1XmCMrKp73fitOaRWtntaXeCMso4YY1Efuyj5myRp98y+mqO+MXQrBoyTrjHPEY7revhjxWNlcq+4mwGHe5+3KkIVtbDSFMDrdnF7EsFyMPq7Ke4PWuxULpwjiF96I4M9q1Ja4Nn7u70De3F/QvW2dOX118L+orM5kjwCPehBOBNxszMDDExMUHppmZnZxkfH+fy5cu89dZbnDt3jt///veMjY1FUYAFKKBZ66KcHKzDGlrz/0VVTxeZlgZs2KgohK6eKtzaVQOWzC5fREfo7cI2GiyZBGtCkZYFWNWsecbporyljkbHQjsLABsV6W2UDnvqdkFdI+Ht3zS+sFGRbiGzy933cdpoAcBMVW05LR1+4cvW0UJ5baj59WKpg+OahjZsBcsBt3gWkd0b1S/XPy9bRSED1moKlusnrO+DfdATUYjpRvBbpM9MqN8lBwX7A9raOhjIgbZOj2zc2cbSIas3wseCIGwUEhMTef7552lvbw8SYk+ePEl7ezvPP/88iYmJUR93Zmaan578Kd/73vc48+oZDpR9iZKSUhITk9Y0jecU8Tx83x3kPXA3d394+6Lrrg9t464PbQsqy3vgbh69/3bQR1cQ3myselVmtCkAdDodo6OjnDlzhi9/+cuMj48DEB8fz7ZtO9m+fZdHUDUFC7EBgqwaFCG7sI5htaYKgiAIQoRkU3/Mk5sztZLqsj7OngNGHAwGil8lrfSdPedrU+xV0NL2kt1asiBidKm2i7FbSuBEpAJmNvWHPDXziihjEMeIZ8zsery3UiurKVuBF4L6X40/IhxjrydnQOq+Ymg/xQgjOAb95UvjtyOrJoMTvtyq4E214OyvZ7AknGAZxocQcLBXiV/EHjlFe18Z1SHTNgT4a2FfEdsc2ka/LzzC/SIBePMRHx/P5ORk0G4nnU6Hoii4XC7m5uaYmZnBaDTy+OOPc8899xAfH7+GFhXQ3AWFSiF0NfuFq/QMcloKgyPUCprRAkVOW8cCsWsFZUH3PYfzKIUegSYEjiEGvFGGioJS2ELv4HB4+6+LdfCFY4iBHCvVngJzVS3lvjH2U97S4cmga6NjwF8vmBysxz22mKuoLe9lcDiM3dfFej0jK52XOxK0LmN4gagXpp+lfB8V1sFvkTwz4X6X0jPIGRjCAdg6BiitLYW2Thw46GyD0iJzyAhaN+vlY0EQ1ouFQuxaC7CjV0Y5/sJxXn31VRRF5UsHvsSTn/8CWxKim3YgFC7FwOikkdHJGK7OxIa8xqZjcE4ZuXLNwOikgdFrsVy5FsPk3KqPptrUrFqEVRV3KgKDwYCqqrz11lvY7XYyMzNJTU0lNTWVu+++k6SkRE+0qz+6VVUXCLEBKQl8dTxlSCSsIAiCEBXS2Ju9oGjEwSAZmEMqYCM4BgPfl3HC6Re/nKHUr9RKup1OjnFwQZRiBG0B7BZKOLFBhbXr8MeyXZ6ivS/A/6n7KKadU/ZTtBNpdGigKBlGvE6t5Fh9Nq0r2dMfcLCX09lP/cJnZ1VEYLPPjgU+uolITU3F5XJx7pz/nxIxMTG+z5aqqpKYmMiTTz7Jww8/zODgILt3777xhpqr6NE0jnMgzJZv92FApUXm6ygLvN1IbiF0aRqaNox1yVye5Z56nutGneZzo3yxiAKqrQPUNTpwNNYxUFoUQZSvg6GBSO1eJTfUL8vNy0Fj7gE4vlxUZUA/68Wa+i3SZybE75K5iFLa6HTY6BgopaigiFIGGXZ00kYpRWa/7e524f7psQF8LAjCDSFQiF1LAfb8+fP85Mc/AU0lKSmJRx55iM9/7klMpriojxWK7Ql6diTr2ZGkZ2dy8LUjSee7vO/jYhV2JhtJSdKzLeHWFGGdTiff/OY3Vy/C6oklNjaWq1evMjExwcTEBBcvXuTDH07kK1/5CH/xF/8NTdN479K1kIKrGpCSwB39uqCOT6yVSFhBEAQhGqRizuij5mATvkDHIzX0BeUd7aPde0KSJ+KxKA9INZNBa8CW+2VGquymv96ztT7itnbcQbCBklwae7M90afgzpMakQFmMvpqOOLRHEeaGsK0W67/6PgjNN6UCYEiZCr7iqGmpAaK9y0THbpc900BuW1HONXeR3ZkobVuAg/2GjlFu/dcBU+O1tXNPVJC+ejmISUlhbS0NGw2v/IyPz/PzMwMAHFxcXz1q19lbGyMw4cP88orr/DQQw+toUWerdJaFxQGRra5MVf1MGzNYWDIEZy3MlqHBg0P0puTQbq3bm+YeuY9ZNJC3aLox6XtXxnr4AvzHjJ7LTT40t7WBUUDm4tKoa2BhrZMasM6sde3bdztw/KgLetBdl8X6/WMrGBetgYsYZ+zMP0s4/vVsz5+W/aZCfu7ZKaoFNoOeMVbM0WlA3Q0DMKy/wBYLx8LgrDeeIXYtRJgT5/u5cc/eQFN05ibnWHPHjOf/czniY2NjfpY4dgar2dHso4dW1V2btWFvHYkq2xPBFMs7LzNyI5klZRkla1bbk0R9sUXX6SgoCA6OWH1ej0zMzO8++67TExM8OlPZ/PNb7azf/8/8uQXj2OIdXLtmi5EyoEFqQnUgLQEC6NjRYQVBEEQokSetZ96asjy5NMsGaynP0j0zCbjrDuKNTlI/HKfUk9NVpiDmjzY/Qc8ZdVkeLash2ubR1GZ/2Auu6WEVlop8dbJb2KEVCqry2gt8ZR1EmFagTysJ/ztDlIcpt1y/a/SH4sIzGfawN7+xdvpU/cVk71USgO7xeOb5Vxg5qxvrCxqMk7QHTKFQLj2h/zPysGzZPgiYVOp7D5BRsDco5uXdXkf3Uw88cQT/OY3v+H06dMATE9PMzs7i8lk4utf/zq7d+/m7bff5uLFiyQkJJCSkhLF0QvYXx54eJA3f6Y7gq7QKwT5UgQopFsWiznROJDLbU41ViykKwrKgUEyfZGwgXbagAKah61gSQ84xGsJ+zeNLwpo7iqnpdDd/wFKg7drm4sopYWWzP1LpFrIIXPQHVWppFvI9G59X8buje2Xlc3LMTQALYVBp1T7t/uH6Wc536+YDeK3ZZ+ZUL9LNk/TUujFF11rLiploCWS6O0b5WNBEDYiiYmJayLA/mHgNeITErj77ru4dPkSu3ffSfH+JzAYbqxeFm/SE29SSDCpGHTzGPXzGPUujHoXMQYXsUaNWKOGpipsiTeSYFJJMKlsMakkxNyaIuz58+e5fPkyitPp1JaqeKSplUOVZSQlJS26Nz/nonBrJY4dvwAUEhIS0esVTpyM41rMEG9cSeb19xMZvrCF3v8vkQ+GDSiK0S2oen4qeH4GlgXWwX0v6f05Dlbt5sFPZXD77bevlV8EQRCEVTI2Nub72xENLl++zPbt25etF80xb1pGmsjPOkv1ig/L2njYLcl0Ft3cwuTNxksvvcQDDzwQ8p6maXz729/mtdde46mnnqKrq4utW7dy6NAhdDodALW1tQwNDZGWlkZhYWHIaNgzZ87w2GOPhbXhueee4/Dhw9GZUBA2KnKHqA46BCvSsvXARoXSwf6w26dX2fe6+sJGhVJHxnBP+GjjJdtuVL+sZl5r0c/CPjeq39aDtfCxIAg3G88++yzPPPNM2PuhPje9fLqHB/48m1/9+t/Q63U88vBfoijKdduw3OemcHb88q3bMCXEMO9aUk4MybWJGT555+iK7fCSlJTE2NjYiscNJNLvjZF+D42Ehx56iMbGRqIiQSuKHhQj09PTmExbsL+exOvj9/P6+1s4924MM2NbUO6KxzjvYv5PH4AWRnTF/3qhWIsyFZkxtgqUQu+mjnK61uTDQESGbJA/vtdjx0axXRAEQYgm9iM19GXXs4LN+BsUO52tZRRZ19sOIVooisKhQ4ewWq0899xz3Hvvvdx///388Y9/5KMf/Sjz8/O89957VFZW8uijj67qC8faUEBzT4iIzojKbjbEF6ERv1wf4jdBEAQv5rR0Tr/Sy65du7hn70eYm5tjfn4eTXOLod5ofm9Ofe/raLPNdZ4z/VdwuVwraqeqKvfcvgXYFnWbNjp79+7l1VdfjYIIq+hQFBOxsQmMjp7n4sU3+afufObU2+FqLLrxBAzj8SgfxKNOxoEBpmdfx6XMLRBi3cIrXgGWQCHWgEIEixtwkEGB532jDQqu6++xCJGCIAjCZmeEpvwsarx5TCnjhLNydTlWNwR5WJ0SAnuzERMTwzPPPMPp06fp7Ozke9/7Htu2bePYsWMoisKxY8fW5IuEIAiCIAjCZiAlZQfbtm3H5XL5BFiXyxUkwnoFWJ1O5/vcFO3PT/ftTuK+3Yt3ywvh+eu//mtOnjy5ehFWQefJ2WokISGZxKQ7cY3chX7uNpTxONSJeNQJE+qECWXGiE6bJ07ZyjXTBaZix0NGwKIEvjcARhRldnljAg8yADBXiYAqCIIg3MKkUtntpHK9zRCECFEUhQcffJAHH3wwqFzE12hTQLN2s0YNrmZuG9kv0bJtLea4kf22Hog/BEFYO7wiq15/a+ZW3azExcXxta99LQoHcykqimpiZlaPqrsbhQ+he30XhnN3Yhy5A8ObKcSMxmGc0TBxjVimiGWG7ZPbSBnfgR4TqmryHcoVdFCX52AuVY0Fxbi8LQX7Ke+1cCDoZEsHjbkKFYHHb/pO27RRoeTS2OhPBu9OWG+jQimkhcDDD8BW4U9s7y5z9+1Lch94iqeX4UZyFyXDxx2160uU7z0d1G1PRUUuivJZKsLavbB9YL3APgJOHV2RHUu18fjM10Xg+3D+XDxWbmPjgn4EQRAEQRAEQRAEQRAE4eYkCpGwel8krDeSVX9pKzHzJlRc6Jhy/9RcqLhQ0dChoeDCNKMj0Wni3UQd08aYMBGw7jJVmYjAmgKatWEac9NRLFDepdFcYKaqthylw0azJy+BraOF8loNMzagF8tgLZrW7Mkn24CtqplmrQsWpCMoaNbQmsGbqqCxuoeqni4GlQZsVfvpKIQuLTAZfC+WulKGNQ1zQN8F2KhIb6N0WKPHDNgqyG10UFDlbjOQMYymmcGWFNbuinQLmV0aPQW4xc30XBp9tgb0gY2O67TD18bRSG76ARqLIknNENqfBQtsdjTmkg5IOj9BEARBuHU4c+bMepvAs88+u94mCIIgCIIgLMtG+NwEG8eOm4Go5IRVVROBKQWMzBKjTaFTXCi40PmEVw0dLlQNdLhQFFBdkOac49IWA5fjTUGHcvlTE7jzwhJJXljMVPVoVDkayU1XqOjSaC7YT3lhB7bmAgqw0TFgpbrZWz8Ha7Vnu0jBfsqpY8gBBaHExqBDv3I8AmIBzV0dKEoh5V3agkPAcrAe94iygX0zxAC9tKQrWLxVy/f72pQWeVXfMHY7hhignFrvYOYqasstdAyDe7CAPlZhh6/Nov6XIow/GWIgx8rxAq/JtZRb6pbrTBAEQRCEm4RIT71dS5Y6hVgQBEEQBGGjsBE+N8HGseNmIQpJJHSoSiyqzp/L1ahOE6vq3AKspvCh29/j/376fzE5EYsCvovAn6qKIXGWr//PGt4ZvRNV1aEoehRFj0aMJzJ2OnKzzFUct7aR7okkrbbWcaDRQTp1DJQeX15LXEjQoV8OGnMPrLSHBZTTpTUvEG1tC+pEwe6o2OFgaADYjyAIgiAIgiAIgiAIgiAIK2TVOWEVRUdCgg5z2lXMqe+TdvfbJGT+CvV+G7q7+zFqsyRvucrZ3gQ6j+zi50d28bMju3jRc/0fz9Vh3cHIK7Hcu2WUOJ2BbVufJ+W2OrZv/Rqm2N8DEeSEtTUG5Bh10NnWS06G+5guc1EptDXQ0MaCKNEICTz0y9FJW69vUCoKoUvrgsKKRfJlSMx7yKSFuggSovrtzqTWmwvA077DO5ijkbqWcvavNP/7knb00tbpKXd00tbr7T+djJxeBoc91WwdtIRoHXKsXgsNNq/JdZG1EwRBEARBEARBEARBEIRNTlQiYVGNwOKcrSoaRmUOPfP86Y+38af/vG3Jnnam6TBuiWFP4gxv+2Jk8aQm0C1vSsEeBhXF37K8C80nXFZRm6lQSBdaRBpsAfvLCylMV7CUd6E1V2OtSyddsUBOOeU54D6Yq5AB6zDNmEm31pGe28hwT9UyEasFNA9byU1356712docoqq5iFIsWDK7aF7U3jvXHKzDPaz8DM6l7Mghc/AAitLrKfamWvDk2C1U3CJqeTnlkY7V5W+XY7VSTtuKLRYEQRAEQRAEQRAEQRCEzYbidDq1pSocaWrlUGUZSUlJi+7Nz7l4fEcdo/e8zYd2vbvovmHsNhJfz+CuzLeJ5T/5/b8uLcJ+/PEPGLvts1x85x7em/8uLq4CMDFVhu6ND/E/Djp58FMZ3H777SuZow9bhULHfo3mlauVQrRxNJKbPkjtolQIgiBsdsbGxnx/O6LB5cuX2b59+7L1ojmmIAjR56WXXroh4yyVu+y55567ITYIgiAIgiAsx1K56jfC56aNZIeXpKQkxsbGVjVWpN8bI/0eGgnd3d2kpaVFJxLWna91MYpeh5oYjxofB9eUkHUC0RQFTR+Hy5AALgU88rBOXVInjgxHI3UDVo6HijYVbji2Bgu9OVZ3egdBEARBEG4JHnjggTXtP5LTew8fPrymNgiCIAiCICzHs88+u2ydjfC5aSPZcTOwehFW0TEzexvvXYoDdKAY+LBLIU7VoVPiUbckQGwch+q7ufTOdkABZcGxXIr7qK6Une9QZ32KOTWOOOMXmdfm0QCj/s8YV69X6XbQmJuOpde9ZT/6B1sJkeFdB+/7crq05dI2CIIgCIIgCIIgCIIgCMLmZ9UirIIOl2sL16ZuQ1GMoBhQDQZi9XoUnQF0et54N4NDf/Mi6IxoOj0oBjTVgKYY0RQjLsXzGgOaojLvUnBxP/MKaC6FeZeC3vDBdVpopqpHo2q1ExVWiayDIAiCIAiRMTU1xcjICFNTU6SkpHDHHXegKMvvqhIEQRAEQRDg/fcv86c33yQ+Po4dKTtJTk6O+hhzc3OMj49HVDchIQG9Pgqb8Tc5UYmEVZRYz+FZBhTFyLjeQLLJ4BZcVbfg6lKNoOrRFAOaanT/9AqvmoF5TY9LU5jXwOURXuc1hfk5mHeBMuuKwnQFQRAEQRCEjcrk5CT//M//jN1uZ3Z21le+Y8cOPvOZz/Doo4+KGCsIgiAIgrAEs7OzjI2NUVhQSKft5zidTrI//l+jPs7Fixe5/2MfQwEUVUVVFBTPFYiiKLzyyivs3r076jZsNqISCauosT4BVsHA+7MxJCp64g0hhFfcl0sz4MKAphmDhVeXwvw8zLsU5uY15ubA5YI40WAFQRCEaGK3kNywl/5jcDDrLNVOK3nrbZMg3MJcvnyZr33ta0xOTnLvvffy2GOPkZmZyTvvvMOLL77I0aNH+cMf/sBXvvIVVFVdb3MFQRAEQRA2JK/94ffs2bOXickJdqbs5Pbb74j6GL86p+Pc63o+lqWgQJAA6xVh5R/ni4nKwVyqEguK0SfEohg4P2Zka5yBrVtiMOj1aOhx4Y58dWF0R7/O65hzKcy7NFzzCnMumJ+HuVlwaVE4jEsQBEEQwpFnxelRXbud62uKINzqzM7O8s1vfpO5uTnq6+v5yU9+wssvv8z09DSPPvooTz/9NDk5OfzDP/wDKSkpfO5zn1tvkwVBEAS96O26AAAgAElEQVRBEDYcLpeLyWvXOH/+PCkpKUxMTgLu3UZxcXFRG+e9cYXkRCOqqrpFWFVdUoDtPqvnrikdn9wzHzUbNiOrCiNQdSpbt8SgqCZUJRZFMXlSE7jfj02ZeONyDG9ciuEdZxxXJkx8MBXHxLSJiSkdk9MKk1MwMQkTE3DtGszMgCuE/qqfHCPpw7GrMVcQBEEQADuW5HyaRsKVhbov+BhpIn+F/rFbkkm22NfOppuSSJ9DO5bkZJIDrvyARnZL8HtPoWc97FiSLWyElens7OTixYt84xvfYNeuXUxPT3PfffcxODjICy+8AMCDDz7Ipz/9aU6ePMk777yzzhYvg60CpcK2gjIbFUoujY4bZiAVSgW25StGYaiV+iLqBmzgucq6L7vujkZyb5iPIliPG2qPIAjCynn77QtMT03x8y4bAwMDTEyM8x+DAwwND0V1nNl5jfFr86iKEiTAhruMMTreuCKRsasSYRUF/p+//zgPua6SdfUSWWMX+NjYG9zvdPBfrvyR/zL6B+57v5+PvPsq5rd6+LPzv+IOh507hru485yNPxvpIu2NLvZesPGRd7v4aJjrvvc7+e+fGue2u+IwGAzRmrsgCIIgbAA2meibWkm3s5vKVIjI9pEmGgbLKBts2ABzXImvN9O6ZFPf78TpdOJ0niCjJssneucVldF39lxQbXtnK2VFGyf5hsvlwmaz8YlPfIKdO3cCMD09zaVLl9i+fTuTk5N861vfYm5ujpKSEnbu3IndHk3pONpCmIPGugGs1QXXUXYj7bwRY6yVL6LBZpnrLb7u5ip6tB6qzNGybZVsNHsEQRACmJicQFF0mEwJ/FX+Pnp6XybOZOLy5UukpaZFday5eY3xqbllxVfvNT41x8yc5BlddTqC3E/fx8774/jggw+iYc+SbNmyhW3btq35OIIgCIIgRIeRU+1QfIxDHOTgqREq3eqtsGbkYe2vZzCrE7s1j7y0vWS3el4DYKeztYwi6zqbGcCFCxe4dOkSRUVFvrK5uTmuXLniy/26ZcsWampqqK2tJTc3l9OnT/PFL35xvUxeGkcnbZm19Jivo+xm41byxa001+UQXwiCcAvS19dHdnb2iu9FiwsX3qLbbueFH73AseYmhhwOtiYlcfnyJf486+MkJCREdTy3COsKKbiCOx2BpmlonlSj41MuYmIk7eiqTzVQVZU9e/aQlZXFxz72sTW99uzZg06ni8a8BUEQBGFpzjWRH2J7t3s7vnfrt3crtztq0mLJ95SN0JTv3x7u24m/qK0dS3IJrfRRk+Xesj/SlB+0tdy/bTwwKjNE+oQmS8jt6IFj5jc1hYnu9PRh99e12Amyxd+nd+zFti9mhFPtULwvldR9xdB+ipGAe8E+cr8P6sZuITm/iZHrsc++cP3C2Bu0Jt7xI6kbahv/0mthtyxc13C+CLgV7jlcitR9FGe30mlf8BrA3klrWdGGOoTujTfewGAwcMcd/kMjNE1jbGwMp9PJ6OgoTqeTpKQkampqiIuL48KFC1Ea3UaFUkgLvVjSFZSK79OYq5DrDQm0VaDkNuJ+56Ax1/8Fw72bPPC+G0dnG5n7gyP7Ii3zWVUR8GXGt2090E7P9m1HI7m+Lz0V2Dw2hrZ/8/hi8fxDjel+H7STPeL5bpy5Bll1y677Umu5IEp30dzdfvO3DVF/2XQH7v5yG71bdVdgjyAIAnD16lWOHj3KyZMnF907efIkR48e5erVq2s2/m/7z/Bd63f5wfe/zxe++CS7du6icF8Bjz/+OLm5D0ddgP2O/QNecYzyu3d0PP3j1/m7F87ztz8awXL8HFWtDqpaHRz64TB/84MhDv1wmEM/HOZ37+j43flRvmNf+wDOjUwUDuZyE6h4C4IgCMLmpo+ahmL6nU5SR5rIzzpI075uKlPtWLLaKe530p0K2C3kN42QV+luM7i3H6czFewWSjJO4OwOlLpCtU2j23kCkhvY2+/d4p+Hs9JTP7mTImseLJu1s4+as9U4nVa3cFlyBHullTzsWLJqyDjhpDvPLVpmAfXLzdluIbkkmcF6/3z8fXrJw7rI9gWMnKKdYo6lAuyjmIOcGql017UfoWaRj8pI7rRjzfPEbHa2UlbtJBX7Cu0LvX6L7Q32DyNN5Gfl09Qfrm6otV848XBrAXlWJ06rd20baDqUR2XqCE35WbQX9+PsDtFX0JwXrkEkpLKvOJt2xwjkpXpSEWygMFhgZmaGmJgYX9QruA/qGh8fZ3p6msnJSSYnJ5mYmMBoNEZRgAUooFnrAqWOjGHvFuMPM6g0YKvaT0chdGlVmAFsDVgyu9B6AoSkRdqOjQZLJvu16ykLsKpZQ2t216tQ6mis7glhp42K9DZKhzV3JKGtgtxG6OnpCm3/JvLF4vkXUDUcYkzKUTpsNBe4y2wdLZTXahHMd+PMNciqW3bdzVTVhlvLICU0xNwd9Owvp9Db1tbBQA4MdDqoqjLj6GyDjONh5m6jIt1CZpdGTwE4GnNJB6wR2yMIguAmMTGR559/nqeeegqAT33qU4BbgG1vb+f5558nMTEx6uPOzEzzs5//nK6uTs45znGg7EuUlJSyJWFL1McKZIp4Hr5vCzNzcySajIvue6NfvT8BUrYlo6o63r8ysaa2bXRWHQkrCIIgCDcf2dQfqyQVILWS6rI+zp4DRhwMeqMjk5NJLmkNyLeZTfE+j4iWtpfs1pIFEalLtV2M3VICJyIV3LKpP+SpmVdEGYM4RjxjZtfjvZVaWU1ZJHPOK6IscD6Bfa4AdyqCfe4+SWVfMdQc8QjKoXyUV0RZa6cvurhz0G/7yuwLs36LDHQwSBm+9KjL1o1k/cKsBbhF2eRkkpNLaPU7ifa+MqpDqtgL57ySNchmryf1lz8KeQTHoL98oxAfH8/k5CSzs7O+Mp1Oh6IouFwu5ubmmJmZwWg08vjjj3PPPfcQHx+/hhYV0NwFhUohdDXjk5vSM8hpKfRHCAIUNKP1BIhdtg4GrNUExftFWhZ0v8IT4FBIS7g6jiEGvNGLioJS2ELv4HB4+6+LdfJFqPmHHHM/5S0dHlnMRseAletPKyvr7mcdfBHJWoabe3oGOQNDOABbxwCltaXQ1okDB51tUFpkDhlBi2OIgRz/OOaqWspXYo8gCEIAXiG2vb2dkydPrrkAO3pllOMvHOfVV19FUVS+dOBLPPn5L6y5AAvgUgyMThoZnYzh6kxsyGtsOgbnlJEr1wyMThoYvRbLlWsxTM5FLRZ0UyIirCAIgnCLkcbehSmZRhwMkoE5ZLrSERyDge/LOOH0HoLkxGkNIZOmVtLtdHKMgwu2l0fQFtyRtJwg3O3NgZ0jNX301WT5ttln1fSBV2QN6aM8DtUP0tA0wkhTA4M+AXc1LFy/1RDh+oU0o4n8Ejzt+6lfy7RgI6do7wt4nlP3UUw7p+zuyOR9Gywtb2pqKi6Xi3Pn/KJ2TEwMBoMBVVVRVZXExESefPJJHn74YQYHB9m9e/eNN9RcRY+mcZwD/q3YQbgPGSotMl9HWeDtRnILoUvT0LRhrDlLGVXuqee5mm+QSrSWvgg3/5BjFlBtHaCu0YGjsY6B0qIIoz83yFyDurnF1z3itQwxd3MRpbTR6bDRMVBKUUERpQwy7OikjVKKzH7b3e0iEalvwLMlCMJNR6AQu5YC7Pnz5/nJj38CmkpSUhKPPPIQn//ck5hMcVEfKxTbE/TsSNazI0nPzuTga0eSznd538fFKuxMNpKSpGdbgoiwgiAIgnALkYo5o4+ag02+/KT2IzX0BeXJ7KP9lOeuJ1KxKA9INZNBKw0R5uZMreymvz6bQcfICtracQfBBgp8aezNDojQtHf6IymXNMBMRl8NR3wpTRsiaxcN7J20ZtfTHyhaOvupD8xPygIf4Y3aPMIRTy7Z6yPM+i3EsyadATl7G1qXrhvp2i/i3Fn6sveS5rPJ2687Z+t197sIb4qFwChqTxRySU1AZPLGISUlhbS0NGw2v6IzPz/PzMwMAHFxcXz1q19lbGyMw4cP88orr/DQQw+toUU2KgqhS+uCwopFm4/NVT0MW3MYGHIE58P0HDIUdGp6pGWBDA/Sm5NBurdub5h65j1k0kLdouSUS9u/MtbBF8vMP2hMwFxUCm0NNHgjHjfTXAO51dedwLXMpDaUo8LO3UxRKbQd8IqlZopKB+hoGISlxFPzHjJ7LTT4Uu3WBUUgL2uPIAhCCLxC7FoJsKdP9/Ljn7yApmnMzc6wZ4+Zz37m88TGxkZ9rHBsjdezI1nHjq0qO7fqQl47klW2J4IpFnbeZmRHskpKssrWLSLCCoIgCMItRZ61n3pqyPJEaJYM1tMfJHpmk3HWHaGZHCRouU+eJyC6M+SBVHZLQPRnhmerebi2eRSV+Q+AsltKaKWVEm+d/CZGSKWyuozWEk9ZJ0ukFQiaKdYT/nYHKY6wXaQE2x7kgs5WshcJfu78pK2d9jA+wp0SIKOV1ozq0HlmIyL8+gXb616TQa9fs9op7l+67rJrH9ZVh/zP3MGzZPgiYVOp7D5BRkC/K+nWTUCahOQG9vY7F0VRp+4rJjswhcMG44knnuA3v/kNp0+fBmB6eprZ2VlMJhNf//rX2b17N2+//TYXL14kISGBlJSUKI5ewP7ywEOJCj3bpN2RcIVegcm3VVwh3bJYlInGwUxuc6qxYiFdUVAODJLpi4gMtNMGFNA8bAVLesBhTkvYv1l8EW7+4cY0V1Gb2ULLUgLnRp1rJPO+VdYdPBGtLbRk7g8TqRpq7jZP01Lo9Qvx5qJSBlqWiDz29tdVTkuhu68DlPrTEURkjyAIQmgSExPXRID9w8BrxCckcPfdd3Hp8iV2776T4v1PYDAYoj7WUsSb9MSbFBJMKgbdPEb9PEa9C6PeRYzBRaxRI9aooakKW+KNJJhUEkwqW0wqCTG3tgirOJ3OMKnh3RxpauVQZRlJSUk3yiZBEARhEzM2Nub72xENLl++zPbt25etF80xb1pGmsjPOku1c6WHO91Y7JZkOosWC4kRtsay1GFhwrrx0ksv8cADD4S8p2ka3/72t3nttdd46qmn6OrqYuvWrRw6dAidTgdAbW0tQ0NDpKWlUVhYGDIa9syZMzz22GNhbXjuuec4fPhwdCYUhI2K3CGqA3NjRly2HtioUDrYH9G27Ovo+wb7wlah0LFfI/Su/JtrrqtDfCEIgrBRePbZZ3nmmWfC3g/1uenl0z088OfZ/OrX/4Zer+ORh/8SRVGu24blPjeFs+OXb92GKSGGedeScmJIrk3M8Mk7R1dsh5ekpCTGxsZWPG4gkX5vjPR7aCR0d3eTlpbGqiXoq5eu0fvP/8nY5Q9QVR2qoqJpLuZd8+h10VHjdQYdHy82c3vGtqj0JwiCIAi3IvYjNfRl17PBzmUKZqSJhsF6jlnX2xDhRqIoCocOHcJqtfLcc89x7733cv/99/PHP/6Rj370o8zPz/Pee+9RWVnJo48+uqovHGtDAc09C2WtSMtuNm6wLxyN1A1YOd68+q5Wjqy7H/GFIAjCWmNOS+f0K73s2rWLe/Z+hLm5Oebn59E0txjq3SXgzanvfR1ttrnOc6b/Ci6Xa0XtVFXlntu3ALeutrdqEbbuvx/n1J9+xOyWq/zZh+/mzXMXmZqb5KMP7MXx72+gKEssuKIHDCjoURQDiqIHxRD8Gj2KZuSOf7iDuu5P89Gse9bkIRIEQRCEm48RmvKzqPHmH6WME87KDZcT1I3X1mzq+7s3qI3CWhITE8MzzzzD6dOn6ezs5Hvf+x7btm3j2LFjKIrCsWPH5DOgEICDxtx0LL05WId7JKpSEARBuOlJSdnBtm3bcblcPgHW5XIFibBeAVan0/k+N0X789N9u5O4b7fslr8eViXCzs+5+P1//DsfpLyDSW9iVneNMe090EGsKYZrhrEwkQqqR2g1oiguUDQUxaPao4Kioig6FEXzKPlwZWaSsy9fYOfu7ezYsWM1ZguCIAjCLUIqld1OKtfbjIiIlq15WJ0bOdmCsBSKovDggw/y4IMPBpWL+BptCmjWNns0opmqHo2qZevdDHONFuILQRCEzY5XZNXrb+3cqpuVqH2iVRSFzMxM5ubmmJ2d9Snxi+sZUNRYFNWEosSiKCZUz09FiUVRY1FVk+e+v46CO7XB7OxstEwWBEEQBEEQBEEQBEEQBEFYc6IinY+PjxMTE8OlS5eoqqri+PHjvPnmmwtq6TzRr+4IWHyRsJ6fGCDwvWJYVEcQBEEQBEHYvJw5c2a9TeDZZ59dbxMEQRAEQRCWZSN8boKNY8fNwKpF2BltCgCdTsfo6Chnzpzhy1/+Mi0tLQDEx8cTG5uAougZvTLpFlQJI8QqHiGW0GKtIAiCIAiCsDmJ9NTbtWSpU4gFQRAEQRA2ChvhcxNsHDtuFlYtwqqeXK4GgwFVVXnrrbew2+1kZmZy6dIlEhISiImJ4cqVCZxOV4jo1gXvA6Jl3YKtuwyJhBUEQRAEQRAEQRAEQRAEYROy6pywemKJjY3l6tWrTExMMDExwcWLF/nwhxP5ylc+wl/8xX9D0zTeu3TNn9814Kc7/6s/R6y6sI43R6xEwgqCIAiCIAiCIAiCIAiCsAmJSk5YvV7PzMwM7777LtPT0zz55EMcOvS/iYu7xNvv3sO/v3Yn167pUNWYBSkHwkfAQnCaAkUJfdCXIAiCIAiCIAiCIAiCIAjCRiYqIiyA0RiD0WgiLi6O0s/9gfNXFd54Yw+vv5/AjqI5kq8m8sHwgtyvnnQD3gO7Fh/MFZgfdi5apgqCIAiCIAg3mJdeeumGjLNU7rLnnnvuhtggCIIgCIKwHEvlqt8In5s2kh03C1ERYRVFD4qR6elpTKYt2F9P4vXx+3n9/S2cezeGmbEtKHfFY5x3Mf+nD0ALI7oS5qAuxQDK1LJ22CoU6jKG6akyBxaidOxHay6IxlRDjUqFUkfGcA9V5sDXazTcUuPTSG56G6U3dHxBEARBEITIeOCBB9a0/0hO7z18+PCa2iAIgiAIgrAczz777LJ1NsLnpo1kx83A6kVYRYeimIiNTWB09DwXL77JP3XnM6feDldj0Y0nYBiPR/kgHnUyDgwwPfs6LmVugRAbmJYgOF0BigEF17KmFOwvp7BjGPArkLaOFsr3N696mtEhhEhrq0Cpy2D4OBxIH6RWa+a65WJzFT1aVZRsFQRBEARBEARBEARBEAQhGqxahFXQeQ7RMpKQkExi0p24Ru5CP3cbyngc6kQ86oQJdcKEMmNEp80Tp2zlmukCU7HjISNgCcoF680PO7u8MekZ5LR0YGsu8AiZNjpaytkwGmwoCprRPKprj6S9FQRBEARBYGpqipGREaampkhJSeGOO+5AUZT1NksQBEEQBGFT8P77l/nTm28SHx/HjpSdJCcnR32Mubk5xsfHI6qbkJCAXh+1jKibFnXVPSgqimpiZlaPqrsbhQ+he30XhnN3Yhy5A8ObKWybT2Jncgwf2qGxa4fCrh060hLuIN10Nzu3pZCSsp3tKdvYvn0bqmpCVUweYTcWRTGhqrGgGJe3xVxEaU4LHTbPe1sHLeX73YKso5FcRUFRFBSlAncVGxVKLhUVuSjKZ6nIVaiwBfRnq0DJbcSxqP2CeiFx0JgbWN9GhVJIC71Y0hUUTwe2Cn8dxdep267GxgrfvdxGR0DXfltyG4cCDXa3c4Sq1xhwb0G9oPcrGbtxQT+CIAiCIAjXz+TkJP/0T//EgQMHqK2tpa6ujqqqKiorK/nlL3+Jpsl/rAVBEARBEJZidnaWsbExCgsKGZ8YZ2j47JqMc/HiRVLT0khLS8Ocns6ePXvYu3cv99xzT9D1kY98hIsXL66JDZuNVYuwCnqfWKoosSiqCf2lrcRcMREz48LEFPfvm+KRz8eS/WmVewom+NgTBu57wsieR2f4+H/V8+jD8fxV3lYe/gvYtWsrihqLqgb0qZhQFUME1pgpKs1hYMitCrpTERQANirS2ygd1tA0Da0L6nzKYS8DGcfRtP9Fc205LR1+ddXW0UJ5bRVmbFSkW8js8rQftjJQuIz4aGvAktnlrq9pNBcU0Kx1UU4O1mHNl6O2oNnTp9ZFeUtdQJ+9WAb3e+wtp9fS4BeOA2w5ThstoQ2IsF4oVju2IAjCJsBuITm/iZGRJvKTLdjX2x5BuMW5fPky1dXV9PT0cO+991JdXc3x48f5+7//e9LT0zl69ChHjx7F5Vo+RZUgCIIgCMKtymt/+D0pO3YwMTnBzpSdZH/8v0Z9jF+d0/GLYb0veE8NCFr0lakqqqrKbqYAohAJq0NVTUFCrJFZYrQpYpnCyBQxMSZmZqaYmprEYDBy7do4ExNjuFzzqKrK7OwMU1MTGI0xnjQEJk8ErAlFNaGosRCRCAvmolJo68SBg6GBHDLSAccQA94IVEVBKWyhd3DY0yKH0iJPgtaC/ZS3dPgEx44BK9UF3vbl7PcmazVXUVvei6+LUKRnkNNSGBxFGgqbN+K0cIGgmYO1usBvFwMMOTy25HjsAsxVtZSH6jfSeiFZ5diCIAibgTwrzu5KUlMr6XZayVtvewThFmZ2dpZvfvObzM3NUV9fj8lk4uWXX+a3v/0t6enpPP3001RXV/PrX/+af/mXf1lvcwVBEARBEDYkLpeLyWvXOH/+PDMzM0xMTgLu3UbR5L1xheREo09oDby8AmygINt9Vs8vhnRRtWEzsnoR1pMTVvWIpYpqwsAsMUxjZJpYZthuAv3cGFv0syTopkkyzHFbLOxKjGVbLGw1zpOgTqHXPiD7gdf564I3KPqrczxRrEP1ibuRibCYiyiljU5bJ22UUuQ7o6ucLk3zRaZ6I1GDKaDaOkBdowNHYx0DpUUBR3ytEHMVPZrGcQ6ET1/gaCS3EI9dw1hzrncwQRAEIXLsWJLzaRoJVxbqvuBjpIn8FfrHbkkm2SKxxisj0ufQjiU5mWTfFdhm4b1k8oM6XO7+jaOzs5OLFy/yjW98g127djE9Pc19993H4OAgL7zwAgAPPvggn/70pzl58iTvvPPOutgZMbaKgDRTKyxbvvPgdFDef+jnNuJYlHJqrbFR4UvztdZDraVPIzLgJpmrPD8rLgvE0UjuhkjHttQ6CoJwK/P22xeYnpri5102BgYGmJgY5z8GBxgaHlq+8QqYndcYvzaPGkJwDXUZY3S8cUUiYlefjkDR+SJgvblcDcxjZJoYZjFqs+gTR/l130/5lfd69SS/evUk/9b3U37pvV753/z65ROcOfMiv/3ti/z2t/+HXTudvr4hgpywgDslAVgKLeAVUc17yKQlIAXBEq2LSqGtgYa2TGqrPBKsp70vU4GjkbqWgMjYpfqr6mHY6k+REMTwIL05GaQDODpp641kenvI7LXQYPOaUhc6JcCS9dLJyAmI5LV1RJZWINKxBUEQhBWwyUTf1Eq6nd1UpkJEto800TBYRtlgwwaY40p8vZnWJZv6fidOp5P+eqg52MRIiHtO5wkyarIWCOKB9510uxf2huJyubDZbHziE59g586dAExPT3Pp0iW2b9/O5OQk3/rWt5ibm6OkpISdO3dit0dT1I+28OSgsW7Av6toRWUrxUZFYQvlXRpaT1WEwQM3QmjbzD5dKZt5rvL8rNin5ip6tB6qrjtSZy24nnUUBOFmZGJyAkXRYTIl8Ff5++jpfZk4k4nLly+RlpoW1bHm5jXGp+aWFV+91/jUHDNzklIqCkeT6dwRsBhRFAOKYsSguDAyiw5QFdh+23Y++clPLtlLTEwMt99+e1CZqvuwu2/FiKJEHrZsLiolx4I/zQAFNA9byU1PR7F4isq70JpDNqYUC5bMLvy3ve0V3Lp9DtbhHpb8yGOrQCn0SpTldGlmwMz+8kIK0xUs5V1ozdVY69JJVyyQU055RJGwBTR3laMUKrQAOVYr5bStsJ6Zqlr/PcrLI0wrEOnYgiAIguBm5FQ7FB/jEAc5eGqEynUQ+W4lUiurKatp4NRIJYtdnYe1v57BrE7s1rwNk4LjwoULXLp0iaKiIl/Z3NwcV65cQVXd8QJbtmyhpqaG2tpacnNzOX36NF/84hfXy+SlcXTSlllLj/k6yq4LT/qtm5kb7tN1RJ6f6HNLPD+3wDoKwganr6+P7OzsFd+LFhcuvEW33c4LP3qBY81NDDkcbE1K4vLlS/x51sdJSEiI6nhuEdYVUnAFUBTFtxMdYHzKRUyMHLAavUhYTyoCRY1FjwujMo+BWQzqPO87L/OLX/xiyeu1114jIyMj6NoSH49OiV25maH+Q+lJDxCcjqCA5kX/yTRT1RMiXUFQ+8A2gX0EvC5o9o+lNfsEW99BXM0F/rE0Da2nmeaeEP0sGiO4756qqtDjL6xXBANksifEPa25OXwfK+lTEAThZuJcE/mhtmiP+MuTfQd6uaMmLZZ8T9kITfn+Ld6+wMNFbe1YkktopY+aLPeW/ZGm/KDt4e6oxYVRmSHSJzRZQm8pHwmcR1OY6E5PH3Z/XYudIFv8fXrHXmz7YkY41Q7F+1JJ3VcM7acCIjQX+sj9Pqgb7+Fp12OffeH6hbE3aE2840dSN9Rhbkuvhd2ycF3D+SLgVrjn8HpJ3UdxdiudGyg7xBtvvIHBYOCOO+7wlWmaxtjYGE6nk9HRUZxOJ0lJSdTU1BAXF8eFCxeiNLqNCqWQFu/ZARXfpzFX8ef0t1UEbO910Jjr/4JRYVt4342js43MBdulli/zRP7ZGsn19B90roAjsHwooI3f9lDnENgqAr4UuQ1eMF/bov4VpQKbZ66h/bBZfBpq/qHGdL8P2oEe8Xw3ylzl+YmuT5d6JhZE6S6au9tv/rYh6odNd7A26ygIwtpz9epVjh49ysmTJxfdO3nyJEePHuXq1atrNv5v+8/wXet3+cH3v88Xvvgku3buonBfAY8//ji5uQ9HXYD9jv0DXnGM8g6wWzAAACAASURBVLt3dDz949f5uxfO87c/GsFy/BxVrQ6qWh0c+uEwf/ODIQ79cJhDPxzmd+/o+N35Ub5j/yCqtmw2ohIJqyqxoHgjYQ3odSoGnQ4MMSh6PSnbd5Gfn79kLzExMTgcDmJjY30fwnWqwu3bpnnbGWE+WCEstgYLvTlWovkP0rXoUxAEYWPQR01DMf1OJ6kjTeRnHaRpXzeVqXYsWe0U9zvpTgXsFvKbRsirdLcZ3NuP05kKdgslGSdwdgfGGoZqm0a38wQkN7C337vFPw9npad+cidF1jwIIfctsvdsNU6n1S1clhzBXmklDzuWrBoyTjjpznOLlllA/XJztltILklmsN4/H3+fXvKwLrJ9ASOnaKeYY6kA+yjmoD9C036EmkU+KiO50441z11m72ylrNpJKvYV2hd6/RbbG+wfRprIz8qnqT9c3VBrv3Di4dYC8qxOnFbv2jbQdCiPytQRmvKzaC/ux9kdoq+gOS9cgxAub2qgNbuY/ogDjt1Cc413BU44sd7gENmZmRliYmJ8Ua/gPqhrfHyc6elpJicnmZycZGJiAqPRGEUBFtz/bO4CpY6MYe8/nT/MoNKArWo/HYXQpXm299oasGR2ofUECDeLtBQbDZZM9mvXU9aLpa6UYU3D7GgkN/0AjUU9VJltVKRbyOzS6CkAR2Mu6YA1pO3Bp8YWNGuenV82KpQ6Gqt7QrSxUZHeRumw5o4AtFWQ2wg9PV2h/bCJfLp4/gVUDYcYk3KUDhvNBe4yW0cL5bVaBPPdOHOV5yeaPvXsGgz5TAQpsyHm7qBnfzmF3ra2DgZyYKDTQVWVGUdnG2QcX2L+0VhHQRBuNImJiTz//PM89dRTAHzqU58C3AJse3s7zz//PImJiVEfd2Zmmp/9/Od0dXVyznGOA2VfoqSklC0JW6I+ViBTxPPwfVuYmZsj0bQ4dag3+tX7EyBlWzKqquP9KxNRt8disWC1WiMuX09WfzCXokNRTahqLIr3EK14E0piPOqWeNQtCVwafY/u7u4lr5/97Gf84z/+Iz/96U99XWsoKHodKcmgRuEIsVuL4P8MF7aU07XqHEFr0acgCMJGJJv6Y5WkAqRWUl3Wx9lzwIiDQW90ZHIyySWt9J0952tTvM+jfKXtJbu1ZEFE6lJtF2O3lMCJpQW3IHsPeWrmFVHGII4Rz5jZ9XhvpVZWUxbJnPOKKAucT2CfK8CdimCfu09S2VcMNUc8gnIoH+UVUdba6Ysu7hz0274y+8Ks3yIDHQxSRpF3jGXrRrJ+YdYC3KJscjLJySW0+p1Ee18Z1SFV7IVzDrcGfruyajI40e1pE5Zs9qb5XwfmhL3RAixAfHw8k5OTzM7O+sp0Oh2KouByuZibm2NmZgaj0cjjjz/OPffcQ3x8/BpaVEBzFxQqhdDl381EegY5LYXBkWYFzcE5GG0dDFirg1NWRVpGDtbjnr7MVdSWe/L3O4YYyLHiTVNprqqNMI0U/sN6lMLwefwdQwx4ow4VBaWwhd7B4fB+uC7Wyaeh5h9yzP2Ut3R45DUbHQN+f2+aucrz46kaJZ9G8kyEm3t6BjkDQzgAW8cApbWl0NaJAwedbZ6UeSEiaN2swToKgnBD8Aqx7e3tnDx5cs0F2NEroxx/4TivvvoqiqLypQNf4snPf2HNBVgAl2JgdNLI6GQMV2diQ15j0zE4p4xcuWZgdNLA6LVYrlyLYXIuCrGgIbBYLEu+3yisPh0BOo/4GovqSUeAKR4lIQ4lPh7i4kjZvpNPfOITEV333nsv8/PzALg0mJ7TMTuvojeICrsyAlIdLEiJsLH6FARBuNGksXdhSqYRB4NkYA6pXI3gGAx8X8YJp1+0coZSrVIr6XY6OcbBBdvLI2gL7khaTqyLIBY97Byp6aOvJsu3zT6rpg+8ImtIH+VxqH6QhqYRRpoaGPQJuKth4fqthgjXL6QZTeSX4GnfT31U04IFCqnLCPcjp2jvC/esrw+pqam4XC7OnfOL2jExMRgMBlRVRVVVEhMTefLJJ3n44YcZHBxk9+7dN95QT2qq4xzwb30Own2oj/9MgpWULe5raGCV9joayS2ELk1D04axLnn2QLmnXmDarBvAWvo03PxDjllAtXWAukYHjsY6BryH+26WuS5Cnh83q/FppM9EiLmbiyiljU6HjY6BUooKiihlkGFHJ22UUmRmQaq7cN+porCOgiDcUAKF2LUUYM+fP89PfvwT0FSSkpJ45JGH+PznnsRkiov6WKHYnqBnR7KeHUl6diYHXzuSdL7L+z4uVmFnspGUJD3bEtZGhAW/8LpRBViIViSsYvJcsaiKiXG9CUxxaCYTWmwcl0Yv8a//+q8RXS+++CLvv/8+AC5NYXJKYXIaZmflFDVBEAQhGqRizugLOkHefqSGvrKiAPGqj/ZTnrueSMWiPCDVTAatNESYmzO1spv++mwGHSMraGvHHQQbKKWlsTc7IELT3umPpFzSADMZfTUc8aU0bYisXTSwd9KaXU9/oGjp7Kd+QT7SIB+BJ3fsEY54csleH2HWbyGeNekMyNnb0Lp03UjXfhHnztKXvZc0n03eft05Wq+73xXhTb8QaYT1jSElJYW0tDRsNr+CMj8/z8zMDABxcXF89atfZWxsjMOHD/PKK6/w0EMPraFFNioKoUvrgsKKRbubzVU9DFtzGBhyBOef9BzqE7QdONIyAHpp63T46/SWs78AMO8hs9dCgy/9Zl34qMRAhgfpzclwp41ydNLWG6aeeQ+ZtFC3KJfk0n5YGevg02XmHzQm7oN9aWugoY1lBM4NOFdAnp/o+9T/TGRSG2qff9i5mykqhbYDXvHWTFHpAB0Ng7CswB/ldRQE4YbjFWLXSoA9fbqXH//kBTRNY252hj17zHz2M58nNjY26mOFY2u8nh3JOnZsVdm5VRfy2pGssj0RTLGw8zYjO5JVUpJVtm6JvggbmHIgUIDdaKkIIFqRsGqs/2AuJZb3Z+O4qpiYN8Qzb4hj+/ZdPPLII0tejz76KPn5+eTn5/u2mGkumLgGk9fcrwVBEAQhGuRZ+6mnhixPhGbJYD39QaJnNhln3RGayUGilft0eQKiO0MeSGW3BER/Zni2modrm0dRmf8AKLulhFZaKfHWyW9ihFQqq8toLfGUdbJEWoGgmWI94W93kOII20VKsO1BLuhsJXtRJGsq+4qzae20h/ER7pQAGa20ZlSHzjMbEeHXL9he95oMev2a1U5x/9J1l137sK465H/mDp4lwxcJm0pl9wkyAvpdSbfLE5BCIbmBvf3rk3JgOZ544gl+85vfcPr0aQCmp6eZnZ3FZDLx9a9/nd27d/P2229z8eJFEhISSElJieLoBewvDzwEqNCzLdkdCVfoFXR8W7MV0i2LRZnrPTzKTw6Zg+6IPiXdQqZv23UBzV3ltBS6xz5AaWTbkAuqsWIhXVFQDgyS6YtkDJyvzd3/sBUs6QGHMC3hh4jYAD4NN/9wY5qrqM1soSWkwLnB5wrI87MGPjUXUUoLLZn7w0Sqhpq7zdO0FHr9gr65qJSBluUimCHq6ygIwrqQmJi4JgLsHwZeIz4hgbvvvotLly+xe/edFO9/AoPhxp6jFG/SE29SSDCpGHTzGPXzGPUujHoXMQYXsUaNWKOGpipsiTeSYFJJMKlsMakkxKxNJOxCwXUjCrAAitPp1JaqcKSplUOVZSQlJS26Nz/nYv+u7/Gu+baAg7ncP1GMbI0zsHVLDH/5V0N0dbUtacidd97J008/HVT2+hs6/t+vuwXZuLeH+R8HnTz4qQxuv/32lc5TEARBuEGMjY35/nZEg8uXL7N9+/Zl60VzzJuWkSbys85SvdyW9XXGbkmms+h6xUL3oVdhDwsT1o2XXnqJBx54IOQ9TdP49re/zWuvvcZTTz1FV1cXW7du5dChQ+h0OgBqa2sZGhoiLS2NwsLCkNGwZ86c4bHHHgtrw3PPPcfhw4ejM6EgbFTkDlEdlCs/0jJP+aY8WMdGhdLB/jVJUbVan17HiBUKHfs1Qu+m38hzlecnZN83+PlZPZt1HQVBuB6effZZnnnmmbD3Q31uevl0Dw/8eTa/+vW/odfreOThv0T5/9m7+/go6zvf/6/vNfe5IYEQQEFASNBioHjbNanVrtVuoO2htuJW96z8fJxNlnbX5Jx96DmsnvbnFutWu23Snl81/HZd2Lae/mi3dfcsyRYelrbbRKqAVWNUMtyJgJAACeR27q7fH3OTSTJJJmRCAr6fj8cQZq67z3XNNZOZTz7X52vMBccw1uemkeLY9f4sfDkewpFR04kp9XYH+NRVZ8YdR1xeXh6dnZ0jTk9nMK50vzem+z00HTt27GDp0qVMKAVtOSxm5no4ZfkwuIYlYjv73Jzrd2E55nLDDWVgIHp6RP+1E//AjBkzOXVqcGHumTMDJ5Ozp5O8Ky9eebWIiMjlZud3N/LKLU+xdOxZp87BZ3mm5Smem55/vJZJYozh4YcfpqamhqeffpoVK1awatUq3nnnHa677jrC4TCnTp1iw4YN3HHHHRP6wjE5yqlrHJpGSvcxSe0iH1N/LZuaa9haN/FVjZ/On8zTMRWRy0/R0mJ2/66JefPmce01HyEUChEOh7HtaGItXpUf76kf/3+mFUQOsWffWSKR8V2yblkW187PBQoyHlPcdK2AjZtQEtYY+LNv3sy/fPt1eroiAw+SfIM93zYY5iXup3ICePf//c2wx68DHE6bFfdkM2vxzIteZi0iInLpOsizd9/Axnj/Udbzk44NGRjsajLEY72Fp/btmKYxymTyeDw8+uij7N69m+3bt/P973+fgoICnnvuOYwxPPfcc5PyRUI+7PzUlhVT3VRKTWvjNKiGFBERSa2wcA4FBbOJRCKJBGwkEhmUhI0nYB0OR+JzU6Y/P61cmMfKhcOvlpexTbgZQ9kXVzJ3VRbnz5/PRDyjys3NpaBg8jLmIiIil5clbNjRwYapDiMtmYr1Lmo6pnOzBRmNMYZbb72VW2+9ddDjl3/ytZw6+1KsxrtU405WRFWjTdWY803nfZ3OsY3mUo17suh4iMjY4klWp3NyeqvK5Jrws2ZZFsuWLcO27UT2fbJc/h/ARURERERERERE5HKTsdR5vPeEiIiIiEgqe/bsmeoQeOyxx6Y6BBEREZExTYfPTTB94rgcqH5ZREQuG999dstUhyAiU+yt/SO/D3hz51zESERERERGNh2+u4z2uelimi5xTDYlYUVE5LLw8Ib1Ux2CiIiIiIiISEpqsioiIiIiIiIiIiIyiZSEFREREREREREREZlESsKKiIiIiIiIiIiITKIJ94Q919ZL0wtv09l+HstyYBkL244QjoRxOlyZiBGHy8HNny9i/vKCjKxPRERERERERERE5GKZcBJ202e38ov3/olg7jkWXXk1Rw8cpy/Uw3U3XYP/tSMYM0qxrXECLgxOjHFhjBOMa/D/cWJsNwv+bgGbdnyR6264FstSAa+IiIiIiIiIiIhcGiaUhA2HIrz+1mucL/wAn9NH0NFLp30KHOD1eeh1dWKMSbGkFUu0ujEmAsbGGDDGYLDAWBjjwBg7+piBs4Ee3n35GHMXzmbOnDkTCVtERERERERERETkoslYSakxhpKSEkKhEMFgENu2R5jPhbG8GMuHMV6M8WHFfhrjxVheLMsXmz4wjyHa2iAYDGYqZBEREREREREREZFJN+F2BABdXV14PB7a2tqoqqpi69atHD16dMhcjlj1a7QClkQlbOwnLki+b1zD5hERkQ+n9vb2qQ5BRERERERE5IJNOAkbsPsAcDgcnDlzhj179vDlL3+ZzZs3A5CdnY3Xm4MxTs6c7YkmVBkhEWtiiVhSJ2tFROTDZ/bs2VMdgoiIiIiIiMiETDgJa8V6ubpcLizL4v3332fnzp2UlJTQ1tZGTk4OHo+Hs2e76eiIJJKqN5R00XHO4vD7XizLzZKF3UCEQ+/PGJSUNUQTsagSVkRERERERERERC5BE07COvHi9Xo5d+4ceXl5dHd3c/z4cW6//Ubuu282fv98XnllH6faejHGm2g58OU/fYMbrjvN6+8U4nVHuGbJGX78fz5K7T9eNawtQfRnxtrXioiIiIiIiIiIiFw0GekJ63Q6CQQCnDx5kv7+fh544DYefvinZGW1ceLktbz2xlX09jqwLE+i5UDlxk/h9Tj47U//N8dO5lL6xa9g226MFW89MDQRm3qgLxEREREREREREZHpLCNJWAC324Pb7SMrK4t1X3qTQ+cMR44s4/DpHOasCZF/bgbnWwf3fg2EXPxq9xIOvTcbbN8Y/WFDmQpVRERERERERERE5KLJyDX+xjgxlo/+/n5cLhc7D+fxw72r+MGrK9jy8jJ2vbmMwOKluJcswHL4MMaHZbwY46O710cg5MVYPkzssfhPy8Qet3zRvrDpaKjEGBO7VdKQiR0cfYNUmjJq/ZO+obHF972slukQjoiIiIiIiIiIiGQiCWscGOPD583j/PkOWlpa+PsdXv5992Le2TufyDuLcbUuxLV/Id7zy8l2fQynmZWUiHXGbl4sy4exBidko/N4owN0jcVfS9lqqLdtbNvGbl3O/snPwl5kfmrLDJUN0FBpKEtkfxuoXL2Zinobu7GKoimNUUREREREREREROIm3I7A4IglTN3k5OQzI+8qIgcX4wzNwnRlYXVnY3X7sLp9mIAbhx0my8yk13eMPm8XBgfgjFXARlsRMKgXbLw/bHDsYFpbaCpdTnH8flEVVZddNrKIqsZYf9xym/JB00pZXpxiEREREREREREREZkyGaiEtTCWj0DQieW4GsMVOA7Pw3XgKtwHF+A6WojnTBbugI2PXrz04SXA7J4CCrvmxJK4rkEVsFaiJUGsGtbygkmjErZ8LRVN1Tw4rDdArGVAQy1lsVYFgypITRmVlWWJ9gUNlWagpUFlcilttAo1Pm3QpNZU6yZanTtqe4TxxDa09UH8fgOVZjWbaaK6OGn5lNuOLVM70LahbFr0UhAREREREREREbk8TTgJa3AO7uVq+XC2zcRz1ocnEMFHHx768Nl9eOw+PPTjJYCbAPkBBzkBJ66IcyDxGmtJYFlD+8Om0xO2nDq7lXXbiocnSWmiehNstW3s1hqofjApmdlE8/Kt2HYd5UB5XaydgV1PxeZNsfn81JYVs21da2yaTV15inXXV9BU/cxAwrN4G+taY+urh00pE57pxzbyftdTQSk1rTaNVUVjbLuJ6pa1sceT4xUREREREREREZFMy0hPWGvIoFpugnjsPrz04SaaePUQiD5OALcdxEsQtwnitG0K+kIU9kYGJV2jFbC+RFI27YG5Ypfr2601NK9OTsSWUrM11iu1qIrHK5poaR2Ytm5NUt+CxOBeq9kcf8y/nW1NFTyesr9B0rrL11JBM/v9gH8/zbHqVGMMZvVmmgY2mnr5sWJL16jbLqXmkVhKNzleERERERERERERybiJJ2FjPWGTB9VyEcRDP+5Y1avHjla+RhOxIdwEcRPGTRgHNg5sFvT3saSvB6fxDEroWon/p5uEjSmqYmtNKZtfTFXj6Wd/8wjLDRrcq5Wa0vEej6EqBgYKs23supHrWceMbdK3LSJyqdpJdX4++Um36p1THVM6dlKdfzfPHhzvYtXR/bz7WUZedLR1X+B2RURERERE5IJMvB2BcSQlTKM/XYRx04+HIG47GEu6hqI3E8JtwjhNGJfbiXE5sHxerLxcZmU5udbRS5Yj3iN2IBkLafSEbahNuozfz/ZtTZQmRqpqYtv2eK/UaFXr2lQ5yeTBvfzb2dYUe7xoDetKN4/QTmAERcsoIZ1l0oyNYpaXJlXJNrw4UKl7wdsWEblc3MJT+zro6OigY99TtNxbzeTkYac6gbmT6nu3sP4nHXTs2MCSqQpDRERERERE0paZSljLOygR6zKRWOI1iNuEcJkQLkK4rAgulwNHjhdH/gysvGyM24Vxu7FycyE7B0+Oj2UzAszymOg6rViVrXGMHUr5Mlril9+bYqpL6mP9UQFKKWl5MDqtuJqS+hF6rJY/Qg3VFBuDebCFkkQlbBFVjfWUVBenHpgrdUDUtdZA0jIm5UJpxkYRVY9XsHl1bF0vQsWEty0ichlaUsRyWvBftpWet3DN0qmOQURERERERNKVuUpYa2BQLScR3CaMiyAuK4zLE0u85uVg8nJw5OZg5eZg5eSA0wVuN/iywZeL7c0BTzYL8g1X5tk4jHccYZZTN8rl98sfaUwxqFY5dXYjA61eYz1lbRu7sY66xuRpg9cfXcfQ5YfcL6qiMY2WAOnFBpTXJa2rLml6inlTbnuMeEVELgc7t7Nl/SNsiJeJHnyWuxOtCuIVsrGK1merEy0M7k6Utw6tdo3f30l1/r1s4RU23pBPfvVODj5796A2CPnxPgijbLO6+u6kx4ADA/PenVxiO2wdg7efmDfltsZYd7LRlhcREREREZEJc058FQ4s4wXjxhgXxrhwOixcDge4PBinE+NyY5wucLmi9x1ubKcL2+EChwvb5cH25mIbJ1hubMtFxLiY4XLicvdzomOc/WBFROSy0d7ePur02bNnx/4XTUxuBGA9P+m4K/b4Tqpv+Dmf39fBjiXAzmrufvYgd22ILfPuI3R01ET7rN77XXZuqOGu4ZuJuYuajp9A/jNcs29HLMl7Fx0bYtvJ386amrvG3GbLNfvo6FgC7GQ7r7Dxmc+zr6ODJQef5e4b/pxnP72DDUtSrWMpO4Ztf4z9i697xP0bafklaR1/ERERERGRy9HAd83MmHgS1jiiFbDGBbgwxo3JtjCOWMLVGf1pO2MJV4crmmiNJ2AdTmyHm7ArCxsXtoneIrZFBAvjNBTmw/njE99ZERG5NKX3y+8WnoonJg8+y935d+Pft4MN+GnhFbYkErTA+jUDyzwcS0netYb1PIP/INx1AY1Wd1bfCz/piCY4D46+zc9/OnkDt/DUc7Herks28Mj6jWw/AIwad5IxtpVY90j7N+Ly0Zky/cFDRERERERkupuMYpQJJ2ENjkQFrDFuMC7wuDBuJ8bhAoeTiCNa/YrDHU26Ghe25cI2bhyuCFgOgiYnloS1CEcMEdsiDNgRQzhscLom0jmhnDo7dRuAqTedYxMRuUQt+TSfv2Uj7x4AlkK0MnZ4BWjG7KzmXn5Cx6ANXMg2D+JvARK51nTXMdH9S7W8iIiIiIiIZMrEB+aK94RNGpiry+kDXxa2z4ftzcL2ZBN2ZxN2+Qg7sgg5swk5sgk7s1h+7cvctOrfCeEhEHHSF7LoD1n0BQ19AYuePkNPPwSDkQzsroiIfCgc/AU/fyU2eNWSIpazhWdG6oea0lKuueWVaBIXoj1mR5x3J9X3wk9qklKY49rmK/z8F/Herr/g56+sZ81d41jHBe1fBpcXERERERGRMU18YC4csUG5YgNzGS+ng1mcMz7CrmzCrizCzugt5MgmZGUTIov77/lbNj36R2DDjNx2nnrk43z69v+HvoCD3n6L3n6Lnl7o7oWeXrCVgxURkVHFBsvKzyf/hp/z+aSerTX7noKNNwwfPGtES9jwyHq23BubfzusT0y7izXrBwbm2ll9L1vYwr3xdd/9LAfHtc1bWP7un8fi3sjyn8QrUtNdx4XsXyaXFxERERERkbGYjo4Oe7QZvvvsFh7esJ68vLxh08KhCGvnfZ+TRbOSBuaK/sS4mZnlYmauB5fLiY2TCG5sXERwU3bDv9DTl8Nrb/8hYTvCiuLf0N2bzd63bicUhMiQqLJOtPLQn3dw6z3LmT9/fkYPgoiIZE5nZ2fid0cmtLe3qy+piIiIiIiIXDSZ/B66Y8cOli5dOrGesJbDYmauh1OWD4NrWCK2s8/NuX4XLqcTt8uDy+XC4Yj2jf1F431EbEMoDKGQzS+bVjNasauzp5O8K70TCVdERERERERERETkoptQEtYY+LNv3sy/fPt1eroiAw+SfAMwmEH3x8fhtFlxTzazFs/E5XJNJGQRERERERERERGRi2pCSViAsi+uZO6qLM6fP5+JeEaVm5tLQUHBpG9HREREREREREREJFMmnIS1LItly5Zh2za2PWp72QmzrAmPIyYiIiIiIiIiIiJyUU04CRtnjMGYC2s3ICIiIiIiIiIiInK5UmmpiIiIiIiIiIiIyCRSElZERERERERERERkEikJKyIiIiIiIiIiIjKJlIQVERERERERERERmURKwoqIiIiIiIiIiIhMIudEV3CurZemF96ms/08luXAMha2HSEcCeN0uDIRIw6Xg5s/X8T85QUZWZ+IiIiIiIiIiIjIxTLhJOymz27lF+/9E8Hccyy68mqOHjhOX6iH6266Bv9rRzBmlGJb4wRcGJwY48IYJxjX4P/jxNhuFvzdAjbt+CLX3XAtlqUCXhEREREREREREbk0TCgJGw5FeP2t1zhf+AE+p4+go5dO+xQ4wOvz0OvqxBiTYkkrlmh1Y0wEjI0xYIzBYIGxMMaBMXb0MQNnAz28+/Ix5i6czZw5cyYStoiIXIa+++yWqQ5BREREREREprmHN6yfku1OuBI2zhhDSUkJb731FrZtY9v2CPO5YtWubgzxRKwLYj/jyVkS0wfmBQgGg5kKWURELjNT9ctUREREREREJldeXh6dnZ0TWsdUFu9k5Lr+rq4uwuEwbW1tVFVVMXPmTI4ePTpkLgfGeDHGi2V80f9bPowV/WkZL8b4EjfLeBPTjOWNJmZFRERERERERERELjETTsIG7D4AHA4HZ86cYc+ePXz5y1+mq6sLgOzsbAoK5jJ79rxYQtU3OBGblJC14knXocla44tWy4qIiIiIiIiIiIhcYibcjsCK9XJ1uVxYlsX777/Pzp07KSkpoa2tjZycHDweD2fPdtPRERloRRBvO8CQ+0ktCYxxYYg+hiphRURERERERERE5BI04SSshiFMXQAAIABJREFUEy9er5dz586Rl5dHd3c3x48f5/bbb+S++2bj98/nlVf28cHJLkpKlpI7Y0Z08C0swAEmNhAXFnYEjh0/zclTMwYnYo0bYzLSOUFERERERERERETkosrIwFxOp5NAIMDJkyfp7+/ngQdu4+GHf0pWVhsnTl7La29cRXe3zQMPfIG1az8z4nqCwSAvvPACL/zYT3u7b0giNvVAXyIiIiIiIiIiIiLTWcbKS91uD263j5kzZ7LuS29y6Jyh/u1l/Lw1hzlrQswo8gEWljX67YorrqDiv5ThdAYH9YdVT1gRERERERERERFJpbq6eqpDGFVGkrDGODGWj/7+flwuFzsP5/HDvav4wasr2PLyMna9uYzggkUY1+iFt8YYsrKyKCzM4obrA2BbicG8SCMJ21BpKKv1D30QU9kwkd0bbYtUmjKGblJEREREREREREQujngCdjonYieehDUOjPHh8+Zx/nwHLS0t/P0OL/++ezHv7J1P5J3FuFoX4jw4H2OnHlzr5AdneOON4zS/2UFW1tUsmL+cv/jKOgpnn8KKV8Iy9sBc5WsraGppHfRYw4ubqVhbPuHdFBERERERERERkellaOJ1uiZiJ5yENThi7QLc5OTkM3/BciIHF+N8ZxGu/VfjbF2My78Q93tXYEKOQcvats1bzSc4cthHKHAFdmQ2DnMVnR0FdJ6dQeGcQozlxRhfeu0IipdTuvlFBupeG3hxcwXKwYqIiIiIiIiIiFxekhOuNTU1KR+fLiY+MJeJtgwIBJ1YjqsxuHAcnoezfy5Wtw8TcOIkgon0YIgMWvTQwTa6uwpwuQZXuVqWA4/nSpYsXor/ABjjBdM3dixFa1hXWs2LDXWUlwMNL7K5Yi11AP5ayoqraYrNWlFvU1cO0ZYCm6ACNm8uod5+hP1lxVQ3DZ3PT23Kx4HWgXWX1rTSWFUERNsjrN6c2CB2XXlie8tbG4nONvS+iIhMpqeffnqqQ5Bp5tFHHx1x2ksvvXRRYrjzzjtHnKZzVkRERCZiun/WURzDvfbaaxcljuuvv37U6dPleKQjnoCtqamZlglYyEAS1uBMVMIa48IYN862mXjCPiwiOOjDIoJl92NsO7FcT08Pp9s9wxKwya6Yt4R5c49xqs2HZbrTiKaINetK2bbfD+VFsVYEdUADlcXVlNTbNJYTS8iWUZtIfDbRvLwV2y6ChkpWl9RjNyaXz0YTsNvWtWI3Ds2UNlG9aR2ttk1RQyVm9TM0VNVRDpTX2dh1EE+01j5SrkSriMg08OSTT051CDJNPPbYY2POc9NNN01qDHv27BlzHp2zIiIiciEulc86imO43NzcSY3j/Pnzac03XY7HaJIrYOP3p2MiNiM9YS3LF0vERn+6CeKx+/DSh5s+PPTjJoBJWqy7O0AoNHoO2OlwMzPfi7G8aQ3MBVC0Zh1s244fP/ubS1leDPj300xSW4KiKh6vaGKgfWwp69bEsqPFyyndvHrwAF/+7WxrquDxlBnUUmq2VlEEUL6WCprZH1+0oRJjDMasZnOKJUVEREREREREROTCDE3AjvX4VJp4O4KknrDEKmFdBPHQH6uEtbFsGwhiGKiEDYUiWJZj5NUCYPB6fVjGE+sJ2z92OEVrWMeDbG+AbaxjaxHgH3OppOWraLSr8NeWYUxTtO1A8TiWj/PXUrYa6m2bcvzUlj14ASsRERGRS0VfXx8HDx6kr6+PwsJCFixYgDFm7AVFRERELlGnT7fz3tGjZGdnMadwLvn5+RnfRigUoqurK615c3JycDozkOq6xPT19WGMwePxTHUoMoqJtyMwjsTAWfFErIswbvpxAJZtY2ETIZSohO3r6+PsydcIh28GvCOu27Ztzp83YLIAN2klYSlizTooXl1NaU1rtEK1aBklJPWK9deyaXMFj9eNspaqRlop48H9fiiP9prdVPsI5en2E2htoal0OcUQq6SFdQAUs7w0VoVbRLRvLTD98vMiIiKSjp6eHl544QV27txJMBhMPD5nzhzuu+8+7rjjDiVjRURE5LITDAbp7Oxkdflqtjf8Gx0dHdxy88cyvp3jx4+z6vrrMYCxLCxjYlcdD/58ZYzhd7/7HQsXLsx4DNNZMBjk7NmzWJZFQUHBlCSh//dvjtHZG4Ck4stcj5sH7lhw0WOZzjJTCWt5MQz0hHWZCG6C0SSsAYNNmDChcJCWvT/m979+ivfea+Wjn/wxvgWfG3HNPb3dnGrPjrU7GKtqdkDRmnWUVjPQYoBy6lprKCs2sURwKTWtjZSnWrihEjMwmhb1dnQdVY31tJhiTKylxKCBuVIpf4SaTcUUm2ooraCiNBEdVY9XYFabaIuCigoq0t4zERERmU7a29v52te+Rk9PDytWrODOO++kpKSEDz74gH/913/le9/7Hm+++SZ/8Rd/gWVNvAuUiIiIyHTxxpuvs2zZNXT3dDO3cC7z52c+4fbrAw4OHHZy/Q3RfE5yAjaehP2w/7H7wIEDrFy5EoB33nmHJUuWXPQY3jp4lE99ogQAO5aI/dV/NANKwibLeCWsMS6cRHAbogNyWRa4LeYsPMDJd37E27/10x+wyZ2RQ0H+GXp6T5HlmzNsvYFAN8ePthIM3Db+oGItBcZ8DIBy6uykbGp5HbadqkS2nDrbpm7YY+Uj3C+iqtEm1RaHbWOUilwRERGZnoLBIF//+tcJhUI89dRT/OhHP+Lll1+mv7+fO+64g7/6q7+itLSUv/u7v6OwsJAvfelLUx2yiIiISEZEIhF6ens5dOgQhYWFdPf0ANErhLKysjK2nVNdhvwZbizLiiZhLWvUBOyOd50s7nPwqWXhjMUwnR0+fJgrrriCntjxLyws5NSpU8yZMzzPNpm6Ojo4dbKd5ErYrnOdFzWGS0EGSjIcWEmDchnjxemwcHkcWLluZn2klY/cVcsVy37IiWOtuD3ZfOzOv+DB/97CLbevZ9X1uViOU/T2dhAI9NLbe45Q+DRz5p4n0B9mfkE/Tkdk4mGKiIhcTInBGc3gwR4zuxEqTRmTtnoZ1fbt2zl+/Dh/8zd/w7x58+jv72flypW0tLTwgx/8AIBbb72VL37xi/zsZz/jgw8+yODW/dSWJVWClNUOaYHfQKWppGHYcqnOmck6j0aK4SLw11KW0X0ae18aKg2mMlN720DlkEqfzL2PjOfcyLT4NkaLIXm/L9X3tzHOF38tZSbF63fE8/YCnrO0XgPjeY1eir9vGqgsq8WPn9qyTL4XjfdYXEAcQ5+/i/KZQmR8Tpw4Rn9fH/9W30BzczPd3V281dLM/tb9Gd1OMGzT1RvGMmZQAnakm9vj4MjZD0dl7Llz5+jt7QWgu7ub7u5uIpHIoMcvlt7+MG1tp2lrO5O49QftsRe8AAcOHLjg21SbeBLWODCWD8vyxpKwPkyOh/xrWvnIJ2uYuaSOrv7DGONh/rIv8OB/f4tP3/s9ZhVcBUB2to8VK2ezcpWLJUX9lKw0rPxoDvOuyCOMA+N0UJgPuoJPREQuHQ1UxgZntO16SqofvMS+uMpYIpEIDQ0N/OEf/iFz584FoL+/n7a2NmbPnk1PTw/f+MY3CIVC3HvvvcydO5edO3dmZuP+WspMMS2P29h27LYVtg/6Zl/O2orNvDglGdCpiGFIUqSoika7kXRb+Y9tjH3x17KpuYKK5k0ZfK2XUtMaf47rKakuTiPJm05yaLqfGwP73VoD1Q8O/QPDpWCU/fPXUla8jXWtA6/f+pIWWmHIeZv8XF7Ac5bWa2A6nAuS0tBzYXVz7HWhzxQyPXT3dGOMA58vhz+6+9M0Nr1Mls9He3sbS5cszei2QmGbrr7QmMnX+K2rL0QglPlCvvPNzbz97W/z1lNP8daTT/LOk0/S+uSTHPzGN3jvqac48bd/S9s3v8m5Z56h71vfIvzd7+Jobs54HHGRSIS33nqLvLy8RAI2fsvKysLv9xOJTF5B4/bGA3zt71/msbqX2Vi3m/6Ih7ZTZ2g7dTZ2O0Mg4uF/PPtbHnvutzzxD428ffDUpMVzqZhwatPgSFTAWpYPy+HmupufZ9ai79PVdwiDl4j9WfYf/BZXLnuYWbOHN0i2LIucnGwKC/OZMSM3MZpbKGLoDzkIhi2cLmVhRUTkEtHwIpsr1sZ6j5fzSA1s265vTJeTY8eO0dbWxpo1axKPhUIhzp49y5kzZ7Btm9zcXDZu3EhXVxdlZWXs2bMnA1v2U/tgNSVDe9MXVVE1pFd9+SM1NE9xdmU6xJApo+2Lf/s2WPcIj6ybrNd6dHyD0s0vZqSabzo8L+nEUFT1OBVN27gU3z5T71/89Ts4OVpeV5d6rIox1zdx0+FckDH499Ncuo7ocCflrK2IDfIsMkWOHXufbdu28Sd/8icUFs7i+AfHmJmXR3t7GzfecDO5ubkZ3V40CRsZNfEKJP6w1dUXIRDKbAXm2ddf52xjI2ebmuh4+WXO795N9+7d9OzeTd/LL9P/8sv0NzURaGyk9z/+g+7f/IbevXvx/cd/4Hz99YzGEvf73/+e/Px8urq66Onpoa+vj76+Pnp6eujq6sLtdk9q5eerr79L26mj9Jw/QX/3BxRm99PbHyEQhEAwWhmb5+4l0NtGT9cpurvO8Ms9hyYtnktFZiphjW+gHQHZHDs9O5p85bO8d2IzJ9qr6bOvxDbj21wobOjpM/T0QzColgQiIpJpQ6vGku8Pvtw7UYA26DLS+GWF0eUqK8swppJ/2N9M6fLixFaKlpXQ1NIavZwwcdl4bFsNA+urbAB/bVnKSw4bKpM+bKashotdxhufljJOyZQjR47gcrlYsGBgsAHbtuns7KSjo4MzZ87Q0dFBXl4eGzduJCsri2PHjk18w/7tbGuqYO1IGZvkc6xoDevGXZl54ed9Q6plU8aQiXM/edurWW1Ws5kmqovj8yS/lmP/r011Oe84YhnxePrZvi06IGzRmnWwbXtS5ebw9Y+27VEvMy5aw7rSgarF4celgcphx2GE4zfec2PI5fOD34JSnzNjvmeN+/wcer6NEZc/+bjWDjsfktcz2jmW3nma5rk/1ut3ULuGIc/laMerdZTza6zXQMr1jvA+MOK2hhj2fhFdX2L+Qb8LU82frlHiBKCcusYqiiiiqjGe6J6K372p4hhL0vNXtIZ1xP8Y0cCLm0c7h0Qm1959e/hOzXd4/h/+gT/5zw8wb+48Vn+6nM997nOUlX2CnJycjG7v2zvP8zv/GX7/gYO/+uFh/tsPDvFf/+kg1VsPULXFT9UWPw//Yyt/+fx+Hv7HVh7+x1Z+/4GD3x86w7d3ns9YHKeamjj0y19SvGABJYsWsWrxYlYtXsz1ixfz0cWLuW7RIpYtWsTCq69mdkkJ/XPm8OrBg7y3bRtWU1PG4og7ceIEPT09RCIRbHtwwjn+WCAQoKOjg/b29oxvH6D6gU/gf7uZD9o6ONcVpD9oCNsuIsZNxLgJ226CYQdet4dIMMiJw++y7s5rJiWWS0lmKmEtb+wWTcQ2n3iIt48+y7H2agIsIuzMwnblcPDgUX71q1djtz0pb7t+tYddu/bw29++TndPiO5e6OkFWzlYERG5mBqeobqkPvFX9WjVYQOVyZeR1sOmxJe1JpqXb8W267g97Y00Ub0Jtto2dn0Fm1cbHmRrbN0VNFU/k/gyWl43cFlyxeZUX5hXQ72NXVc+RpySCYFAAI/HEx2ANCYYDNLV1UV7ezvvv/8+Bw4c4PXXX6ezszMzCdi40uUUjz0XUETV4yXjq8ycwHlfnnLZkWLIxLkf33Y99XY9FfHL2OtSZSeaqG5Zm3L96ccywr74t7ONWJXaoGRJivVHr68ftA8jTxvd8ONSTl2K45D6+I3n3GigsjhafW3H4mxenfzHqmK2rWsd8ryP9Z6VXgz+2k1sTlQARo9X4nwbNa7B07ayjc2D1py8ntHPsbTOjfGc+0mv34HE39AWEqmeyzReS6OeQyO9BlKsN+X+DD8eg19HiYVTvF9AVWM9JdXP0BBv19NYRdGI86dzXo587o3tUvvdW0TV1nVsKzYYsxrq003kimROINDPP//sn/n+97/Pnlf38OD6P+Xee9cxY0beoM9CmdZHNp9YuYC7brqaq6+cPey2+IoCFl9RMOixu266mjtWzQdn5hLC4VCIM0eP0n78OOdPn6avq4tQby+Rnh7s/n4iXV0ET5+m6+BB3vvnf+b4b35D98mThM6dIxwKZSwOiLa/euONN/B4PIl2A5ZlJW5OpxOIJmPD4TBvvvkmgUAgozEA5Ofl8ET1fZxpayMYtsDhxe3JxePLw5edT1Z2Hk6nj7cPnmHP6y2sv+d2CgvyMx7HpSbzA3NZPsJ2Ae+2X82xLh89djYhRxYu33x+9cvF1H4nRM13DN/5tpNvfcvD3z7t5Rt/62HTN7w8scnL157w8thXvfzNk/kcPfYxJrGFhYiIyMiKl1O6efXgSh//fprjlUnGYFZvjla4AlDKujVjNKAsr8NOfPGMLlOzNXa/fC0VyesoX0sFzewfNijH6iHJBNj2YPSLaOIL6KhxSiZkZ2fT09NDMBhMPOZwODDGEIlECIVCBAIB3G43n/vc57j22mvJzs7OzMabYv0jUxl6jpWvpWRQZeYYJnLep1p2xBgyce6n8ZpL3t4j8ezgkPWPJ5YU+xJtRbAmdsyLWLMOqp9JTk0lrb+oiscHXUo82rTU+5Eosh/lPWGQkeZL99zw76eZpMq75DhjlZ2Pp2o8mk58KWMYONeKq0uSknUw6DkfNa79NJfWEH/Ki6oep2LQNoacO6OcY2mdG+M595Nev0VVjdHk3kjHZ6ixXkujnkOjvAaGrnek/Rl2PJJfRzEjvl+UU1cPq4cmEdP5fZWqunS0c29M0+x371iVwP5ayh6MJY1tm7Uvpqr6FZk8Z86eYesPtvLqq69ijMWfPvinPHD/n5Cbk9m2A6lEjIszPW7O9Hg4F/CmvHX2e+joc3O218WZHhdner2c7fXQE3JmLI45H/84x06c4D/272dHSwvbX3uN/7NnD9v37mXHK6/wm3372NvSgv/oUfp9PvKysliRlUXu2bOEP/7xjMUB0BzrM9vb20tfXx+BQIBgMJj47Nnf309fXx+9vb309PQQCAQmrRr21huv45M3XkXYNhhnDsadi8Odg3FmE7ayCOAlK9vHH964kDtvu3lSYrjUTCgJazksZuZ6ogNzJSdiTfR+Z5+PI+0ejrR5+KAji77IQiJWEbajCNtaBI6rwFpAhAVEIguwWYDlWIDbswCPdwGW5U1sy9nTSd6V3lGiERERyaCiKhptm608OOQyx4rYgFuxW4rSm0T7gRj/kPYE4+avpSwx0FcrNaXJE5uA0hRf9MaOUy7ckiVLiEQig3pteTweXC5XohJhxowZPPDAA3ziE5+gpaWFhQuH98UftyGXpI+tnLUl1QzkBItZXjpkFv9+milhWRETOu9HXnZoDOMw6rk/FYbuSwPPVDfRVF2cuGS5uLoJRuzd6mf/iGN0jDaNWNIp9jyle1xGnW8Cz8tY0n7eUsWQPCDZRaj4y8Q5lu65X7SMklSJy7SN9ZyNcQ6lu94R9ydd4/39M8b8sXgu2jkRd7F+946xf4P/0APlayvYrD6+cpEcOnSIH/3wR2Bb5OXlcfvtt3H/lx7A58u6KNufneNkTr6TOXlO5uYPvs3JcyRu8ftZXsPcfDeFeU4KcjKXhJ19/fXc8+Mfs+See7hyzRrmrlnD7M98hvzPfpac//SfyL7nHnxf+AJZ69aR+8d/zKwHHqBg/Xo8//zPcP31GYsDYP78+Vx55ZWJP+53dnbi8/nIysoiJyeH7OxsOjs7sSyLWbNmsWjRImbOnJnRGJL9VeU66HmPvPwZzMyfweyCmcwumMnM/Dzy8vIJduzn8ao/nbTtX2omlIQ1Bv7smzdzW+QcN5xr44bOY1zfeYRVHX4+evYdPnrmTVae3sdHTr5K0fuNLDr0axb4d7KgtZ6rDjSw6GA9S4/Uc82xBj5ysp7rRritPL2dz97TxazFWbhcrkztu4iIfOgVs7w0qWqo4cVhlS5FVY201pTSvN8f+wK9eezLC4uXJw2g08Az1dF+kcP64KWrtYWm+CWs/u1sG9RaqpR1WxupJ6lqKd045YIVFhaydOlSGhoGvgiHw+HE5V5ZWVn89V//NZ2dnTz55JP87ne/47bbbsvAlouoejx6+ezQ/pe10eaWw86xwQPvFLGspGnQiPMNz1TTlBhILjbXhZz3qZZNGcM4jHruT41B+9LwIptLa2hNTrrYrdQMSpQ3DVzqPawn6GjTksUvr48laNI9LmPMl9bzEnv+E7P5a9kU70kZ+6PAsHNjHM/bBZ8bo8a1jJKmgaSiv3bTyNW4GTzHxj73owM1VhdfeJ/u4ccr3XNovOtNvT+pJfcvHen9ItaGwK6H1Un7f6G/r0Y69zJpmvzuLVpWQlNSpXLDi5sn9oddkTTt3t3ED3/0A2zbJhQMsGxZEX983/14vRevOG5mtpM5+Q7mzLSYO9OR8jYn32L2DPB5Ye4sN3PyLQrzLWbmZi4JC3Dlxz7Gp776Vf7oySf51JNPcsemTZR9/evc8sQTfPRrX+Mj//N/svSv/5r5/+N/UPDII+RUV2NlOAELMG/ePFasWMGNN97IzTffjNPpxOfzkZubS25uLj6fD6/Xyy233MKqVau49tpr8fl8GY8jzuV08tUN93C09RVm5OZQMGsms2blk5uTw7EDL/PVr9yLx608XtyEz8qyL65k7qoszp/PXNPjkeTm5lJQUDDp2xERkQ+LaELLrDbRL+gVFQOXhTZUYlbHv7ZXUG8XAUXUtdZQVlyMqY5PqseuG7raKhrrKxOjtVbU29GRsC+0I0D5I9RsKqbYVENpBRUpKrXK61rZX1aM2VZDa2PVCHGqGjaTvvCFL/D0009z66238gd/8Af09/djjMHn8/Hoo4+Sm5vLT3/6U44fP87cuXMpLCzMzIbL67Bbl1NWbDDxx0praG2ElJmdojWsa36QWn85VUXRc6WmLHY+JZaNnRsTOe9TLps6hvT3dexzPzYjaytWs7rYUJ0qtkxK2pdlL26mdF0rg3epiDXrSql+sSF2mXIpJS0PYkw0g1NRbyclvEebFr2suTo2X02rPXDsRjwuQ4/DGMdv2POSvE0orWmlsao89vzHz7dSalobY3EWUdVYT4sZODcq6m3q0n7eUsWQrtHiKqeufuC9vbSmhgq2jbCaccQ6knGc+0VVjdjLBn4/QPQ41w3b96HPZXnK9Y1+Do1D8npbU+1Pur/AylO8X/w9Nc3/heaaVuooorhmE8VltbQ2VlGUcv50fl+NdO6NZ6fH2pVp8ru3vI7W/WUD79kV9dgX1IZBJH1vNr9Bdk4OV1+9mHffbeUPPnYL5eVrJrX/ayrZPifZPoM7ZOFyhIm+dcbfP6MDUkUiNl39htxsd2I5YyDgyWwSdrpyOBx4vd5BidaLXby4bOlCblzopu3UAa6cdys2cMD/Jh8ptCm5Vu9XyUxHR4c92gzffXYLD29YT15e3qgriv/1fzJd7Be8iIiMX2dnZ+J3Rya0t7cze/bsMedLd5tPP/00Tz75ZCZCk8vAY489xqOPPjri9Jdeeombbrop5TTbtvnWt77FG2+8wVe+8hXq6+uZOXMmDz/8MA6HA4DHH3+c/fv3s3TpUlavXp2yGnbPnj3ceeedI8aQkXO2oZKy/Y/QOJVf3KdDDJmS9r40UGk2sby1MUWCcbRpF9F0eF4mOwZ/LWXFLTx+MS9lT5bp/Zus4zUdzgWJaaDSvMjaqTpn5bJyIZ91Xt7dyE033sKvf/MrnE4Ht3/ik4P+eDReY33WGSmOXe/PwpfjIRwZf66ptzvAp646k5E4Mi2dOF577TVyc8fuu7t3716WLVuWaE/Q3d3N4cOHWbFixZjLnj9/nuvHqNZN93hEIhEe+Mv/yafuexTLGP7tn77OT+q+mVYeL53jEZeXl8e+ffvSmjeVpUuXpv29Md3voenYsWMHS5cunXglbFy8D5aIiIjIh4ExhocffpiamhqefvppVqxYwapVq3jnnXe47rrrCIfDnDp1ig0bNnDHHXdM7eek8joap/qb/HSIIVO0L5dUDA3PVNNUWsOUXcCd6f2brOM1Hc4FiWp4kc2ly3lkquOQD62ipcXs/l0T8+bN49prPkIoFCIcDicK7+L5n3gf/Pj/M60gcog9+84SGeeI7ZZlce38XODyv5La5XJx+PBhnM6B9N7FbBkRZ1kW3/lqNRu+8b+wLIv/9fVHVEiZwoejPltERERkEng8Hh599FF2797N9u3b+f73v09BQQHPPfccxhiee+45fQAVuej81JYVU53o4VlBvV2F6jtl2vPXUlZcTROl1LTW6ZyVKVNYOIeCgtlEIpFEAjYSiQxKwsYTsA6HI/FZJ9OfeVYuzGPlwtGvyv6wW7ly5VSHkDBvbiH/9T9/hghwxbw5Ux3OtKQkrIiIiMgEGGO49dZbufXWWwc9ruSrQDl19kilhaNNk4kpoqrRpmqqwxAZr6IqGm2duTI9xJOsyRWWImP5xE0fneoQpjV9OxARERERERERERGZRPqThoiIfOg89thjUx2CXEL27Nkz1SHonBUREZFJMx0+64DiGOr8+fNTHQIwfY7H5UBJWBER+VAZbXRYkaHSHal1MumcFRERkckyHT7rgOIY6vrrr5/qEIDpczwuFxNOwp5r66XphbfpbD+PZTmwjIVtRwhHwjgdrkzEiMPl4ObPFzF/+eU/sp2IiIiIiIiIiIhcXiachN302a384r1/Iph7jkVXXs3RA8fpC/Vw3U3X4H/tCMaM0nbWOAEXBifGuDDGCcY1+P84MbabBX+3gE07vsh1N1yrgS5ERERERERERETkkjGhJGw4FOH1t17jfOEH+Jw+go5eOu1T4ACvz0M8LKpjAAAgAElEQVSvqxNjTIolrVii1Y0xETA2xkRHFzZYYCyMcWCMHX3MwNlAD+++fIy5C2czZ86ciYQtIiIiIiIiIiIictFkrCesMYaSkhLeeustbNvGtu0R5nPFql3dGOKJWBfEfsaTsySmD8wLEAwGMxWyiIh8SL300ktTHcJlTb2jREREREREBstIErarqwuPx0NbWxtVVVVs3bqVo0ePDpnLMSTJOpCATSRZk+8nJ2vjy4iIiGTITTfdNNUhXJY0eqqIiIiIiEyWpUuXTnUIF2zCzVUDdh8ADoeDM2fOsGfPHr785S/T1dUFQHZ2NgUFc5k9ex7G8kVvxotloj9N/Kflw7K8ienD58nMIF8iIiIiIiIiIiIiF9OEK2GtWC9Xl8uFZVm8//777Ny5k5KSEtra2sjJycHj8XD2bDcdHZEU1a1D7idVyxrjwhB9DFXCiojIRXSg513e7HwFl9PBR/NuYYG7aKpDEhERERERkUvUhJOwTrx4vV7OnTtHXl4e3d3dHD9+nNtvv5H77puN3z+fV17ZxwcnuygpWUrujBnRwbewAAeY2EBcWNgROHb8NCdPzRiciDVujJlw0a6IiEha3jnXTP6smZw+e4pgXw+fXfrHHDrVyiJv8VSHJiIiIiIiIpegjPSEdTqdBAIBTp48SX9/Pw88cBsPP/xTsrLaOHHyWl574yq6u20eeOALrF37mRHXEwwGeeGFF3jhx37a231DErGpB/oSERHJtL1tr/D+iYPcuXIFNjbffuOrXOO7TklYERERERERuSAZKy91uz243T5mzpzJui+9yaFzhvq3l/Hz1hzmrAkxo8gHWFjW6LcrrriCiv9ShtMZHNQfVj1hRUTkYjnf18Wxzvdp7zvP6b4uzvd109XXPdVhiYiIiIiIyCUqI0lYY5wYy0d/fz8ul4udh/P44d5V/ODVFWx5eRm73lxGcMEijGv0wltjDFlZWRQWZnHD9QGwrcRgXqSVhG2g0lTSkImduigaqDQGk7iVUesfaZqhbGBiGtNH246h8qIfpAYqB+2fiMj0FQiE6A+FONvbxdnebnqDfYTC4TGW2sXGRffw/OFRHj/8PPeknCcDdm1k0aJFLLrneSZj9SIiIiIiInLhJp6ENQ6M8eHz5nH+fActLS38/Q4v/757Me/snU/kncW4WhfiPDgfY6ceXOvkB2d4443jNL/ZQVbW1SyYv5y/+Mo6CmefwopXwpLJgbmmU0KwlJpWG9u2aa2B6gdr8aeYZtv1lFQXYwZlT5On2zRWjTZoTNK8rTU0rx4rWX0xj9F0ej5E5MOouaOZ7+z9Ds+8+k2e+d03eeW93YRDQbr6e+nu7yXQH+T3p/by/x3azM+PPs8vTr3A8eCB8W9o8UP87MjPeGhxpvdgFxvXv8D9W45w5GcPEV39YZ6/ZxEbd8GujYu4Z1IyvyIiIiIiIpKOCfeENThi7QLc5OTkMyPvKiIHF+MMzcJ0ZWF1Z2N1+zCdvZiQY9Cytm3T8tYHdHfl43TOxBiDw0BnR5je3j4K5xTScc4LuDEmONFQp72iqsepqN7Edn8Vw/Op5dS11tBc/CINdeWUT2hDyyhhG/v9UK7BvkXkQ+7106+z+/Ru9p3dA+EwNhEsLxRkF9Id6MEYQ44vj67es7xx/vf43F5mhGfgznVj2zbz3dPljfRGiq9Ovr+Yh352JPrfTx7hk1MRkoiIiIiIiAAZqYSNtgwIBJ1YjqsxXIHj8DxcB67CfXABrqOFeM5k4QraGCKDFj10sI3urgJcLh/GmIGgLAcez5UsWbwUY9xYlhfMeCthY9WVtZVDLtdvoNKsZjNNVBebgcpSfy1licv141Wi0XVUVpbFHhtpnYxjHRNQtIZ1pZt5caKtBBpeZHPF4wOJ3mFxpzpGw/ejoTKpxcGgCl0/tWUjtD5oHdjWxJ8PEZGJa/qgiV/5f8nC+YXMv7qQxcVXsOTaBeTO8dAd7KYn2I1vpkXhvEJmzirkRH8XP33zJepb/wV//+vj3Fpyy4LY/5+PtRFYNFCtevj5exKPLVq0iEUbdzG83UH8/i42LlrPC+zlidvj6xhp3tjdw89zT2Kbz484bdGijexi9FhFRERERERkbBNOwhqcsUrY2CBalg9n20w8Z314AhF89OGhD6/dj7HtxHI9PT2cbvfgco2cXL1i3hLmzfVgjA/rggbmaqK6ZW30Evz6Cpqqn6GBcurseiril+fXlQMNVBZvY138cv162JRIrjbRvHwrtl0Xqz5NtU7GuY7U/LWb2Fy6jjVpF1XFEpdp9XlNmnc11NfFI0kVd3GKYzR8P8rrBlolVGzeFGsn4Ke2rJht61oTbRISi9NE9SbYmtHnQ0RkYkKhEO+dOcrh9uMcP9dOR18XvcEAgVCAsB0iFA7S29/LyfMn+cWBf6fxaCMfnD9JZ6CTYCg0ZG3RROigBOqi9bww4tb38kTr3Rw5coQjW+5n7xN17AIWP/Sz6GNHtnA/97PlqdHqWD/JU0e2cD838rVfH+FnY/Y62MXG25/gmi1HOHLkCN/m35Li28XG2/+Nz/z6SCwm+F4i2Zo6VhERERERkalSXV09rsenUkZ6wlqWb1Ai1k0Qj92Hlz7c9OGhHzcBTNJi3d0BQqHRuyE4HW5m5nsxljfNgbmGKqXmkViqrnwtFTSzP1XfUf9+mgclKTfT1NKaWMe6QVnREdY5rnUkG1imuLqE+sYqRs/BlrK8OCmWpJ6wdeWMUEE6ZN7W5WyK92AdNe7h2x60Hw3xiuDVbE4cy+1sa6rg8ZT9aUup2Rrbv4w9HyIiE/PxKz7O8RMneGvfft5oepvdu37Pb3/5Cq///m0Od7RwsreVI0eO8N7ho+QFcljqm8uNVy0i4uqlyPfRIWuLJkKjCdQjSYnUkdzI1ypjCdZP3s39vMuhpALTXRvXw5anMttK4PAh3r3xa8Q3u/ihvxyI7/Ah3k1OJK9/gb2th9KKVUREREREZCoMTbhOxwQsZKAnLEk9YTEujHHjIoiHfiwiOLCxbBsIYhiohA2FIliWY+TVAmDwen1YxoMxLqB/4uGOqIL6YdWV473g/ULWUUpNa2OKHrAp+LezramEx0ebt6iKRrtq9PUUrWFdaTUtrUAxXFDc/lrKVkO9bVOOn9qyB9PYgfHIxPMhIjK26+dcz4+/9GN+8eYv6A/1g4HXju7jzJnTLHAVkOfzcfzcWQpcV3LLFbfg8bjwur3cWHgri73XTl5guzayni0cuejNXO9ny5GhiV/VvIqIiIiIyPRVXV1NTU3NtE3AQibaERhHogLWiv10EcZNPx6CuO0gboK4CCUqYfv6+jh78jXC4cCo67Ztm/PnDZgsYLw9YcehaBklbE665H2K1jGqBiqLqympz8Bl+P7tbGuKVdReaNytLTSVLo/mcP3b2dYUezzWt3Z6H0sRkcE+tuBjfLX8qzz52Sd58jNPcv1VN9AfCBKKRHA7LSJ2mI/OvYE/K6niT4u/zLpFD7E06yOTGNEuokWwyanQqym+cS+JwtRdO0ZpczDKvIuv5pq9T1AXy6sefv57g6fxQlILAhERERERkemrpqYm8f/kBGzy49PFxNsR4MBY3kGJWJeJ4CaafHWbEC4TwkWYUDhIy94f87Pvf4x/3fJZOk//atQ19/R2c6o9O9buYKyq2fEoZ21F8kBQ5dS11kB18QgDTaW3zomvY6jknq+bWN6a3F91Ausq3sa6RPXtSHEPPUZDlD9CDdUUG4N5sIWS0viEIqoa6ylJWt/Yh2Eyng8RkYnpDfZzrKMT/6nTnO3vYVBPnUm2a+N6XuAF1sf7yt7zPIdZzEN/eT8vrI89toNR2hyMNu8neWrLwLT/xmcGT/v11+CJ24cMCiYiIiIiIjI9DU24TscELIDp6OiwR5vhu89u4eEN68nLyxs2LRyK8Lk5mzi68Bwm1orAGBdLznmZEbKwiGBZFrgtshbuo6RsN2fa/fQHbHJn5FC25nsEHavJ8s0Ztu6enk7+9cXf8OrrtxEBsk608tCfd3DrPcuZP39+xg6AiIhkVmdnZ+J3Rya0t7cze/bsMecbzzZfeuklbrrpphGnb9rxN/z4nRfomx/EYRnyOnP5v258iA0r/jLtuC8Zh5/nnttb+cthLQguzJ49e7jzzjszsCYREREREZEBeXl5dHZ2jjg93pJgNOl+b0z3e2g6duzYwdKlSzPTE9YyXoglYI1x4XRYuBwObLeTWQvfZu6SfydgH+HEsWjyddVt67n5Dx9lVsFVdHf34m89RXeXG4fDQzgcxOUOMmduL4H+MPML+jnRcSGDcomIiFyYu0s+jc/1Mj8+fIT5s4rxedyULbhtqsOaFLvqnmDvjV/j6qkOREREREREZAKmawVs3MSTsMaBsXyxgbNi1bA5kD//beYtridgH6ar38bj8TJ/2Ro+/+C3mTV7YWLx7GwfK1Z66Onppbe3H4/HgceTQyDgJowD43RQmA/nj084UhERkbTccuXHyPb933jmvUKBr4BrfNewcuaqqQ4rQw7z/D2388Te+P372XLkIRZPZUgiIiIiIiKXuQknYQ2ORAWsMW6M5eC665/D5XqNrj4bj8dHxP7/2bv/4EbO+87znwbJ0VCa8WCsseKzY0sCKXGDKLkspCAXKSevdgTMjem9M3WGNqdUKjhVdkT41iNUruhbrHOnUpW1KIsXF8SoAsp75YLXu66s4TW1W6YUApoovqzlBBkxFUeLCyUOLC0TJ7bGcY80siXNDHF/4FcDaACNXwTJeb+qaItA9/N8n6eb/eM7Tz99r14unNDPB36uLgFb4XK5dOjQdTp0qPbZu+++q8vbht65PKYrVwyNTwxg+loAABz62aO/pJ89+kujDmMIbtKDX39ND446DAAAAAC4igxmJKxxsJaI1QH9zQ+P6eb3H9S27tV//dv7dfnKB/R28YKKRneJ1MtXDP34bUNXtiXj0nbfoQIAAAAAAADAThvMSFjXwdpIWE3opb99UG9fekATrg9JrgkVxydU3L6iQmFLf/RHf1Zd006x/D9vv/223vrxZb31E2l7W7qWHCwAYIDOnj076hAAAAAAAFeJIbyY64CuFN+jjfMHdPTaCR09fI0mxsc1Mfke/dEfHtKZM5dV1ISKxXFd2R7T5W1D29tFbW+XRrxeuSJdviwViwc1cWBaLmYhAAA4tJRMjToESPovL7MdAAAAAMCqrySsa8ylo4ev0Q9ckzI0UZeINYwJXXj7gN54Z0IT4+M6MHGNJiaOaGzsgGRMqLhdlIzSaNhKErYoyTUmHRizCfTHF3TkAwf7CRcAsI+djoRHHQIAAAAAALb6SsIahvTPPveL+o+f/wv9+OJ27UNZfyTJkFH3e3fGxov6ufuu03tvOqqJiYl+QgYAAAAAAACAHdX3dAR3feLn9VO/cK3efPPNQcTT1uHDh3X99dcPvR4AAAAAAAAAGJS+k7Aul0u33nqrisWiisXiIGJqWxcAAAAAAAAA7CUDeDFXiWEYMozephsAAAAAAAAAgP2KoaUAAAAAAAAAMEQkYQEAAAAAAABgiEjCAgAAAAAAAMAQDWxOWAAAhuX8+fOjDgEAAAAAgJ6RhAUA7GrHjh0bdQgAAAAAAPSl7yTsG6//RC985f/ThfNvyuUak8twqVjc1pXtKxofmxhEjBqbGNMvzk3rg97rB1IeAAAAAAAAAOyUvpOwn/0nX9Laf/03unT4Dd34gZu1de57evvyj/Wzd8xo889fk2G0mXbWGJc0IUPjMowJGca4ZEzU/7fGZRQP6Kd/56f12cwn9LO+fyCXi6lsAQAAAAAAAOwNfSVhr1ze1l/8lz/Xm+/7O02OT+rS2E90ofgDaUw6OHmNfjJxQYZh2KzpKidaD8gwtiWjKMOQDMOQIZdkuGQYYzKMYukzQ/rRuz/Wxrf/Rj/14WO64YYb+gkbAAAAAAAAAHbMwIaUGoah2267TZcvX9alS5dULBZbLDchw3VQhmtShnFQhjEpV/n/DeOgDNdBuVyT5e9ryxgqTW1w6dKlQYUMAAAAAAAAAEM3kCTsxYsXdeXKFb3++ut6+OGHdfToUW1tbTUsNVZOqB6Uq5pwnawmZGuJ2MlaYtZlWcY4MIhQAQAAAAAAAGBH9Z2Efbf4tiRpbGxMf//3f6+zZ8/qk5/8pC5evChJuu6663T99T+lY8feX06oTtYnYi0JWVfdCNnGZQbzki8AAAAAAAAA2El9v5jLVZ7LdWJiQi6XS3/913+tbDar2267Ta+//roOHTqka665Rj/60Vsyze3yi7cOVOeElRp+r76Yq/yZSp+JkbAAAAAAAAAA9qC+R8KO66AOHjyoN954Q2+99Zbeeustfe9739MHPvAe/fN//jP6lV/571QsFvWD139SP/K1/P8uy5QEpdGvDctU5ohlJCwAAAAAAACAPajvkbCSND4+rnfffVff//739c477+jXfu2/1+nTX9O1176uv/3+P9Cff+dD+slPxuRyXVNKphoHZHQYASsdqB8Ra9i/6AsAAAAAAAAAdrOBJGEl6cCBa3TgwKSuvfZa3f+//KW++4ah1167Va/+8JBumL0s9xvv0ZuvWJKslukGjHICVkZ94rWWrJ2QYVweVKgAAAAAAAAAsGP6no5AkgxjXIZrUu+8844mJiaUffWI/u2Lv6Av/9nPKfXtW/X8X96qd2+a0gHPT8s1NinDmKxNO1CZisDV8KKuyjLl7+R0OoJnH5JhGOWfh/SspGcfMnTXE5vNyz30rKRn9ZBhlP+7bgE9ZNylxtVq65VtPqG7qvUZMu56QpvV9Wv1G0bzT1NMAID+ZKNyu93Vn2Cy0Fs5haSC7qB6XX1gKu0JJjXYULKKWvrJ7XYrmh1oBQAAAAAAi/6TsMaYDGNSkweP6M03TeXzef0/mYP6gz+5SX/14ge1/Vc3aeKVD2vi5Q/r4JteXTfxSxo33lufiDUO2s4PW1vmYOkFXZ1sPqG7Pio9UyyqWCyq+IpXLz8rnfz4Kb2Qf6Vu0Wef/oJOffxk+bc7dedLH1VTHra5Aj3x2ZeUWDhZq++Wr+r+V8r1FYt65ra8XmlY6+RTle+f0SndqUR5+W89PO2ggwEAjmSjcofyiq+bMk1TprmuuRWfw0RsVlFr0tUTUcbMKOIZZsAOYgqlFE6bMjMRlUIpKBksJUyz0T6SzJIkv6WvTCUCg4kaAAAAANCs7+kIDI2VE6YHdOiQW+858iFtF27S+OX3yrh4rVxvXSfXW5NyvTUp490DGite0bXGUf1k8m/09sGL5flf7eaHtUxToAMyjEudg3klrxfu9OqWyu/TD+vhaUmbXt35haf17FMnVUqfPqunv3BKH3+qtur9v53QVz/7hDZPPqyWqdHNVX31tt/Wt6YlaVNP/EZUtz1TlDWXevKpp1qtDQAYmoKSi6WEZS1x6lFkOa4V35KykYT2Zo7Rr5kp6+8eRTJm6T8D5h5tEwAAAABcfQYwEtYlwzWpdy+NyzV2swz9Nxp79f2aOPchHSj8tCa23qdr/v5aHXi3qEn9RAf1tg7qXR378fV638UbNK7JphGwLsvoWMOYlMt1UDIcjIQ9+XGdeiGq32h8zH96Vvff+QU9XRnp+uzT+sKpj+ukdZlbHtZv32azrsXm6ld1W2X07OaqvvrCKX38ZMvFAQA7pbCmlVxYs41ZSc8Jzfnz2ixI1dGu2aSCddMVZBV1h5RSTjGfW+5oVk0jYwu1deof3S8vl4zaT4FQt15UWSfrVJepxVSL0zpFgvX30n9Ho8FyPaURs91PNVBfzpeTwbopC9yVgtq1yza++nWCyWSb/u2mnwAAAABgbxjASNjx6kjYykjW8deP6pork3JpW2N6u/T/xW25tC2XihpTUYa2NfnumN5jTur77xnTOweuaTECtvSZy3jLQTQn9VTxFT1x1y0yotKpZ4p66qQkTWv2/jv11Zc3pZPT5akImkesnnzqGT1t/IaemP2WmmcKeFaL0dv08aLlI8uo280n7tIt0Rck3anEK3brAwB6cf78+bbfHzt2rPQf/hlN2S6R08Y5qfQ8f06xxTmtm6Y8haSCvnklT2SUMNOSe1Ez65UpCKxZy6yivpi8aVOZgEoJQ19QyeqyOcU2FmSaifKUCJWRt1lFfSuaWzeV8UjKRhVMFhSItFunImAT07kOPZVTfmZdpumRslGFvGmZmXZjZUsJ3pgkKay0WanfUo6kX4+U+8C9qtlEoNwfrdrVSn0fFpJB+STFq9/11k+d9g0AAAAA6FX1XnNA+k7CyhiTyzUp65QCB3RJ1xTf1vjYFRna1lixqHHXtopXDI1pW66iNKZtGYbk2pamzMt6/fCEzl83WU261k9NMFF+Mde2g4Cm9fC3inp48wnddYuhh8qJ2OnZ+6XfWNXmw7N6+aU75V2wW/eknnrmaRmLz+rhxhzts0/rpcSC6j5+oTT/67Sk6Ye/peLDz+oh47O99CIAoA1HJ7/chqq51jrWR/r9ii+X51f1RLQQjmnVfqWawqbyCmuhkvlrWs+v+Onyl4FZhbWozYIU0KbyyilVTXRKCs/W4rBbp685aP2aO1EuYGpG/lRIwZl1ZVpObOtXfN1u3ltLOWXZaEhKl6c/KLRrVwuFTeX9cS2Xm+yJLCgcW6x912M/DfqiCAAAAACk4Qz46H86gvKcsNYpBSZ0SSc/+rx+M/L7uu8Tf6B/+a+e1K23nJPn5tf02FOf0yf/ZUpHDl3UAV3Re49cUPRzy/rVe7MK/8qz+ne/87/pAzf8qPrCrrt8f6rHfmtBN9zwo+7Cmn5YX0rcqS9U5iCYntX9+qpWn13VV3W/ZluNVD25oETTS7pKL+S637rS9K26TS/p5dazFwAAdornhOb8Ka02PnZfWNNKzqtp2zxkQZv5YQcWVtqsvfzK3Km3X3kiypimljXf5XQENrJRhZRueHHXoNs1on4CAAAAgB3SdxLWMMaqCdPKXK4HXJd1f3hV//73Pqbsv79bf/wNvyZ0Ra9/9336k7Xb5X7vG7r01gFNHBjXTy4f0/f/7ka98J8/qpdeOK5Lbx7W4/9HTJOTRRmug/rTvzihzddu0+uv/3TnYJ59QrUpXTe1+tUXdKe3MmHAtGbvl6IfjUr3z7Z++Zam9fCXEnrpox/VF6pFlV7IVT/FwEktJKToLQ/p2eZCAAA7yqPIQlipUNQykUDpEXjFT1se889pZa08r2ireWSbip6WV5YEbyGpxZTz9RYHNo/plGb85akVJCm7qlSnECIZrcf9ym/2GkNW0ZCUtiZFW7arTXyeaXlzMS1Vp5RdrP9uoP0EAAAAALvPYEbCug7WJWLHi0Vdendcn/q/viT34Tf1V7lpvfH992jCta0/e+6XNXXbq7ph5l25jlynD/38j/Taaz8j1+HD0nWH9PLLd+jvXvsZPfrJ/7P8Qq5JXbkyKcMY6xzKyVuVv8WQYRgyjFsUve0ZfcuSOZ2evV936s76Ea12yqNoK+peyFW32LdUfEb6qFGp86N6KfEl5oMFgFEIJGSmpVD1BU+lR+jrH8f3y7tRGh3q9sXkTVfmFw1oNmx9MVddwUqsx5UPlcv1rWhu3Tp/a8uAlFiPSzFf84utelJJNJfLWpXCrRbN1l5m5Yt5tWA7JUG5vW1eepWNhpRSqtanwaQKLdvVLr6AEunad/Oaq/9uoP0EAAAAALuPYZpmsd0CS8mUTkfCOnLkSNN3Vy5v63+84bPa+vAbdXO5et44KM/7TP3mb/++3v+h8/rq783pz/7zL8k1MSGNT+h/fvBrMsZcWvn9/1XB/+lpPZf9VW3roDR2QMH/4d/pzB+F9fCn5nX2pXv0VPoz+tWPJfT0v57Vg/Omfvk+rz74wQ8OrUOaPauH7npZC996uM3oWQBAxYULF6rnjkE4f/78gOb+zCpa96IrjEwhqaBvQwumk2Q2AAAAAOyswd2HSplMRlNTU4MZCesyaiNhDeOgxsdcevPC9fr8v4jq61+a06/972n98ux3ZBw+JNfh6/T/fvPj+uV/9Ec6/P5LuqTDujJxRMWDh7V94DoVx67Ru66j+r1/86917698Vf/kI/9JLpeTF3INy0k9RQIWAICByS7FlPPPaKrzogAAAACwL/SfhDXGZLgm5XIdLCdhJ2VcN6lf+thLMg4dUi53r/7Dv/11zfhelq69VsXJ6/TDt27Sxsu36zcj/0pn//Kktg9cpysT1+rK+HUqusZ12XWtfnTxA3riSyk9+E8XdPTwu3INIF0MAABGoaBksDb1QSgVVjoTEQOSAQAAAFwtxvstwNBYeSqC0nQEMiakayb00X/6B/rx9g16/fUP6md8ef3xH39MOnhIxbFxFY0JPffHv6Z77/l9/fCiR9uuCRWNA7ruujd1803fkcYv6Z13Dunlrf9WX/wPn9OH3p/X+ARZWABAPwJKmDz8PhoeRTKmIqMOAwAAAABGpO8krIyx8gjYWiL24viEfuf/fkzu917Q+298XV97+pP6+zc+KE2UErBF1wG9vPXLev0/3arLrmtVLE7oSnFc10z+jX7/mX+hg5M/1I8uHtaVoqE//JOP6z2H79SlSxcG0FwAAAAAAAAA2FmDGQnrOlh7MZcm9MNL1+iv33iPfvTOjfru98uJ1/EDpf9X6Wd7e0J/+yO3isUDulKUtrcNffdvbtWVbUNXrkhXtg1dvlLU5cvSm2/doGu3ScICAAAAAAAA2Hv6HwlbfjGXjAN1UxJ898IBHb12QkcPX6OJ8XEVNa5tHSglYHWgNPr1ypgubxu6sl3U9hVDl7elK1eky5ek7WKx/9AAAAAAAAAAYMT6SsK6xlw6evga/cA1KUMTdYlYw5jQhbcP6I13JjQxPq4DE9doYmJCY2OlJG1xu6jtoqHLV6TLl6Xty9J2u0B/fEFHPnCwn3ABAAAAAAAAYMf1lYQ1DOmffe4X9R8//xf68VCPWHEAACAASURBVMXt2oey/kiSIaPu9+6MjRf1c/ddp/fedFQTExP9hAwAAAAAAAAAO6rv6Qju+sTP66d+4Vq9+eabg4inrcOHD+v6668fej0AAAAAAAAAMCh9J2FdLpduvfVWFYtFFYc8j6vL5Rpq+QAAAAAAAAAwaAN4MVeJYRgyjN6mGwAAAAAAAACA/YqhpQAAAAAAAAAwRCRhAQAAAAAAAGCISMICAAAAAAAAwBCRhAUAAAAAAACAIRrYi7kAABil48ePd73OmTNnhhAJAABwgnM3AOBqQhIWALBvnD171vGyd9xxxxAjwa6Qjcq9OKP1ZWnet6EFM6HAqGMCANTh3A0AuFqQhAUAAPtTICGznHXNmKMNBQAAAMDVjTlhAQBXja2tLZ08eVJra2ttlsoq6nbLbfmJZstfFZIKuoNKFirLVf67gdPlBs5pTLvBMPvFrmzrZzu5TUZth/q50/616/Y/AHuF83N3u+P+sO2D84qj43S7du6DPgCAISMJCwC4KmxtbenUqVOamprS3Xff3WFpv+LrpkzTlLkeVz4UVVaSPBFlzIwing6rO11uJ+3GmK4au/HGdMAxddq/2P8A9KC7czf6su+P07vxXAzgakMSFgCw71lv4hYXFzU5Oel8Zc+0vMprk4t2AAB2TF/nbgAAdiGSsACAfWNtbU0nT57U1tZW9bO+b+Kyq0qFF8ojQ2xGUZxLKlietiBY/aLTtAA2Ux00fBdMJpsen49Gg3K7S6Nys1HLlAl1hTiMqS6O8kjfWiBKBhtiy0blDiZVaNuG5jhbtT2Y3GzTL5V1yzFna99Fs1IhGazWHexnSIttP7WPpda2Uh/ZT1lhXTerqDuklHKK+Urbyhp/3fZr1wfJaMc2t90nqmW55Y4+3hRT8z5b/7uzsivL2/WNk/3PZv/ps08A7H5DOXc36fJ80vJ8rPbnT0fXBDbT47Q6nrWMo/E42/68bX8MbzzmdnHcb3X+tOr3+L1Hz8UA0A5JWADAvnH33XdrampKp06d0tbWVh83ceWLdLdb7pCUTgRaL7coLZenLVBsvvNcar6YvGnrVAeWGzHLd8taUaqhrvzMskwzoYCkQKJchplWOLVoqdcSUzqsXGypORmqrKK+Fc1VplxIS4t1gXsUWQgrtVpbM7uaUnghIk/bNjTH2art9e1rF099e1Iht+a1XF6uVfucaLXt2sdSbVt2STFvurwNTJV2Ebt1p5Qw0wpXprhIBOSJZGrbTuHy/tWhDzZmO7a59T4hlW7YQ1LalJn4dFNMnbQvu4Ft39Qt4KyPB9AnAHa/wZ27O3F6PhnA+crRNYElLtvjWZs4mo6z7c7b7a8Z7M/ZDq8zWraz3+P33j0XA0A7JGEBAPvG5OSkFhcXqzdzvd/EWeeEndFiyznE/Iovl25w5IloIZzTxrk2xRY2lVdYs5U7Hes6hU3l/XGdDlS+WlC4oa65E5aJ2rKV0RihhmStJabArMJ2UykUNpWvSzSnlGsMPDCrcGq1eiO4mi/H1q4NdnFa62zVvrbxNLbHUn6r9jnSYtt1iKVa99SM/KlQw4glB/1qkY2GpHT5xrdTH1Q6rl2bW+4T0sq8Tytz6zYJUYfalN3Erm+snPbxIPoEwK43uHN3Jw7PJ4M4Xzm5JrDGZXc8axeH3XG21XlbanvNYHvO7rBOx3b2e/zey+diAGiDJCwAYF+x3swN5CbOc0Jzfic3UgVt5nuvpiuFpEqDGk2Z5rri/l4KCZfXL/80ZecCOh3PazFZUCG5qPzcCQ33XR2d4unGlGYa+6Swqby8mrZtROO2cxCLJ6KMaWpZ8w1TMjhsRzaqkNINSdE++qDtPpGT5G97E9p72TZa9o2V07YOcr8AsFv1f+7u9rjfDyfHpSFfE9geZ1uct3u5ZnC8Trt29nv83oPnYgDogCQsAGDfmZyc1JNPPqknn3yy/1E0hTWt5PyambL7MqeVtYJlOcsIUTueaXmV0qplzrLFVHkdz7S8uZiWqlOSLbYecXhuQzn/jKaq9XbZpnIcix2ek/ScmJNWlrS04tVC5XXJ7drQqc5W7XMYj3MeTXtzis2X57CVlF2KKReetTxu2WLbdRmLJ5LRetyv/Gahi3WzijZOc9FvH7TdJ/yaW84orTajUzWlGes/NmRXa9unx/2trm/qvnDY1oHvFwB2s/7O3U6O+06L6vV81eqaoM3xtdc4Kos0HGdtz9u9HMPbruPg2qff4/dePRcDQAckYQEAaGJ5FM23orn1jCK2I2n88m7Ml5eLyZtunlOtXkCJ9bjyIWvZlXUCSpTnqHO73ZrXXMN0BNZiTiuumHxut9zzG/J2PRK2FIdivvYvW/Kc0JxSSnmtN7Ht2tChzpbtcxhPNy1MrNf6yO1WKB/Xet1ollbbzmEs2drLOXyxys1uq3UDmg3XXgaSjYaUUkqhyjLBpAr99oGDfSKQWNfciq9anzWm6jzAle26qtr26XZ/s+2bukgctnXw+wWA/avzcd9xST2er1qdV9ocX3uNo9Vx1u683cs1Q9t1nFz79Hv83qPnYgDowDBNs9hugaVkSqcjYR05cmSnYgIA7GEXLlyonjsG4fz58zp27FjH5Y4fP9512WfOnOklpJ1RSCro29CCzcsyAADYD/bEuXu3nI93SxwAcJVweh/qRCaT0dTUlMYHUhoAACO2qxOqPcguxZTzx2U7CwIAAPvAXjh375bz8W6JAwDQO5KwAADsCgUlgz7FqvOuhZU2I0N+GRYAAKi3W87HuyUOAMCgkIQFAGBX8CiSMRUZdRgAAFzVdsv5eLfEAQAYFF7MBQAAAAAAAABDRBIWAAAAAAAAAIaIJCwAAAAAAAAADBFJWAAAAAAAAAAYIpKwAAAAAAAAADBEJGEBAAAAAAAAYIhIwgIAAAAAAADAEJGEBQAAAAAAAIAhIgkLAAAAAAAAAENEEhYAAAAAAAAAhmh81AEAADAIx48f73qdM2fODCESAADgBOduAMDVhCQsAGDfOHv2rONl77jjjiFGAgAAnODcjb5lo3Ivzmh9WZr3bWjBTCgw6pgAwAZJWAAAAAAAsDcFEjLLWdeMOdpQAKAd5oQFAFw1tra2dPLkSa2trbVcppAMyu12N/9Es60LLiQVdAeVLAwiyqyibeorxdeprqyiLZdp991VJhu1bOOo2mzh4RjoftOocTsXlAx22I8Hqa5tlliG2mYA+9HeOXcP8Ng2kNjK1xOWn2DbAq1tGFB7hn7Mt4tzCO3YCyrXNMGkWjeX60Ng1EjCAgCuCltbWzp16pSmpqZ09913t1zOE8nINM3aTzosKax0os2DbZ6IMmZGEc+govXLn1+0uRDOaimWG1QlV7dCUsGQlK5s5/UZbWal3m9Celhv4PtNa9moTytz6zLb7ceD1KptO9hmAHvf3jp3D9DAYvMrvl7rl8xON3Y39/FQjCqRmVU0lFI4bcrMRHTVdDewB5GEBQDse9abuMXFRU1OTjpcs3JRu/Nzi3m90spaw1V8dlWpcFjhHY5lXzq3oZx/RlOV3z0RRfbpBHKFZFAhpXf+5hsA+rAXz93A6Pg1M9V5KQCjRRIWALBvrK2t6eTJk9ra2qp+1vtNnFRILioVTqtuIE0hqWDTI+wNIx8sywSTyZbftXsEfub0gryxJcv3BSUX84qfnm0MsnN5dfFsWr5oHLFh8whfMmr/GGPXbexQXnXVoM2jpA7izNbqjGbry7F9/DIwq3Aupvm677KKukNKKaeYr/YYazZq92hrqd5oNCi3+xP6hM16nbdTb/3duH4phhbbfi0q38qc1htHg9WVV+qzur511J/NyzZ9ZzOa2+m+UmvXkPZTALvCfjp329dnPcZ2qKdqAOe5NuzPa07b0/laY3DnufJUOnb92I1zduep9jHXzkEtYmhat/kaoudrmq7OafX1Vpdvt81a9YdVP30DoCWSsACAfePuu+/W1NSUTp06pa2trb5u4lRIaj4mxU9b7+KyivpWNFd5tC8tLTZdvGYV9cXkTZeWWdaKUl2tXxHQbDil1erF/ppWNKcTdYMZ+42nk5xiG7PVRztz1aRwr21sVV5N7ZHStMKdHiW1xrkoLZfLTYXcmtdy23qkgBLmuuZWfJYbh4ASZlrhyuOb5boDCbMWU8o6TURO+ZllmebX9DWb9Wqcbvd2/d26T0sx2I34yikWSym80PhoYv32M9fjyoeCde1y3p+WZdfjUmy+iyRnr+3qpt963fcB7JT9de5uLqv+GNvrcamX81x5PV9zkqz1ea1Ve5z03xDOc9klxbzp6nQKvc2o0+o85fAcZBuD3bpTTdcQPV/TdHVOq792KT310uFazLIv2e87/fQNgHZIwgIA9o3JyUktLi5Wb+Z6volTQcn5mBRfrp/HrLCpvPWGJpRSbuNcw6qbyvvjqtz/eSILtekDnKxvETgdV36x9IKF7FJM3sZkWr/xdOSv3cgGZhVWXpuFftrYojwb2WhIcvwoqV/x5XLfBGYVll9zlWx123o8imQqN8htRnBUX+AVarhZttTTjuPt3qa/2/Rp6xj8iqcbE6yV8sKarXSuJ6KFcE61kLrpT8uyTeX00y8O+7YSQ7f7KYBdY7+du9seY3s+LvV6nqufE7aaJGt5XmvVHgf9N4zz3NSM/KlQ1yN9m+q0O085PQfZxdDlPtH1NU2/57RO12J1+5LNvtNP3wBoiyQsAGBfsd7M9XYTJxWS84oprmXbOTTDtZc5mXajHjvpYn3PCc1pRWvZpBbztQvvwcYzDH3GlI0qpPTOjajwRLQc9yu1apOFrXuB17ri/l4r2cH9xmoqokzaq5jPweOzfStoM9/tOrtx/wWw0/bVuXu36+m85qT9Q+hjT0QZ09Sy5ls87j6lmcb4C5vKy6tp23/HazxPOYi5ZQwO27vT1zRVO7DPd9w+ABqRhAUA7DuTk5N68skn9eSTT3Z9EydltRRTbZSAlWdaXqXaP4bomZY3F9NS+UK0kFysjTJxsn59YYoseBULxaS5E4OPR1Oa8VtGLmZXnT0WOdA2NsqqNGDEerHfY5xtq0laRocWtLaSk9/ujRbWF3gV1rSS66Gufvuk3/UDCa3H8woFS6OqK+WtWua1W0xZRm11JVd7gVxhTSu5Lspx3K4h7KcAdp19c+5ud4zdDcelbs9rTvtviOc5TySj9bhf+aYhmx5Ne3OKzZfPbyo9OZQLz1pGnbY4T3UZc10Mjtcd4DVNN/vODl93tN4+ABqRhAUAwCIbtbxUoellCgEl1uNSzNfmhRYBJcrztbndbs1rzvK4mJP1G4s7rbg/rAXbkT39xuNRZKH2nXtVDh+LHHAbLUr9n1Kosm4wqULPcbZrwrQ2qtvYp5g3XZ5HLaDZsOUFW4HTiismn9st9/yGvC1HDDWs1/BdP33S//qlG6S0NyZfMKlCubx8pT99K5pb7/Ut4n55N+bL5cTk7ept5E7bNYz9FMB+srvO3e2OsbvguOT4vFZdwVn/DeM8l629oMoX89peCwUS67X2uN0K5eMNL6NsdZ5yGLNtDK3Wrb8WGOw1TTf7zg5ddzjYPgDqGaZpFtstsJRM6XQkrCNHjuxUTACAPezChQvVc8cgnD9/XseOHeu43PHjx7su+8yZM72E1J1CUkHfhhYcvWBoj7oa2ggbWUXdi5pZz2hP3HexnwK7zlV/7ua4hF6x7wBD5/Q+1IlMJqOpqSmND6Q0AABGbEduynqQXYop54/L5kH3feNqaCP2PvZTYPe52s/dHJfQK/YdYG8iCQsAwEAVlAz6FKvOsRZW2rSZo25PuxraiL2P/RSAUzt1vOC4hF6x7wD7AdMRAAAGalTTEQAAAAAAMAjDmI6AF3MBAAAAAAAAwBCRhAUAAAAAAACAISIJCwAAAAAAAABDRBIWAAAAAAAAAIaIJCwAAAAAAAAADBFJWAAAAAAAAAAYIpKwAAAAAAAAADBEJGEBAAAAAAAAYIhIwgIAAAAAAADAEJGEBQAAAAAAAIAhGh91AAAADMLx48e7XufMmTNDiAQAADjBuRsAcDUhCQsA2DfOnj3reNk77rhjiJEAAAAnOHcDAK4WTEcAAAAAAAAAAENEEhYAgEbZqNxud/knquzOB6CoO6hkweHihaSC3Sy/62QVHUk/96rL7dOyDLdlP3MruuMdMIh29FJt+e8rmFTrqq2x9ROnZd2+/04cxNGqjmxU7n43cE9lNMTcse+b98vgIHeQgRyrRrTf9qOx3x39DexWO9//W1tbOnnypNbW1tostdfOIxriubvH80vXx+ZBfdciBqf902653XB91FMMWUWDSRVUUDK4Q/t1z301zGNCY9kFJYPu/s+n+9YI9ht0jSQsAABWhaSCISltmjJNU+b6jDazUu8XmTtww+qJKGNmFPEMsY5daw8mZKr8iq9X9rO48qFOF8w72dZh1ZVVNJRSOG3KzES0o7vsTvyd2NZRUHIxr/jpQB8FD6IMp31v2S/NtLwxn4MbXof7y74+VpWSA9GslI1ak9eN/T6Iv4G9fNzrztbWlk6dOqWpqSndfffdAyhxlH3XUPdQ/x56OL+M6tjcKgan/VO33E72sUO7IQYn9kCc2ahPK3PrMhP9nAt32tVzvIYzzAkLAIDVuQ3l/DOaqvzuiezqC1LsE55pebWizYIU2Pf7m18zU52X2jcKa1rxLijTz3YdRBmSuu/7gBLrceV9q8omAtpLt707z6NIxiz9Z8Bs6KvGfr/K/gZ6ZE3ALi4uanJyctQh7U2Ozy+7Yb/cDTFgNyokgwopLZOLcuxxjIQFAMAqMKtwLqb5un+yzirqDimlnGK+2mNQ2ajlcb/qSLHSv3hHo0G53Z/QJ2zWKz3y5XS6g/JjhW3XtXl0Oxm1f5y4Y929rN/4r/wNv3fd3lb1lx9Dqz5e2f12sSu3kAzWPbZpO+rP0oZgcrPld7X2NcbattFSdlWp8EIt4d9Upl1brftaqV77tneI55y1bQW12t/bbftaDO3aXV9upf9bx2zHQb+23FY97Je2ZdVGPNaKjpYf4W0e8VJYW5F3tpKSK3+fbezz9m1zXkarmO373hHPCc35U1rNVprauL2631+aq2/V9m722+b216/T4dhWF4617KSz/ca23sZ+/7LNduj2mNuivyutjNq02Rq75dhhf8xuPq50f/zrztramk6ePKmtra3qZ/0lYFv1aT/HtnZ/d+37rNMxvP2+5aTsTt3R3fml2q529bT6+7Pqar+xi8HptU1luW77uIvjQ7vjWcdjShfXaFUBJTIReeRRJJMo/6NO8z4YzdZfw1jLanlubXl8s8Y5rGNyt31XthaVb2VO640jYDttT0d91V2/dteeXu8f2v2tt+s7u/0Guw1JWAAA6gSUMNc1t+KzXNAFlDDTClce7ytfBAYStUd2w6lFyw1tTvmZZZnm1/S1pvWyivpWNFd5TDAtLba88CwoWZoboct1c4ptzJaXCSsXW6pduO3I+la9rNOi/uySYt50uc9NJQLdbxe7cj2RTG15hZVueswtq6gvJm+6VO6yVpTq1L6mWFu001e+uA7JUq9dmVO2ba3ta6WLbfu2F5QMlh/ha4onp9iitFzXJ3b92m47WmJo2+76cjPljEDr7WWjY7+221aNy3XaL1uV5VFkIazUau3uM7uaUnjB7hHerJZiXs3WxWnp8/W4FJsvtbll27ooo2XM9n3fi+bt1e3+YsO27d3ut83tLz2GHex4DGgIpvu/95b1Nvb7r7fYDt0cc1sdC8rbZ9ayb2ZXlfdLK2vlf3BaW5GzYYbW40ov/dGdu+++W1NTUzp16pS2trYGNALWrk/7OLZVyrT9u7Prs+62m/M4ujiP93h+Ke2X7eOx//trbE83+41dDE62qZX9NUGrmJwfHzr0RcdjSrft6LCupe9TIbfmtWxblv251eE5cqDH5H77LqdYzO4c62B7Ouwr58t2255e7x86/a33sw9h1EjCAgDQpPRYaemCrs0oxuoLvEINF7F+zZ1okeQobCpfd3OUUm7jnO2iK/Oli93qRa7jdf21uSMDsworr83CTq7fW3s71j81I38q1HkUX5vtYltudbWQlLYZOVDYVN4fV2VVT2RB4U7tcxSrdc6+GS1WXyDVTZ817Gt2bS+saSUX1oLtTa1f8eXyjY1Nn9T1QcuYLDE43UZWLbeXjU7lt9tWjtvjoKzArMKp1epN2Wq+tlx921aVj59uejS92ueeiBbCOW2ca9O2bspw2n6py9F0lkeEnWyvbv/u7drey35b2FRe4VrC2to3lfXaHAOqsXf7996x3k4GeMydmpE/v6mCpOxqXnMLc9LKmgoqaG1Frc9NDfFUl+ulP7o0OTmpxcXFaiJ2MFMQONjWHdvQeC5v8XfXuOzAz5W9lN3n+aVDPB3PG0PZbxxu01Z6PT506ouuY+qnHY19b9k3GsuyvR5weI4Y6DG5377zK55uTLDK2fZ02ldOlx3UvuDk/mHg+x12C5KwAAC04oloOe6vG/FWVfcCr3XF/d0UHK69+Mu0G60hSTlJfpsbEyfr9lv3oNfvt84yT0QZ09Sy5psfg6vodbtkowop3WLEaic27XMSq5XnhOb81puHHvqsr33SCQcxddvubmPutvy2+tkvAzodz2sxWVAhuaj83AmbUbCll2m1T3oVtJkv/6dt27osoxvl+krtb/PYYmFNKzmvpj3qcnt10b8D3a7DNqDj2bDq85zQnFa0VshqNT+nE4ETmtOGzhXWtKI5OcrBDjO+FqyJ2J2fA7aXNnT6uxvmubKHfaKn88sw9/Wd/jvq1x6Lt9/rgV1zri2biiiT9irm623Kk8Hqsz3DOo9izyAJCwCAVTZp+Zf2gtZWcvLbPb5pfYFXYU0rOYfle6blVcrBI5t+zS1nlJZlJILjdfutu9v1pzRjvcHLrtb+Zb/fOu3CiGS0Hvcrb/fP/j1tl6yidY9rNlY4LW8upqXq9IGLjtvXNlarwppWcuXRhr32Wau2l+f07GsbdBmT43b3+HfUsvx226pxuU7t6VCW58SctLKkpRWv/cig8su0mr/KVR8Pr4wssk41UNe2bstw2n7HKo97lpO0TrdXj/twXdt72W/L9Vb/3ayQ1GIq3DCVg4Myuv17H0S9rWLpuh89OjEnrcxX/nHAoxNzea0ubUjVfyxoc8y2i6HH41+3Jicn9eSTT+rJJ5/cuQRsV21o/7fbW5ldrtNL2b2cXwZxvbBD+01XMfXydzqqePvR8nqgu3PEoI7JA+m7QELr8bxCwaQKlrIHftxtZxDtGfJ5FLsfSVgAAKwC09qoPPrj9inmTZfnJgtoNmyZWD9wWnHF5HO75Z7fkLflv2Q3rFd+27hiPvsXJjSunSjPTxtMqtDlunaxDGf98hyZofJnq7I83tZvnRbZ2ksIfLFK4qvX7WItNqSUUgpV4qtc4FvbkK61b15zndtnG2sjy2NmvhXNrWfKybZWfda4LzVo2XaPIpm0vJbyOm+CHvdbR+12EnMLHctvt60aluvYng5leU5oTimlvLO2o0jrX6Zl5Zd3Y7683S0JTpu2dV2G4/a3Y9kv3YuaWbfM+9dye/V3nLPfrr3tt4nyNDK1v6tuX07Sw9/7QOpt3Z5ujwWeE3NSrjb1gOfEnPIp64jqdsfsQfTHbtbPvtrq7665ju63m9M4nC7X7fml13paGdV+07mPu/873YP7eZtjtaNzxICPyYPqO08ko7Q3Jp/lmnjwx912emlP7/cPe26/gyOGaZrFdgssJVM6HQnryJEjOxUTAGAPu3DhQvXcMQjnz5/XsWPHOi53/Pjxrss+c+ZMLyEBQAdZRYObOp2xeZGIe1Ez1YTIsMtA3wpJBX0bWmg3ZQN6tnfO3fzdYR/i+Aa05fQ+1IlMJqOpqSmND6Q0AABGjIQqgN0joESm31vaQZSBfmWXYsr547KZlAYDwLkbGB2Ob8DOIwkLAAAAAJKkgpJBn2LVefrCSpuNo5EBYC/i+AaMGklYAAAAYEcElDAHMEK27zLQmkeRjKnIqMPALsPfHfYDjm/AqPFiLgAAAAAAAAAYIpKwAAAAAAAAADBEJGEBAAAAAAAAYIhIwgIAAAAAAADAEJGEBQAAAAAAAIAhIgkLAAAAAAAAAENEEhYAAAAAAAAAhmh81AEAAAAAAK4+Z86cGXUIAICr0PHjx0dSL0lYAAAAAMBI3HHHHaMOAQBwFTl79uzI6mY6AgAAAAAAAAAYIpKwAAAAAAAAADBEJGEBAAAAAAAAYIhIwgIAAAAAAADAEJGEBQAAAAAAAIAhIgkLANg/slG53e7yT1RZZysp6g4qWRhybMoq6nbLHW2Mqp/6u1i3kFSw47I71Rc7wFF7AQC7y/OK3Xijbow9b/P5ffriq/2W3WUZr35R99muU47T8tMU8q7UYz8+Hyu1874vqvWq7coexPYDgL2PJCwAYH8oJBUMSWnTlGmaMtdntJmVdiax6LQOv/z5kJrysDvBE1HGzCji6bWAPZag7bu9AIDRuF23b4R3R1Lzpgf19de+rgdvsvvydj3yzdf02muv6bVvPqKNcEzDCXnUCcznFQt/RQ+kXtNrX39Qtl0BAHCEJCwAYH84t6Gcf0ZTld89EUUCowzI3txCXPnFpPZKLhMAgJ32sU89oo3fbTfqcpe56WbNaEPf3TMBd+t23XLzqGMAAHvf+c53evpuFEjCAgD2h8CswrmY5uuGamYVdYeUUk4xn2UqgEJSwfK0BcHkZn05lu/cbrdl1GrjSNDK7y3qaGUqogVvY5yWiKO1uuvLKigZtItL0jlreyrlluKLRoPlqRka4++mvM79WJv+oVxPsjY1RLCrtrZev5AMWqabcBhHpeq6bZ5s+Z2jdmSjcgdJpAPA0Nz8oD4186h+y3b4Z+PIUOvvpf+Oxe7TjTe2GJn63S/qvvIUAvdZy3+19nltXYejUJ/P6CsPsClwxgAAIABJREFUfKo2YrZdWV+MVacwqNXfqk3PK3ZjWF/Ri3r0I6VpGl794n110yBUp25oU2dTfzjug/r6q8va1tWhbKuu+wcA7F28eFFf/vKXlclkmr7LZDL68pe/rIsXL44gMnskYQEA+0RACXNdcys+S1IxoISZVlh+xddNmYmApKyivpi86dK0BctaUapaRv135npc+VCnR/Dt6ugQaSItb2zettxAoly3mVY4tVhepqBk0KeVufXyd6Zq1eQUW5SWTVNmOqxcbMkyF25O+ZllmWZC9VF1W16rflzR3Ho53rS0WG1QTrGN2fLnjTF1amvr9T2RTG15hZXuGEdFp23eXzsAAIN3TzylmUd/q4fH8F/Uxi2f12uvxXWPzXeP/q70+fIUAqqW/7xiH/mGPlaZXiAl/W7HisuJ0Rtv1I1hKRWv1NaurBf16CvB8ucP6MVHn+owhcE9ir+W0gOVqQ/i9+imB79eWv+1lB7QA+V629dZ3x/d9MHNdfV//cGbOrevUnbL9g2yfwBc7Q4dOqRHHnlE2Wy2LhGbyWSUzWb1yCOP6NChQyOMsB5JWADAPuJRJFNJnrrt514tbCrvj+t0OenoiSwobP1OYc1WEpKeiBbCOW2c6zIM25GVVgEl0l7FlmwCrL5cLFRLFBbWtJILa8F2glO/4ssReaTSaGDltVmofTd3wmadnsuzlrGpfGVkrNstdyilXLWj/IpXOrhdGXZtdbB+NhqS0uXEcts4LLG23eZdtiOQkJkp9xEAYEjuUTw1o0ef6jYNd7s+9o9bzVx6ux75fHle05se1KceeFGvfFfSq9/VRl1S9St68ZXvdqynNifsLfrdykjWtmXdrkceKidr7wnqgT6mMHg+FpZS5cRqhzrr+6PPPujUvkrZrdq3Q/0D4OrRmIjdrQlYSRofdQAAAAycJ6Ll+Ip8q1k5GJg6lPozZqT9MoHTii/6FM2ma59ZXi4WUEHJ4Pxw4+xbWOmmUbYOx4r22tZsVCGlZdZV2kccA1kfADAU9zykR373I4o9n+q8bNde1Xc3JAUrvz+gVNPoWYcJ4Jv+sT52+6OlZObNfZblxPMxhZXSa3UV9FJnr33Qb/uG3D8ArjqVROyjjz4qSbsyASsxEhYAsF9kk3Xzna6t5OSfmWpezjMtby6mpep0oou1UZieaXmV0mol/1ZIajFVGRk7pRm/ZVRsdlX93RJ6FFmOKx+yjAK1vlyssKaVXGXRE5rzp2wes++16gGUV+6rnsto1da2sioNgrWkS53E4WCbd9UO5oQFgB1ykx78/CPaCIf1lepnN+uW28ujN6XSfKyOy3tR3/jDyrymf6hvvPiAgveo/GKtrziYgqCFV/9Q33ix/PKqnsrqpk3PK1Y3/UG3dfbZB/32Vb/rA0ALlUTsbk3ASiRhAQD7RWBaG5VHyt0+xbxpZSIeSQHNhq0vlAookQ4rFSotO6+52qPpCihRnsrA7XbL7VvR3HplhKRHkYXaeu5V1a1XX4dDnoiW435LG04rrph8brfc8xvyVr/yKJJJyxvz2b9Iq2u9lGfTj+txyVJGV21v2dbWstGQUkopVKkvmFTBURydt3nP7QAADNdND+rzj9xu/UAPfuoBfSVcfpw9Iz3guLDbNfPKb5XW+8ijmqk8zq97FP/mI9KjH2l+4VVLlkfqP/INfeybXy+/mKuXstq16R4FH6i9mOv5WFhf0VcUrpR93xf1ald19tsHvbRvkOsDQGuHDh3atQlYSTJM0yy2W2ApmdLpSFhHjhzZqZgAAHvYhQsXqueOQTh//ryOHTs2kLIASaWpEHwbWmiaggAAsJPOnDmjO+64Y9RhAACuImfPntXx48c7LjfI+9BMJqOpqSlGwgIAgKtLdilWmwoBAAAAAHYAL+YCAAD7XEHJoE+x6ryzYaXNiDyjDAkAAADAVYUkLAAA2Oc8imRMRUYdBgAAAICrFtMRAAAAAAAAAMAQMRIWAAAAADASZ8+eHXUIAADsCJKwAAAAAIAd5+Tt1AAA7BdMRwAAAAAAAAAAQ0QSFgAAAAAAAACGiCQsAAAAAAAAAAwRSVgAAAAAAAAAGCKSsAAAAAAAAAAwROOjDgAAAAAAcPV5/PHHRx0CAOAq9OlPf3ok9ZKEBQAAAACMxGOPPTbqEAAAe8iFCxf6Wn+U/wBIEhYAAAAAAADAnvDcc8/1tN6999474Ei6QxIWAAAAAAAAwJ7RbUK118TtIJGEBQAAAAAAALBnFIvFUYfQNdeoAwAAAGiSjcodTKpQSCrojio76ngAAAAA7Brb29tNP0ePHrX9fHt7e9ThSmIkLAAA2I0CCZmB0n9mzNGGAgAAAGB3aRwJe+zYMUnS9ddfr/Pnz48ipI4YCQsA2Ceyirrdckftx0wWkkG53UElCz0UXUgq2Ou6trKK9lheNtq6jf1rF5fTmHtvW+v1rZ/1Wz4AYLfafOIuGYZR/nlIz446IADArlUsFqs/lQRsxbFjx+q+3y1TF5CEBQDsI37584s2CbqslmK53ov1RJQxM4p4+oltAApJLebDCtu2EcNB0hcAdsor+Rd06pnKDfNTOjnqgAAAu5Y1wfqDH/yg6YckLAAAQ+b1SitrDRmz7KpS4bDCowlpYAprK9LcaZ2es2kjAAB73p3y3jLqGAAAe8Hly5e7+tkNSMICAPaVmdML8saWLC9yKii5mFf89GzdctmoW253+SeaLS0XdCtYGfJYeTFU6Zfmx+GzSQXL60ezlekOSr8HLcMmm+uxUaiV5W75EqqC1lakuRMeeU7MSStrstRSiikZbYrBGpc1hrZxnavFE3QyBLRgXX7TQdtK8UajwTbt7aBVjI7qK21rt2X72a+bVdQdUko5xXylfrLvz8bRsjb7i822ae67ZH05bdpiW17dPgsAe82mXn7pBUVvKU1HcNcTm51XAQBctRpHunb62Q1IwgIA9pmAZsMprVYTa2ta0ZxONEwlEEiYMk1TpplWOLWoZMGjSCZdTuBmFQ1J6UxE9jMQ5BRblJZNU2Y6rFTIrXktl8pLh5WzJIGb62ksK6uob0Vz6+Xl0tKiXeLT2g7PCc1pRfWDYXOKbcw2xeCJZGr1K6x0ItAhrvq25eoS2nayivpi8qZL5S1rRSlHbcspP7Ms00wo0LZ8O5YY1+NSbL6W8HRSX3ZJMW+63H5TpS6xW3dKCTOtsPyKr5syE4GW/dkxXptt00/f2ZcHAHvZtB7+VuVm+RndFv0NkYcFALTy7W9/u6uf3WB81AEAADBogdNxLc4nVQhEdG4pJu+CKU9jmioblTtUSXn5FS+tqUR6VW53SOG02SY56Fd8uZygDcwqrLxmKlnewKzCWtRmQQp4WtVjUdhUXjmlfG7FKp+FZ6WG9G9pKoLl8qcenZiTfEtZRapJQL/ipwP2MUjKRkOStU0t42psW305TQqbyvvjWi4X7IksKBxb7NC2Uj1zjZlxxywxeiJaCMe0ek6SHNY3NSN/KqTgzLoylYl+28barKk/O8Vrt23Ue9/ZlhdIyOw+ow0Au9BJffzUR/XZ1U09/PD0qIMBAOxC9957b1fLP/fcc0OKxDmSsACA/cdzQnOa11pWWsnHtZxo+L6QVDAkpU1TARWUDM4PJw7H9YSVbjsitPRisZx8csesn68qmwh0TgRmowopXUvQ7VT7Jdm3rd24zSnN+Bs+KmwqL69mbXO2BW3mJVXzpQ7q80SUMSPlqQVyCqdNJaa6iLWxP4em274DgP3ltltJwAIA7O2WKQa6wXQEAIB9yKPIglexUEyaO9E8pcC5DeX8M5qSSo/55ypflKchMNNSqMe5Sh3VYw11Wl6l7KcgqIa1qpQ/rnXTrD5Cb5rrivst0y60XrnUJutj807icsozLW8upqVyHIXkYu2Reidtay5Q096cYvO1uU2zSzHlwrOWZGSu9mKywppWcmHNBrqvzxPJaD3uV36z0MW6Nv2pKc34c9o4V1lk1TKtQLsABtx3zAkLYL/YfEKf/QIv6QIAtGad7/Xo0aNNP8wJCwDATgmcVtwf1kLEZvhk4LTiisnndss9vyGvXyq9mCukfPy0AgrodDyvUL8JLdt6mhZSYj0uxXwtX5SVXU3J35RM9ujEnF+pDlnYbDSklFIKVcoOJlVwFJfjRipRnhfX7XZrXnMKd9E22xIT67X43G6F8nGt1yU9/fJuzJfK88XkTVdGizqsL1t7qZUv5i3vI63WDWg2XHsxl21/yqPIQq0P3Kuy9MHO9h0A7F3P6iGj9FIu45aobnvmW2ImAgBAK9vb29Wf8+fP1313/vz5uu+3t7dHFGU9wzTNtungpWRKpyNhHTlyZKdiAgDsYRcuXKieOwbh/PnzOnbs2EDKAna1QlJB34YWenpZGQDsPY8//rgee+yxUYcBANhDLly4oOeee04f+chHmr573/vep9dff912vW9+85u699579fjjj+vTn/50x3oGeR+ayWQ0NTXFSFgAAIDdILsUq00TAQAAAKClxukGisWifvCDH9h+vlumI+DFXAAAACNRUDLoU6w6J29YaTPSPIcxAAAAgDqXLl0adQhdIwkLAAAwEh5FMqYiow4DAAAA2GO+/e1vjzqErpGEBQAAAAAAALAn3HvvvaMOoSckYQEAAAAAI/GZz3xm1CEAALAjSMICAAAAAHack7dTAwCwX7hGHQAAAAAAAAAA7GckYQEAAAAAAABgiEjCAgAAAAAAAMAQkYQFAAAAAAAAgCEiCQsAAAAAAAAAQ0QSFgAAAAAAAACGiCQsAAAAAAAAAAwRSVgAAAAAAAAAGCKSsAAAAAAAAAAwRCRhAQD7QiEZlNvtbv6JZnc4kqyi7qCSBUmFpIKV/3ayfM9VRi1tjqr3FvcRSyWGYFLOVx9A2wEAAABgDyAJCwDYFzyRjEzTrP2kw5LCSicCvRWYjZYSioWkgtXEZpdJQ09EGTOjiKe3EBwpJBUMSelKu9dntLnTeWdlFQ2lFE6bMjMRDbO5AAAAALAXjY86AAAABq+WFOwxBSsFEjLLK2fMQcU1BOc2lPPPaKryuycy3KRvS37NTHVeCgAAAACuRoyEBQDsO4XkolLhtGqDYBtHsFp/LygZrE1fUJm9IBttnNIgq6g7pJRyivlKnzVNgdA09UFjvfZ1SZLOJRUsfx60DrUt1D63nWogMKtwLqb5puG57drcSyzl9bON39X3S2X55v5rbk8wuVkfsl1bKyOSG9sNAAAAAHsISVgAwP5SSGo+JsVPOxwDm11SzJuuTmNQSdwGEpWpDdIKpxaVLASUMNMKy6/4uikzEbBMgZBWuOPUBwUlgz6tzK031SXlFFuUlsvTKORiS7XpD3wrmluvTLEgLTYlWwNKmOuaW/E1J1MHGkvDd+txKTbf1C+Z8jDc5v6rtCcmb7r03bJWlKptCAdtBQAAAIC9iSQsAGAfKSg5H5Piy84fyZ+akT8Vqh99KlledhWyJArtZaMhKZ1oP/VBYU0rubAWbAPzK75cnks1MKuw8tosSCpsKl8Zeet2yx1KKbdxzmZ9jyKZUmI0H3KQiO0llsbvPBEthHOyDUey77/CpvL+uCr5cU9kQWHrd3ZtDSSYZxYAAADAnkcSFgCwbxSS84opruVuJkX1RJQxTS1rvjaStO5lV+uK+9usn40qJOvUB4MWrr10yyyNwG3JE9Fy3K/U6k68maugzXyrr7rovzpdtBUAAAAA9hCSsACAfSKrpZhqIzXrTGnGbxm1mV1tGt3qiWS0Hvcrv1mof9lVYU0rudZ1lgbBOkgWek5ozp/q7hF7z7S86rBONlk3z+vaSk7+mSm1bXMvsUiSclpZK69THk07a9f0Vv3nmZY3F9NSOUdcSC5aYmrRVuaEBQAAALAPkIQFAOwL2ajlpVlNL8vyKLIQVipU/mxVtcfgq4/Nu+WLeUuP6AdOK66YfG633PMb8lZHcgY0G669mKtUZ0qhSl1tk4UeRTJpeWM++5dh2QoosR6XLOs0vfwrMK2Napt9innT5XlZ27S5p1gkyS/vRmnEsNsXk7fVFAxt+i+RrsU0rzlLTA7aCgAAAAB7lGGaZrHdAkvJlE5Hwjpy5MhOxQQA2MMuXLhQPXcMwvnz53Xs2LGBlIV+ZBV1L2pmPeN8vl0AAAAA2IMGeR+ayWQ0NTXFSFgAAAAAAAAAGCaSsAAAAAAAAAAwROOjDgAAAOwFASVMBy8gAwAAAAA0YSQsAAAAAAAAAAwRSVgAAAAAAAAAGCKSsAAAAAAAAAAwRCRhAQAAAAAAAGCISMICAAAAAAAAwBCRhAUAAAAAAACw6x05cmTUIfRsfNQBAACA/eXxxx8fdQgAAAAABujTn/50y+/OnDmzIzEcP358R+oZFpKwAABg4B577LFRhwAAAABgAD7zmc90XOaOO+4Yagxnz54davk7gekIAAAAAAAAAGCIGAkLAAAAAAAAYOAuX76sixcvOlr20KFDGh/fv6nK/dsyAAAAAAAAACPzve99T7/wD/+hDEmGyyWXYcgo/1gZhqE//dM/1Yc//OHRBLoDmI4AAAAAAAAAwEB989yYnntlvJp0tSZgq5+5XHK5XE1J2V5Fo9GBlDMMJGEBAAAAAAAADNQPLhpyv+dANdFq/akkYK0J2czGuJ57eazn+ioJ2N2aiCUJCwC4imQVdQeVLIw6jqvJs3rIuEtPbHa52uYTuuv/b+/+Yps68zSOP3ZCIA1Qs4Swo5WAOmGzhFJtA8pFkUIb5CAWLiZlM5XYi0a9oFiixNsRaCwqEaSpsiISMjSSy1xQz84IqZOlmQvSKvYABalIjUJUqYNRIBgipG6BDLgLQylN7L3wn5wktuM4dpyE70c6Ij7nfd/zO7lo4dHr34nPS7VGhusDAAAAyKmfR8J6/OOIzAkC10RH0cICDT7MbEfs+OB1NgaxhLAAAGD2qWjWV+Gv1FyR70IAAAAAZGJ4JKzHT4cnDV9jx+Onw3o2HJryfYyBq8vlSnh+NiCEBQAAAAAAAJBVkRA2lDJ4laRwOKxwODL22XA44/vFAlhjEDubEMICACBJAbfqLRZZoofDl/havdtNS4NM3DiuzdG/aG2O9w4Y30rA+DlFm4EB41rXZ6J6AAAAAFNwzPdIXw880DffF+jXf7yt9/9wS//53wE5fn9TzZ4BNXsGtP+TG3rv1HXt/+SG9n9yQ998X6Bvbj3QMd+jKd9vfPA6G4PYwnwXAABA/vnkqHaqqiMor02R0LW6Xu4+r+zWsdcC7npVS2rNd8lzymU5fvsr3QiHVTFwXJvXvq3jOzJtNfCF3l3r0Mufh/XVdmng+GatlTT7/ooFAAAAPL+eqkS1ryzRs+FhLS0umnA9HA6P+VOSViy3yGwu0N8e/n1K90oWuM62IJadsAAABAbkV5N22KKfrXYdaOpR/83otZpW7bfFLh1QU77qnLNek+v3zaqQpIpmfbDnsvw3Mlxq4Lr++ppLB7ZHPlY0f6A9WaoSAAAAQHaETAv04EmRHjxZqP97tijh8cNPCxV8WqSHPy7QgycL9ODHRXr440I9GZ6fe0bn51MBAIBZakDX/yrpl/muAwAAAECulC4u1DJLoZ79bNLypWPjx1gP2MhhVigU0qOnIZW8sEAmk7RQhZJG8lN4DrETFgAAa4Wq5FFXrA9swK02T3RnrLVCVT1OnfDFLrXJk68656zL+lNXtLnrQJf+dHmPfrldktaq6jXDrtgv/qzfTbZUxT/r5csOtX0RXe74byefAwAAAGBGLSspVJmlQGXLzFq5rCDhUWYxq3SpVLxIWvkPRSqzmLXCYtayJfNzzyghLADgOdMjZ/XoC7jq3QFJNrn6WuVvjJ6v7lRDn0uRDgQ2uTqa5Ile26sG2hFM2Wt62f925A2oax16+fOTinQTqFDzB3v0u3+Lvh31z0qjtcB2nfx8dM7b+hXtCAAAAIBZpqS4UCXFJi0uNmtBwYiKCkdUVBhSUWFICxeEtKgorEVFYYXNJi0pKdLiYrMWF5u1pNisxQvnZwg7P58KAICEbHIFg4lf4mS1yxu0J5nmUjAYnRVwq95ZpR3WXNU432zXyXAkcj15MtHlkwqHDRfiP47OG/tzgjnNzVmsFwAAAMB0lSwqUCgsyWTWo59iL98KjxtlkkwmhQ3nw2Fp0aKClGvfvHkz47rKy8sznjtdhLAAAEyB74RTPTWtyt//ugEAAABgdlseuqXevocKhUJTmmc2m/Uv/7RE0vLcFJZHhLAAAKQUkLu+Ws6e2OcmdQTtYiMsAAAAACT2yqoX9cqqF/NdxqxCCAsAQEpW2b1BJWlUAAAAAADApHgxFwAAAAAAAADkEDthAQBA1h06dCjfJQAAAACYIb29vfkuYdYjhAUAAFl18ODBfJcAAAAAYIZs3bo13yXMCbQjAAAAAAAAAIAcIoQFAAAAAAAAgBwihAUAAAAAAACAHKInLAAAyKqjR4/muwQAAAAAWZTqvQ/nzp2bkRrmeu9ZQlgAAJB1H374Yb5LAAAAAJAFhw4dmnTMpk2bclpDb29vTtefCbQjAAAAAAAAAIAcYicsAAAAAAAAgKwbHh7W48eP0xq7ePFiFRbO36hy/j4ZAAAAAAAAgLz57rvv9K+vviqTJJPZLLPJJFP0MDKZTPr666+1atWq/BQ6A2hHAAAAAAAAACCrLt4s0F9uFMZDV2MAGz9nNstsNk8IZecjQlgAAAAAAAAAWXXvsUmWpUXxoNV4xAJYYyDr7S/UX64X5LvsnCGEBQA8R3xyWCyyxI96uQPJrllUP3oxjeup7pNqbAYCbtWPqX02+0Lvmjbr+MAUpw0c1+b4vFRrZLg+AAAAgJz6eSSsxz+OyJwgcE10FC0s0ODD+bsjlhAWAPCcqVFrX1DBYFB9rZJzr1uBBNeCwQ5VOatlcfgSzg0Gg/LarWndJ/FaifjkSCdctdrlDXqV8vZzXUWzvgp/peaKfBcCAAAAIBPDI2E9fjo8afgaOx4/Hdaz4VC+y84ZQlgAwHPLaj+gpp5OdScMPW1y9bWqxtOlyaLTyWVzLQAAAACY/SIhbChl8CpJ4XBY4XBk7LPhcJ6rzh1CWAAAkrFuU0ONR13ZSE7HreVzGNoVOHyK7IJtlEc9clZbRnfNBtyqj7c1cERD3DR3zM4mN45rc/QvWpvjvQPGtxIwfk7RZmDAuNb1mageAAAAwBQc8z3S1wMP9M33Bfr1H2/r/T/c0n/+d0CO399Us2dAzZ4B7f/kht47dV37P7mh/Z/c0DffF+ibWw90zPco3+XnRGG+CwAAIF8C7jZ5ahrUl/bX+iMBqTP6qakjKJcts3vbXEEFXVIkUG2Te79XrmCHZGlTZV+s1YBPjupONfQF5bVK8jlU7w7IZs/snvlzWY7f/ko3wmFVDBzX5rVv6/iOTFsNfKF31zr08udhfbVdGji+WWslubJcMQAAAIDMPVWJal9ZomfDw1paXDThejgcHvOnJK1YbpHZXKC/Pfz7jNU5k9gJCwB4zkR3mlosqnZWqcNrV+oMtkaV5aM/G3vCumxKslM1jbV8juicRnmSDQ8MyG+o19LoUU//zfQfddZ4Ta7fN6tCkiqa9cGey/LfyHCpgev662suHdge+VjR/IH2ZKlKAAAAANkRMi3QgydFevBkof7v2aKExw8/LVTwaZEe/rhAD54s0IMfF+nhjwv1ZHh+7hmdn08FAEBSNWrtS/OlVoFudfZU6UCqsVa7vME0tqYa1wq4Vd8odQSDsikgd/3eFBOb1BF0aeyG27ncWXZA1/8q6Zf5rgMAAABArpQuLtQyS6Ge/WzS8qVj48dYD9jIYVYoFNKjpyGVvLBAJpO0UIWSRvJTeA6xExYAgIR8clQ7VdUxPgDNwlo3+9VTU6lyKRrOJplmrVCVPGqbU81fE7msP3VFm7sOdOlPl/fol9slaa2qXjPsiv3iz/rdZEtV/LNevuxQ2xfR5Y7/dvI5AAAAAGbUspJClVkKVLbMrJXLChIeZRazSpdKxYuklf9QpDKLWSssZi1bMj/3jBLCAgAQZ/jqv6VNlX2Z93xNuZZtv1rlVLXFIsveflXVxObYtKPJ+GIum1x9rZKzetxLvOaa1/Sy/+3IG1DXOvTy5ycV6SZQoeYP9uh3/xZ9O+qflUZrge06+fnonLf1K9oRAAAAALNMSXGhSopNWlxs1oKCERUVjqioMKSiwpAWLghpUVFYi4rCCptNWlJSpMXFZi0uNmtJsVmLF87PEHZ+PhUAAAnZ5AomS1VtcgWDKV7wlGruVNeyyu4NKlETg9EXdsWGJm53kH4t+bZdJ8ORyPXkyUSXTyocNlyI/zg6b+zPCeY0N2exXgAAAADTVbKoQKGwJJNZj36KvXwrPG6USTKZFDacD4elRYsKZqrMGUUICwAAAAAAACBrloduqbfvoUKh0JTmmc1m/cs/LZG0PDeF5REhLAAAAAAAAICseWXVi3pl1Yv5LmNWoScsAAAAAAAAAOQQISwAAAAAAAAA5BDtCAAAQNYdOnQo3yUAAAAAmCG9vb0zdq/y8vIZu1c2pR3C/vDDD7msAwAAzBMHDx7MdwkAAAAAZsjWrVvzXcKckFYIe8LtyXUdAAAAAAAAADAvTRrC7rc3zUQdAAAAAAAAADAv8WIuAAAAAAAAAMghXswFAACy6ujRo/kuAQAAAEAWpXrvw7lz52akhrnee5YQFgAAZN2HH36Y7xIAAAAAZMGhQ4cmHbNp06ac1tDb25vT9WcC7QgAAAAAAAAAIIfYCQsAAAAAAAAg64aHh/X48eO0xi5evFiFhfM3qpz0yejrBgDIRKqeQQAAAACA+e+7777Tv776qkySTGazzCaTTNHDyGQy6euvv9aqVavyU+gMSCtepq8bAGAq0ukZBAAAAACYvy7eLNDN24V6tdokkzQmgI2FsOPD2Ew4HA65XK60z+cLPWEBAJgrAm65ffkuAgAAAAAmd+9s5lcNAAASGklEQVSxSZalRTKbzRMOk8kU/zN2ePsL9ZfrBRndy+FwpPw8GxDCAgCeIz45LBZZDIcjnVDT54iMr3crkHLterkTDkh1LbmAu16WWIE+hyzVTjkbjXWMf56J9/A5LKNrxD5bJh717j8kqXG0dp/DovqpPgQAAACA59LPI2E9/nFE5gSBa6KjaGGBBh9mvjM2FrzOxgBWIoQFADx3atTaF1QwGFSwr1X+RodS57A+ORo9auoIKui1yzpDVSrg1t7OBvW5bNEapI6+VrV2BNV3oMIwcPR5+lol515DUBxwq83fpCZ/Wzxctbmizx7sUJNhrtf+j5OWZHP1qaFz75TDZAAAAADPn+GRsB4/HZ40fI0dj58O69lwaMr3MbYcMAaws6kVgUQICwB4nlkrVCW/BiYNFWtUWT4TBY0KdHdKDdsioW9gQP6aSsVKsNpsCcNgq/2Amno61R0wrrFf+xukzu5sJKdW2Q9UyXmCnggAAAAAUouEsKGUwaskhcNhhcORsc+Gwxnda3zgOtsCWCnNF3MBADAv+brkaTqgYCzRDLhVX+1UjySpSR3BHeqyNMojSdUWdbb2yWu3Jhjnki225s3RazWx8eOlmh8ZoO5OqeHj6Fxrhap6GnWiu1WVFeMXS2Z0DasapL3dCtizsJO3vFI1/gEFlDgIBgAAAIBjvkfqvzusR08K9Os/3k46LhQa3fn6zfcFWvjggY49K9T7tiVTvqfL5Zp1L+MyyiiEHbrkVvv919Wya13kxLUzavn02/j1lXX7ZK8tzWRhuduvav0+uzKZnh3XdKblU31rOLOybp/sVX5Dbdd0puVLrZhGndfOtOjLFRn+ngAA09AjZ7VFTkmRADQWf/rkqO5UQ19QXqskn0P17nJ5gx2SpU2VfV5F8tRE4wKy2aNrtzWoLxiU1eeQpfGEfPbxAWuy+cZI86b6e6q0I37KJlewQw5Lo5zqV8WE0DYi4G6Tp6ZBfVZJgW51qkGRHHebGrRX3QG7EmXCiX83RjVqjf1orVBVT5duSoSwAAAAABJ6qhLVvrJEz4aHtbS4aML1cDg85k9JWrHcIrO5QH97+PeM7ztbA1gpkxB26JI6rq7XPrsxgL2nun0t0UBySJfc7XIrnYBxXJhZWit7S+2US8q+laqbELAmqy2zQHbdrn267+7Qpap8Bs4A8DyqUWssUA24VW+p10CfV3YNyK8eeYwhZNOOidMDqcbVqPXj6G5T2w41qU0DAclmTWf+ZJGmTa6+VlWe6FejxWHYPTs+VI7cP9KK4OPoqlZta5CqT/hkdyWKbxP8buJ8cljaDJ/LVVnjn/hcAAAAABAVMi3QgydFejZcIBUsnHA91oIgFApFf5YePytUgdmsJ8M/SRqZ+aJzbMoh7JD/qrS+UZHccEiXvvxWG95qMQSJpaptrNPV9ou6VrtL67JY7PxSqtrXy9Ry8Zpqd/FbAoC8sG5TQ41T/TelSMPVRK0BEvU/TXdcMonmp2mHSx2yqMvnks0mJQtOTzh71KNqWcZsa+2Sz2XL7L5x43fpAgAAAMBYpYsLtcxSqGc/m7R86dj4MRbARg6zQqGQHj0NqeSFBTKZpIUqFCGshhTJYKOJ65BfV+9u0OvjM8TSKq1f2aH7Q9K62Ff331qvq5+e113F2hXcH/3af3uLzm94Sy27NHZX6dAludsjcyRpw1stiuSV0TXrynT+fKRxwJgWCGPmbdBbLbu0brI5k0q04/VagmdYl/L+2iB9+21Z5NyKFVp5776GtE5shgWAPAh0q7OnRg3lir6ky6k29/5xrQHGSXfctOaP220acMt90y57uSQFNOCvUeX+FPfwdclT06o+r7EHbEDu+mpDeJuh6EvCUt0eAAAAwPNtWUmhyiwFejYcVunSgjHXjLtgR0ZG9Oip9MIL0ZYFJqkgVCjpp5kvOsemGMLe1/27ZaoyJoYrV2hFwrF3df++FEkX7+r8l+u1r6VFpUOX5G6PfA1/V8tb0phg85ph/jWdaT+vsrdaZF+naLDp1qX42Ls6f/91tbTsirZEiO28vaYz7Ve1fl+L7KWSrp2R+9KQ1tWmmjOx9vPtLTof/TQa/o63LuEzpLr/vRX71NIS/QWWrlDZXb/ivyYAwAwwfn3fuIs08nX/+mrD7tGmDgUntBRKd1wyyeYbk9FI+4C93QHZ7VbJuk3aa5GlR5KckRd+pch/fV0e1TT0jWtwYNW2hho5u3xyTSeFvdmvnqod9IMFAAAAkFRJcaFKik0qGjZrQcGITCZJMkWvRvrAhkJhPf7JpCUloz1jTSbp2cKMXmE1603/qe7eTxIirtSKFaM/1zXWRsaU1ur1Deflnyx5HLqvezLssp0wb6XqtkQvrqvSBn0Z2Xmr+7qnu/rWEKJqQ9VoHYnmTKgjUU/YNA2lvv/6MQn2Cq1YeS9JDQCA7LPJFQwqaV5qtcsbtE847QraMhhnM3y2jb2WZP7YW3jlHf0kuzeoiTNsE2uTZHMFE7YcsNq9Ciadm3itCedtLiUcZnDw4EH98MMPqQcBAAAAmBMOHjyY8vrWrVsnnPuPjZL0JLMbrpGkFxPeYy7/O2N6IWxpldavbJf/2i6tM+4UHfLr6t0yvZ4wWBzS/XuSqhJdy5ZYCwCja0nG5vP+CXYWAwAAAAAAAJhXzFMbPrpzM6JUta9v0LefnjFEjJE2AqrbYggh7+qqPzop2ke2arJ3UZWuUJm+lT+28NAlfflt+vO+vDQ0ycAcmcr9h+7rXtJ2DgAAAAAAAADmgynuhC1V1Xqpwz+k2th39dftUstbZ9TS0hIftSHWxzVupcrud6il5W78euTyOlVt+FSfGl7MNWqddu2rk7u9RS3RNer22RP0bx0vNq9dLaNNXcetnU3jn2EK979/X3fLqugHCwAAAAAAAMxjpmAwGE414OjRo/rwww9HTwxdkrtDarTXphkeXtOZMS+uQsSQLkV+kfxeAMw7hw4dmrRvULqGhoZUWsp/KAEAAAAAMyOb/w71er0qLy+fajsCSaW1alx/Ve1nZrLH6vxz7Uy7zpe9TgALAAAAAAAAzHMZvZirtNaulsmHIYV1u1r4HQIAAAAAAADPgYxC2KlZp10tk3dyBQAAAAAAAID5aAZCWAAApmdoaCjfJQAAAAAAkLG0QthDhw7lug4AABLipVwAAAAAgLlu0hA2W2+3BgAAAAAAAIDnkTnfBQAAAAAAAADAfEYICwAAAAAAAAA5RAgLAAAAAAAAADlECAsAAAAAAAAAOUQICwAAAAAAAAA5RAgLAAAAAAAAADlECAsAAAAAAAAAOUQICwAAAAAAAAA5RAgLAAAAAAAAADlUmO8CAAAAAAAAgGyx/Nf/5ruEWS/4m1+kvH7u3LkZqmTu2rp165TGE8ICAAAAAAAAGGPTpk35LmHW6u3tnfIcQlgAAAAAAADMO4P2F/Jdwqyz2v0k3yU8t+gJCwAAAAAAAAA5NOlO2Kn2N5DoGwEAAAAAAAAAMWm1I5hKnwP6RQAAAAAAAADAKNoRAAAAAAAAAEAOZSWEvXPnjrZv367u7u4Uo3xyWCyyGA6HLxt3Nwi4VW+plzuQ5XXT5XOMeb76TAvJ93MAAAAAAABgai44tXr16vjx5qnbxotyrn5To6du69Sbq7XaeSEPhWbPBWeiZxj/rOlem3Y1OVx7+qYdwt65c0d79uxReXm5amtrJxldo9a+oILByOGyTffu41jt8ga9slulSOibSZCZ4TyfQ5ZGv+H5+tTQWZ1mEDvunmOeAwAAAAAAALPaBadWN/Xr8MVBDQ4OanDwonae3TIuiDUO36KzOy9qsPWNGS40i26f0kf9u7W7/6NZG3zOJtMKYY0BbFtbm4qLi7NV1xwTkLvNo6YOY3Bqlf3jVsl5Qtne8AsAAAAAAIDZ4rZOfXRauz2f6Z01sXNr9M6xw9KRkxq/T/T2qTfVJI8+Gx08J90+f1ba+a7e3SmdPU8KO5m0Qtju7m5t375dd+7ciZ/LXgAb2QXqcNTLYnHoqMPYpmDcDtGAW/WxiwG36uNf/XdEg87YeJ8clkZ51CNntUWWNOZE7v/v+ve05xkEutXZ06Qd43f2WrepocavgYChNt/oWpFdsolqTfDcCds4RMe5HYlbIKT6HSWbAwAAAAAAgPTdPq+zV3arfvym1jV12rmxX7eM+eR5p7ac3amLc3kHrCTpts6flXbWrdGaup3S2fOaEMPeOqU3E7ZmSHYt0k7A6XxTq1c7I+H17dFx8XPR+596c7T1w5iOCMnum3CtaAuDU84kbSSyJ60Qtra2VuXl5dqzZ4/u3LkzjQA2GjROCDN75K/8WMGgSwd3NMnTFb3i65K/RursjoSEge5OqbJckk+O6k41xL763yG1jQkSbXIFO9QUa3/gsk0yJ3b//9H/TGmeQU2lypM8c/9Nw/O3SR8Hgwr2tUrOvXIHEtVq5JOj2qmqjuj9+1rlbzS2S+iRs39HtLYm9cR33qZ+3sRzAAAAAAAAMGUb1+qlhBeu6Mat0Z+PHDmt3e+9o7m9B1aR4Fk7VbdGkbBZZzV2M+wVHflIOjY4qMGLh6Uj7xtaFqS+1r/2mAYHW/WGLsi55ax2xlo8eKSPTt1WJICNtnMYjFwbzbQNa3t260p8J3KytaJzbtRHzxvnZFdaIWxxcbHa2triQWzmO2CNPWFdshnON2yLfo+/vFI1/gEFJPm6/Go40CB1diuggLo7FRkXGJDfGOg2etQzmnQmlnKO4f5TmmfQ06/EFdREcuPY839sl1WSrHYdaDIGtKnqNuyynTCvRq37oxdtO9Sk6M7bSZ434RwAAAAAAABM3ZUbupXwwkatfWn058Oew+pvmr0vj0pXpBVBXTRMXqO6ndKRk8bocqMOH4uGzWve0Xu7jWF06ms766IR9e1b6tcVHdkS3b3adFpXbtyK7zx+L2E7B8Pab9Rrt6I7kZOtFZvzbjTFNc7JsrR7whqD2Jz2gLVuU4M61R3wqcvfoG22bWpQv24GutWpBo1mpU3qCI6+5GviDtJEMpmTxjzrNjXUeNQ1fjtpoFudPVWqSJjvBjTgT/P2Gcv0eQEAAAAAAJCWNXXaufG0vBOav57X2SuVesmYFb70jj7zVOrIFmdOdlvOjAs6eeSKrhzZEv8K/5YjV6TT3iTPdFu3+pOtleqaJO2WZ3AwvuN1ei8yy+ZaUzelF3MVFxervb1d7e3tOXwJl1XbGqTOvW3yN2yTVVZta/Cr60S/1LAtuou0QlXyJG4LkHTZDOakPc8q+4EmeRqNLRYibQTUut+w47cn3lohaR/ZJPePB7wBt9o86c+b8vMCAAAAAABgCtbonfd263STMVi9IOeWI9LhdzUh6nujVRcP96vpzVMT+6jOBRe8Or3xsC4aA83Bizo8Joi+Mvqyrgk9c1NdM1jzkip12tA2IHY+EnpPOJ9KsrVm0JRC2Okz9oRN/kIo67YGqUfxFgHWbQ3ye/yGlgE2ufpaJWd1fC2LY/w2VJt2NBlfdpXOnGnMs7kU7JAa4y/CapQ6gvLajdtga1TVvzdyvdqpqo5YS4bx9xxbj6uvVf7G6LrVnWroM7ZySCbd5wUAAAAAAMC0vNGqQY/UFH/xU5PkGdRnCb8yL6155zN5Ko9oyxwMYi94T2tjvBVBzBrV7dyo0/EUdqMqb7wf+V1sOaJKT6shjE51zegNtV48LBl23K52XpC0Ru985lGl4bxz0m3FydaaOaZgMBhONWDr1q1TXvTcuXMZFzR/+eSwtKmyzyt7kvazAAAAAAAAmB7Lf/2vJGnQ/kKeK5l9VrufSJKCv/lFynHnzp3Tpk2bZqKkOam3tzftzNTr9aq8vFyFkw0kUAUAAAAAAACAzM1wOwIAAAAAAAAAeL5MuhMW2WKTKzh5J1cAAAAAAAAA8wshLAAAAAAAAOadWP9TYDYghAUAAAAAAAAwRm9vb75LmFcIYQEAAAAAADBvBH/zi3yXMOdt3bo13yXMO7yYCwAAAAAAAAByiBAWAAAAAAAAAHKIEBYAAAAAAAAAcogQFgAAAAAAAAByiBAWAAAAAAAAAHLEZDIRwgIAAAAAAABALhHCAgAAAAAAAECOsBMWAAAAAAAAAHKIEBYAAAAAAAAAcogQFgAAAAAAAAByiBAWAAAAAAAAAHKMEBYAAAAAAAAAcoSdsAAAAAAAAACQQ2azWf8PQEP7Ud12+OsAAAAASUVORK5CYII=;movable=0;resizable=0;rotatable=0;deletable=0;editable=0;connectable=0;" parent="1" vertex="1">
          <mxGeometry x="-798" y="-1590" width="1377" height="860" as="geometry" />
        </mxCell>
        <mxCell id="8c2m5CExAeKh92uo6n3_-3" value="" style="rounded=0;whiteSpace=wrap;html=1;fillColor=none;strokeColor=#FF3333;strokeWidth=2;" parent="1" vertex="1">
          <mxGeometry x="-790" y="-1480" width="400" height="40" as="geometry" />
        </mxCell>
        <mxCell id="8c2m5CExAeKh92uo6n3_-7" value="" style="rounded=0;whiteSpace=wrap;html=1;fillColor=none;strokeColor=#FF3333;strokeWidth=2;" parent="1" vertex="1">
          <mxGeometry x="-100" y="-1490" width="550" height="20" as="geometry" />
        </mxCell>
        <mxCell id="mG2--i8ZaQPzaHp7R9do-7" style="edgeStyle=orthogonalEdgeStyle;rounded=0;orthogonalLoop=1;jettySize=auto;html=1;" parent="1" source="fcHMmbwLfAtxo5VAsdAu-2" edge="1">
          <mxGeometry relative="1" as="geometry">
            <mxPoint x="215" y="-1090" as="targetPoint" />
          </mxGeometry>
        </mxCell>
        <mxCell id="fcHMmbwLfAtxo5VAsdAu-2" value="Use -jX to use a different number of cores. In this example -j8 is used to use 8 cores in parallel to speedup." style="rounded=0;whiteSpace=wrap;html=1;fillColor=#dae8fc;strokeColor=#6c8ebf;" parent="1" vertex="1">
          <mxGeometry x="620" y="-1140" width="270" height="60" as="geometry" />
        </mxCell>
        <mxCell id="mG2--i8ZaQPzaHp7R9do-3" value="" style="rounded=0;whiteSpace=wrap;html=1;fillColor=none;strokeColor=#FF3333;strokeWidth=2;" parent="1" vertex="1">
          <mxGeometry x="-350" y="-1100" width="130" height="20" as="geometry" />
        </mxCell>
        <mxCell id="mG2--i8ZaQPzaHp7R9do-4" value="" style="rounded=0;whiteSpace=wrap;html=1;fillColor=none;strokeColor=#FF3333;strokeWidth=2;" parent="1" vertex="1">
          <mxGeometry x="-180" y="-1100" width="530" height="20" as="geometry" />
        </mxCell>
        <mxCell id="mG2--i8ZaQPzaHp7R9do-5" value="" style="rounded=0;whiteSpace=wrap;html=1;fillColor=none;strokeColor=#FF3333;strokeWidth=2;" parent="1" vertex="1">
          <mxGeometry x="-263" y="-854" width="763" height="20" as="geometry" />
        </mxCell>
        <mxCell id="mG2--i8ZaQPzaHp7R9do-6" value="" style="rounded=0;whiteSpace=wrap;html=1;fillColor=none;strokeColor=#FF3333;strokeWidth=2;" parent="1" vertex="1">
          <mxGeometry x="-262" y="-828" width="763" height="20" as="geometry" />
        </mxCell>
        <mxCell id="JluU8bf_0UNNNdZRalwh-4" style="edgeStyle=orthogonalEdgeStyle;rounded=0;orthogonalLoop=1;jettySize=auto;html=1;exitX=0;exitY=0.5;exitDx=0;exitDy=0;entryX=0.25;entryY=0;entryDx=0;entryDy=0;" edge="1" parent="1" source="mG2--i8ZaQPzaHp7R9do-8" target="mG2--i8ZaQPzaHp7R9do-4">
          <mxGeometry relative="1" as="geometry">
            <Array as="points">
              <mxPoint x="590" y="-1170" />
              <mxPoint x="590" y="-1130" />
              <mxPoint x="-48" y="-1130" />
            </Array>
          </mxGeometry>
        </mxCell>
        <mxCell id="mG2--i8ZaQPzaHp7R9do-8" value="Set path to the git shell sh.exe&amp;nbsp;" style="rounded=0;whiteSpace=wrap;html=1;fillColor=#f8cecc;strokeColor=#b85450;" parent="1" vertex="1">
          <mxGeometry x="620" y="-1180" width="170" height="20" as="geometry" />
        </mxCell>
        <mxCell id="JluU8bf_0UNNNdZRalwh-2" value="$USER" style="rounded=0;whiteSpace=wrap;html=1;fillColor=#f8cecc;strokeColor=#b85450;" vertex="1" parent="1">
          <mxGeometry x="-130" y="-1100" width="48" height="20" as="geometry" />
        </mxCell>
      </root>
    </mxGraphModel>
  </diagram>
</mxfile>
